<?xml version="1.0" standalone="no"?>
<!DOCTYPE svg PUBLIC "-//W3C//DTD SVG 1.1//EN" "http://www.w3.org/Graphics/SVG/1.1/DTD/svg11.dtd" >
<svg xmlns="http://www.w3.org/2000/svg" xmlns:xlink="http://www.w3.org/1999/xlink" version="1.1">
<metadata>
Created by FontForge 20150102 at Tue Mar  3 14:11:16 2015
 By uniteet7
(c) Copyright The Font Bureau, Inc. 2014. All rights reserved.
</metadata>
<defs>
<font id="InputMono-Black" horiz-adv-x="700" >
  <font-face 
    font-family="InputMono Black"
    font-weight="800"
    font-stretch="normal"
    units-per-em="1100"
    panose-1="2 0 8 9 3 0 0 9 0 4"
    ascent="850"
    descent="-250"
    x-height="600"
    bbox="-313 -450 1350 1400"
    underline-thickness="0"
    underline-position="0"
    unicode-range="U+000D-1F41B"
  />
<missing-glyph 
d="M50 -250v1100h600v-1100h-600zM150 -150h400v900h-400v-900z" />
    <glyph glyph-name=".notdef" 
d="M50 -250v1100h600v-1100h-600zM150 -150h400v900h-400v-900z" />
    <glyph glyph-name="NULL" horiz-adv-x="0" 
 />
    <glyph glyph-name="nonmarkingreturn" unicode="&#xd;" horiz-adv-x="0" 
 />
    <glyph glyph-name="space" unicode="&#xa0;" 
 />
    <glyph glyph-name="space" unicode=" " 
 />
    <glyph glyph-name="A" unicode="A" 
d="M428 330l-73 326l-82 -326h155zM503 0l-41 180h-227l-45 -180h-180l218 800h245l218 -800h-188z" />
    <glyph glyph-name="Agrave" unicode="&#xc0;" 
d="M10 0zM428 330l-73 326l-82 -326h155zM503 0l-41 180h-227l-45 -180h-180l218 800h245l218 -800h-188zM331 900l-225 200h250l106 -200h-131z" />
    <glyph glyph-name="Aacute" unicode="&#xc1;" 
d="M10 0zM428 330l-73 326l-82 -326h155zM503 0l-41 180h-227l-45 -180h-180l218 800h245l218 -800h-188zM216 900l106 200h250l-225 -200h-131z" />
    <glyph glyph-name="Acircumflex" unicode="&#xc2;" 
d="M10 0zM428 330l-73 326l-82 -326h155zM503 0l-41 180h-227l-45 -180h-180l218 800h245l218 -800h-188zM151 884l-62 84l184 159h152l186 -159l-61 -83l-201 105z" />
    <glyph glyph-name="Atilde" unicode="&#xc3;" 
d="M10 0zM428 330l-73 326l-82 -326h155zM503 0l-41 180h-227l-45 -180h-180l218 800h245l218 -800h-188zM446 910q-49 0 -75 15t-42 32q-16 18 -30 32.5t-33 14.5q-16 0 -29 -14.5t-12 -60.5v-9h-127v15q0 83 42 139t116 56q48 0 74 -15t43 -32q17 -18 31 -33t31 -15
q16 0 29 14.5t12 60.5v9h127v-15q0 -82 -42 -138t-115 -56z" />
    <glyph glyph-name="Adieresis" unicode="&#xc4;" 
d="M10 0zM428 330l-73 326l-82 -326h155zM503 0l-41 180h-227l-45 -180h-180l218 800h245l218 -800h-188zM220 890q-43 0 -70.5 17t-27.5 59v15q0 43 27.5 61t70.5 18q44 0 71 -18t27 -61v-15q0 -42 -27.5 -59t-70.5 -17zM480 890q-43 0 -70.5 17t-27.5 59v15q0 43 27.5 61
t70.5 18q44 0 71 -18t27 -61v-15q0 -42 -27.5 -59t-70.5 -17z" />
    <glyph glyph-name="Aring" unicode="&#xc5;" 
d="M10 0zM428 330l-73 326l-82 -326h155zM503 0l-41 180h-227l-45 -180h-180l218 800h245l218 -800h-188zM350 875q-94 0 -152 38t-58 117v32q0 80 58 119t152 39q95 0 152.5 -39t57.5 -119v-32q0 -79 -58 -117t-152 -38zM350 966q35 0 53.5 14.5t18.5 49.5v32
q0 34 -18.5 50.5t-53.5 16.5q-36 0 -54 -16.5t-18 -50.5v-32q0 -35 18 -49.5t54 -14.5z" />
    <glyph glyph-name="Amacron" unicode="&#x100;" 
d="M10 0zM428 330l-73 326l-82 -326h155zM503 0l-41 180h-227l-45 -180h-180l218 800h245l218 -800h-188zM125 925v150h450v-150h-450z" />
    <glyph glyph-name="Abreve" unicode="&#x102;" 
d="M10 0zM428 330l-73 326l-82 -326h155zM503 0l-41 180h-227l-45 -180h-180l218 800h245l218 -800h-188zM350 893q-135 0 -200.5 59t-66.5 181h160q1 -68 25 -94.5t82 -26.5t82 26.5t25 94.5h160q-1 -122 -66.5 -181t-200.5 -59z" />
    <glyph glyph-name="Aogonek" unicode="&#x104;" 
d="M10 0zM428 330l-73 326l-82 -326h155zM503 0l-41 180h-227l-45 -180h-180l218 800h245l218 -800h-188zM626 -224q-84 0 -132.5 32t-48.5 96q0 66 51 111.5t111 61.5l27 -54q-34 -21 -41.5 -40t-7.5 -36q0 -26 17.5 -38.5t57.5 -12.5q18 0 42 2.5t53 7.5v-116
q-36 -7 -68.5 -10.5t-60.5 -3.5z" />
    <glyph glyph-name="Aringacute" unicode="&#x1fa;" 
d="M10 0zM428 330l-73 326l-82 -326h155zM503 0l-41 180h-227l-45 -180h-180l218 800h245l218 -800h-188zM350 875q-94 0 -152 38t-58 117v32q0 80 58 119t152 39q95 0 152.5 -39t57.5 -119v-32q0 -79 -58 -117t-152 -38zM350 966q35 0 53.5 14.5t18.5 49.5v32
q0 34 -18.5 50.5t-53.5 16.5q-36 0 -54 -16.5t-18 -50.5v-32q0 -35 18 -49.5t54 -14.5zM286 1200l106 200h250l-225 -200h-131z" />
    <glyph glyph-name="B" unicode="B" 
d="M50 0v800h314q135 0 199.5 -46t64.5 -142v-34q0 -66 -28 -97.5t-91 -42.5v-29q68 -7 104.5 -46.5t36.5 -99.5v-52q0 -107 -70.5 -159t-218.5 -52h-311zM250 480h94q47 0 66.5 15t19.5 52v48q0 36 -19.5 50.5t-66.5 14.5h-94v-180zM250 140h90q60 0 85 18t25 63v52
q0 43 -25 61t-85 18h-90v-212z" />
    <glyph glyph-name="C" unicode="C" 
d="M360 -10q-155 0 -232.5 64.5t-77.5 192.5v302q0 131 78 196t233 65q158 0 230 -68t79 -223l-200 -10q-6 93 -27.5 122t-82.5 29q-59 0 -84.5 -30.5t-25.5 -101.5v-261q0 -68 25.5 -97.5t84.5 -29.5q60 0 81.5 28.5t28.5 118.5l200 -10q-7 -154 -79 -220.5t-231 -66.5z
" />
    <glyph glyph-name="Ccedilla" unicode="&#xc7;" 
d="M50 0zM360 -10q-155 0 -232.5 64.5t-77.5 192.5v302q0 131 78 196t233 65q158 0 230 -68t79 -223l-200 -10q-6 93 -27.5 122t-82.5 29q-59 0 -84.5 -30.5t-25.5 -101.5v-261q0 -68 25.5 -97.5t84.5 -29.5q60 0 81.5 28.5t28.5 118.5l200 -10q-7 -154 -79 -220.5
t-231 -66.5zM335 0l20 42q86 -8 140 -35.5t54 -94.5q0 -75 -67 -106.5t-149 -31.5q-96 0 -157 31.5t-66 104.5l168 10q2 -19 12.5 -26.5t34.5 -7.5q27 0 40.5 10.5t13.5 44.5q0 25 -9 38.5t-35 20.5z" />
    <glyph glyph-name="Cacute" unicode="&#x106;" 
d="M50 0zM360 -10q-155 0 -232.5 64.5t-77.5 192.5v302q0 131 78 196t233 65q158 0 230 -68t79 -223l-200 -10q-6 93 -27.5 122t-82.5 29q-59 0 -84.5 -30.5t-25.5 -101.5v-261q0 -68 25.5 -97.5t84.5 -29.5q60 0 81.5 28.5t28.5 118.5l200 -10q-7 -154 -79 -220.5
t-231 -66.5zM251 900l106 200h250l-225 -200h-131z" />
    <glyph glyph-name="Ccircumflex" unicode="&#x108;" 
d="M50 0zM166 884l-62 84l184 159h152l186 -159l-61 -83l-201 105zM360 -10q-155 0 -232.5 64.5t-77.5 192.5v302q0 131 78 196t233 65q158 0 230 -68t79 -223l-200 -10q-6 93 -27.5 122t-82.5 29q-59 0 -84.5 -30.5t-25.5 -101.5v-261q0 -68 25.5 -97.5t84.5 -29.5
q60 0 81.5 28.5t28.5 118.5l200 -10q-7 -154 -79 -220.5t-231 -66.5z" />
    <glyph glyph-name="Cdotaccent" unicode="&#x10a;" 
d="M50 0zM360 -10q-155 0 -232.5 64.5t-77.5 192.5v302q0 131 78 196t233 65q158 0 230 -68t79 -223l-200 -10q-6 93 -27.5 122t-82.5 29q-59 0 -84.5 -30.5t-25.5 -101.5v-261q0 -68 25.5 -97.5t84.5 -29.5q60 0 81.5 28.5t28.5 118.5l200 -10q-7 -154 -79 -220.5
t-231 -66.5zM365 890q-57 0 -92.5 17t-35.5 59v15q0 43 35.5 61t92.5 18t92.5 -18t35.5 -61v-15q0 -42 -36 -59t-92 -17z" />
    <glyph glyph-name="Ccaron" unicode="&#x10c;" 
d="M50 0zM290 904l-186 159l61 83l201 -105l198 106l62 -84l-184 -159h-152zM360 -10q-155 0 -232.5 64.5t-77.5 192.5v302q0 131 78 196t233 65q158 0 230 -68t79 -223l-200 -10q-6 93 -27.5 122t-82.5 29q-59 0 -84.5 -30.5t-25.5 -101.5v-261q0 -68 25.5 -97.5
t84.5 -29.5q60 0 81.5 28.5t28.5 118.5l200 -10q-7 -154 -79 -220.5t-231 -66.5z" />
    <glyph glyph-name="D" unicode="D" 
d="M50 0v800h301q140 0 219.5 -79.5t79.5 -211.5v-222q0 -131 -79.5 -209t-220.5 -78h-300zM250 150h80q68 0 94 34t26 123v182q0 91 -26 126t-94 35h-80v-500z" />
    <glyph glyph-name="Dcaron" unicode="&#x10e;" 
d="M50 0zM275 904l-186 159l61 83l201 -105l198 106l62 -84l-184 -159h-152zM50 0v800h301q140 0 219.5 -79.5t79.5 -211.5v-222q0 -131 -79.5 -209t-220.5 -78h-300zM250 150h80q68 0 94 34t26 123v182q0 91 -26 126t-94 35h-80v-500z" />
    <glyph glyph-name="E" unicode="E" 
d="M50 0v800h600v-150h-400v-150h350v-150h-350v-200h400v-150h-600z" />
    <glyph glyph-name="Egrave" unicode="&#xc8;" 
d="M50 0zM361 900l-225 200h250l106 -200h-131zM50 0v800h600v-150h-400v-150h350v-150h-350v-200h400v-150h-600z" />
    <glyph glyph-name="Eacute" unicode="&#xc9;" 
d="M50 0zM246 897l106 200h250l-225 -200h-131zM50 0v800h600v-150h-400v-150h350v-150h-350v-200h400v-150h-600z" />
    <glyph glyph-name="Ecircumflex" unicode="&#xca;" 
d="M50 0zM161 884l-62 84l184 159h152l186 -159l-61 -83l-201 105zM50 0v800h600v-150h-400v-150h350v-150h-350v-200h400v-150h-600z" />
    <glyph glyph-name="Edieresis" unicode="&#xcb;" 
d="M50 0zM50 0v800h600v-150h-400v-150h350v-150h-350v-200h400v-150h-600zM237 890q-43 0 -70.5 17t-27.5 59v15q0 43 27.5 61t70.5 18q44 0 71 -18t27 -61v-15q0 -42 -27.5 -59t-70.5 -17zM497 890q-43 0 -70.5 17t-27.5 59v15q0 43 27.5 61t70.5 18q44 0 71 -18t27 -61
v-15q0 -42 -27.5 -59t-70.5 -17z" />
    <glyph glyph-name="Emacron" unicode="&#x112;" 
d="M50 0zM50 0v800h600v-150h-400v-150h350v-150h-350v-200h400v-150h-600zM135 925v150h450v-150h-450z" />
    <glyph glyph-name="Ebreve" unicode="&#x114;" 
d="M50 0zM50 0v800h600v-150h-400v-150h350v-150h-350v-200h400v-150h-600zM360 893q-135 0 -200.5 59t-66.5 181h160q1 -68 25 -94.5t82 -26.5t82 26.5t25 94.5h160q-1 -122 -66.5 -181t-200.5 -59z" />
    <glyph glyph-name="Edotaccent" unicode="&#x116;" 
d="M50 0zM360 890q-57 0 -92.5 17t-35.5 59v15q0 43 35.5 61t92.5 18t92.5 -18t35.5 -61v-15q0 -42 -36 -59t-92 -17zM50 0v800h600v-150h-400v-150h350v-150h-350v-200h400v-150h-600z" />
    <glyph glyph-name="Eogonek" unicode="&#x118;" 
d="M50 0zM519 -224q-84 0 -132.5 32t-48.5 96q0 66 51 111.5t111 61.5l27 -54q-34 -21 -41.5 -40t-7.5 -36q0 -26 17.5 -38.5t57.5 -12.5q18 0 42 2.5t53 7.5v-116q-36 -7 -68.5 -10.5t-60.5 -3.5zM50 0v800h600v-150h-400v-150h350v-150h-350v-200h400v-150h-600z" />
    <glyph glyph-name="Ecaron" unicode="&#x11a;" 
d="M50 0zM285 904l-186 159l61 83l201 -105l198 106l62 -84l-184 -159h-152zM50 0v800h600v-150h-400v-150h350v-150h-350v-200h400v-150h-600z" />
    <glyph glyph-name="F" unicode="F" 
d="M100 0v800h570v-150h-370v-200h300v-150h-300v-300h-200z" />
    <glyph glyph-name="G" unicode="G" 
d="M352 -10q-146 0 -224 71.5t-78 205.5v262q0 136 77.5 208.5t223.5 72.5t219 -65t80 -186l-200 -10q-5 63 -26.5 87t-70.5 24q-58 0 -80.5 -32.5t-22.5 -118.5v-222q0 -84 21.5 -115.5t78.5 -31.5t79 30.5t21 109.5h-100v150h300v-163q0 -134 -77 -205.5t-221 -71.5z" />
    <glyph glyph-name="Gcircumflex" unicode="&#x11c;" 
d="M50 0zM151 884l-62 84l184 159h152l186 -159l-61 -83l-201 105zM352 -10q-146 0 -224 71.5t-78 205.5v262q0 136 77.5 208.5t223.5 72.5t219 -65t80 -186l-200 -10q-5 63 -26.5 87t-70.5 24q-58 0 -80.5 -32.5t-22.5 -118.5v-222q0 -84 21.5 -115.5t78.5 -31.5t79 30.5
t21 109.5h-100v150h300v-163q0 -134 -77 -205.5t-221 -71.5z" />
    <glyph glyph-name="Gbreve" unicode="&#x11e;" 
d="M50 0zM350 893q-135 0 -200.5 59t-66.5 181h160q1 -68 25 -94.5t82 -26.5t82 26.5t25 94.5h160q-1 -122 -66.5 -181t-200.5 -59zM352 -10q-146 0 -224 71.5t-78 205.5v262q0 136 77.5 208.5t223.5 72.5t219 -65t80 -186l-200 -10q-5 63 -26.5 87t-70.5 24
q-58 0 -80.5 -32.5t-22.5 -118.5v-222q0 -84 21.5 -115.5t78.5 -31.5t79 30.5t21 109.5h-100v150h300v-163q0 -134 -77 -205.5t-221 -71.5z" />
    <glyph glyph-name="Gdotaccent" unicode="&#x120;" 
d="M50 0zM360 890q-57 0 -92.5 17t-35.5 59v15q0 43 35.5 61t92.5 18t92.5 -18t35.5 -61v-15q0 -42 -36 -59t-92 -17zM352 -10q-146 0 -224 71.5t-78 205.5v262q0 136 77.5 208.5t223.5 72.5t219 -65t80 -186l-200 -10q-5 63 -26.5 87t-70.5 24q-58 0 -80.5 -32.5
t-22.5 -118.5v-222q0 -84 21.5 -115.5t78.5 -31.5t79 30.5t21 109.5h-100v150h300v-163q0 -134 -77 -205.5t-221 -71.5z" />
    <glyph glyph-name="Gcommaaccent" unicode="&#x122;" 
d="M50 0zM186 -300l66 200h250l-185 -200h-131zM352 -10q-146 0 -224 71.5t-78 205.5v262q0 136 77.5 208.5t223.5 72.5t219 -65t80 -186l-200 -10q-5 63 -26.5 87t-70.5 24q-58 0 -80.5 -32.5t-22.5 -118.5v-222q0 -84 21.5 -115.5t78.5 -31.5t79 30.5t21 109.5h-100v150
h300v-163q0 -134 -77 -205.5t-221 -71.5z" />
    <glyph glyph-name="H" unicode="H" 
d="M50 0v800h200v-280h200v280h200v-800h-200v370h-200v-370h-200z" />
    <glyph glyph-name="Hcircumflex" unicode="&#x124;" 
d="M50 0zM50 0v800h200v-280h200v280h200v-800h-200v370h-200v-370h-200zM151 884l-62 84l184 159h152l186 -159l-61 -83l-201 105z" />
    <glyph glyph-name="I" unicode="I" 
d="M50 0v150h200v500h-200v150h600v-150h-200v-500h200v-150h-600z" />
    <glyph glyph-name="Igrave" unicode="&#xcc;" 
d="M50 0zM50 0v150h200v500h-200v150h600v-150h-200v-500h200v-150h-600zM331 900l-225 200h250l106 -200h-131z" />
    <glyph glyph-name="Iacute" unicode="&#xcd;" 
d="M50 0zM50 0v150h200v500h-200v150h600v-150h-200v-500h200v-150h-600zM216 900l106 200h250l-225 -200h-131z" />
    <glyph glyph-name="Icircumflex" unicode="&#xce;" 
d="M50 0zM50 0v150h200v500h-200v150h600v-150h-200v-500h200v-150h-600zM151 884l-62 84l184 159h152l186 -159l-61 -83l-201 105z" />
    <glyph glyph-name="Idieresis" unicode="&#xcf;" 
d="M50 0zM50 0v150h200v500h-200v150h600v-150h-200v-500h200v-150h-600zM220 890q-43 0 -70.5 17t-27.5 59v15q0 43 27.5 61t70.5 18q44 0 71 -18t27 -61v-15q0 -42 -27.5 -59t-70.5 -17zM480 890q-43 0 -70.5 17t-27.5 59v15q0 43 27.5 61t70.5 18q44 0 71 -18t27 -61v-15
q0 -42 -27.5 -59t-70.5 -17z" />
    <glyph glyph-name="Itilde" unicode="&#x128;" 
d="M50 0zM50 0v150h200v500h-200v150h600v-150h-200v-500h200v-150h-600zM446 910q-49 0 -75 15t-42 32q-16 18 -30 32.5t-33 14.5q-16 0 -29 -14.5t-12 -60.5v-9h-127v15q0 83 42 139t116 56q48 0 74 -15t43 -32q17 -18 31 -33t31 -15q16 0 29 14.5t12 60.5v9h127v-15
q0 -82 -42 -138t-115 -56z" />
    <glyph glyph-name="Imacron" unicode="&#x12a;" 
d="M50 0zM50 0v150h200v500h-200v150h600v-150h-200v-500h200v-150h-600zM125 925v150h450v-150h-450z" />
    <glyph glyph-name="Ibreve" unicode="&#x12c;" 
d="M50 0zM50 0v150h200v500h-200v150h600v-150h-200v-500h200v-150h-600zM350 893q-135 0 -200.5 59t-66.5 181h160q1 -68 25 -94.5t82 -26.5t82 26.5t25 94.5h160q-1 -122 -66.5 -181t-200.5 -59z" />
    <glyph glyph-name="Iogonek" unicode="&#x12e;" 
d="M50 0zM50 0v150h200v500h-200v150h600v-150h-200v-500h200v-150h-600zM446 -224q-84 0 -132.5 32t-48.5 96q0 66 51 111.5t111 61.5l27 -54q-34 -21 -41.5 -40t-7.5 -36q0 -26 17.5 -38.5t57.5 -12.5q18 0 42 2.5t53 7.5v-116q-36 -7 -68.5 -10.5t-60.5 -3.5z" />
    <glyph glyph-name="Idotaccent" unicode="&#x130;" 
d="M50 0zM50 0v150h200v500h-200v150h600v-150h-200v-500h200v-150h-600zM350 890q-57 0 -92.5 17t-35.5 59v15q0 43 35.5 61t92.5 18t92.5 -18t35.5 -61v-15q0 -42 -36 -59t-92 -17z" />
    <glyph glyph-name="J" unicode="J" 
d="M339 -10q-157 0 -229.5 69.5t-79.5 227.5l200 11q7 -97 29.5 -127.5t77.5 -30.5q49 0 71 27t22 103v380h-230v150h430v-540q0 -126 -70 -198t-221 -72z" />
    <glyph glyph-name="Jcircumflex" unicode="&#x134;" 
d="M30 0zM211 884l-62 84l184 159h152l186 -159l-61 -83l-201 105zM339 -10q-157 0 -229.5 69.5t-79.5 227.5l200 11q7 -97 29.5 -127.5t77.5 -30.5q49 0 71 27t22 103v380h-230v150h430v-540q0 -126 -70 -198t-221 -72z" />
    <glyph glyph-name="K" unicode="K" 
d="M250 335v-335h-200v800h200v-315h40l190 315h205l-246 -370l243 -430h-202l-187 335h-43z" />
    <glyph glyph-name="Kcommaaccent" unicode="&#x136;" 
d="M50 0zM250 335v-335h-200v800h200v-315h40l190 315h205l-246 -370l243 -430h-202l-187 335h-43zM209 -300l66 200h250l-185 -200h-131z" />
    <glyph glyph-name="L" unicode="L" 
d="M100 0v800h200v-650h350v-150h-550z" />
    <glyph glyph-name="Lacute" unicode="&#x139;" 
d="M100 0zM101 900l106 200h250l-225 -200h-131zM100 0v800h200v-650h350v-150h-550z" />
    <glyph glyph-name="Lcommaaccent" unicode="&#x13b;" 
d="M100 0zM100 0v800h200v-650h350v-150h-550zM231 -300l66 200h250l-185 -200h-131z" />
    <glyph glyph-name="Lcaron" unicode="&#x13d;" 
d="M100 0zM396 505l51 295h247l-186 -295h-112zM100 0v800h200v-650h350v-150h-550z" />
    <glyph glyph-name="M" unicode="M" 
d="M288 250l-95 260l22 -510h-175v800h185l128 -371l127 371h180v-800h-175l21 504l-92 -254h-126z" />
    <glyph glyph-name="N" unicode="N" 
d="M417 0l-197 524v-524h-170v800h217l213 -568v568h170v-800h-233z" />
    <glyph glyph-name="Ntilde" unicode="&#xd1;" 
d="M50 0zM446 910q-49 0 -75 15t-42 32q-16 18 -30 32.5t-33 14.5q-16 0 -29 -14.5t-12 -60.5v-9h-127v15q0 83 42 139t116 56q48 0 74 -15t43 -32q17 -18 31 -33t31 -15q16 0 29 14.5t12 60.5v9h127v-15q0 -82 -42 -138t-115 -56zM417 0l-197 524v-524h-170v800h217
l213 -568v568h170v-800h-233z" />
    <glyph glyph-name="Nacute" unicode="&#x143;" 
d="M50 0zM246 900l106 200h250l-225 -200h-131zM417 0l-197 524v-524h-170v800h217l213 -568v568h170v-800h-233z" />
    <glyph glyph-name="Ncommaaccent" unicode="&#x145;" 
d="M50 0zM186 -300l66 200h250l-185 -200h-131zM417 0l-197 524v-524h-170v800h217l213 -568v568h170v-800h-233z" />
    <glyph glyph-name="Ncaron" unicode="&#x147;" 
d="M50 0zM275 904l-186 159l61 83l201 -105l198 106l62 -84l-184 -159h-152zM417 0l-197 524v-524h-170v800h217l213 -568v568h170v-800h-233z" />
    <glyph glyph-name="O" unicode="O" 
d="M350 -10q-147 0 -223.5 68t-76.5 189v302q0 122 77 191.5t224 69.5t223 -69.5t76 -191.5v-302q0 -121 -76.5 -189t-223.5 -68zM350 140q54 0 77 29t23 98v262q0 69 -23 100t-77 31t-77 -31t-23 -100v-262q0 -69 23 -98t77 -29z" />
    <glyph glyph-name="Ograve" unicode="&#xd2;" 
d="M50 0zM331 900l-225 200h250l106 -200h-131zM350 -10q-147 0 -223.5 68t-76.5 189v302q0 122 77 191.5t224 69.5t223 -69.5t76 -191.5v-302q0 -121 -76.5 -189t-223.5 -68zM350 140q54 0 77 29t23 98v262q0 69 -23 100t-77 31t-77 -31t-23 -100v-262q0 -69 23 -98t77 -29
z" />
    <glyph glyph-name="Oacute" unicode="&#xd3;" 
d="M50 0zM246 900l106 200h250l-225 -200h-131zM350 -10q-147 0 -223.5 68t-76.5 189v302q0 122 77 191.5t224 69.5t223 -69.5t76 -191.5v-302q0 -121 -76.5 -189t-223.5 -68zM350 140q54 0 77 29t23 98v262q0 69 -23 100t-77 31t-77 -31t-23 -100v-262q0 -69 23 -98t77 -29
z" />
    <glyph glyph-name="Ocircumflex" unicode="&#xd4;" 
d="M50 0zM151 884l-62 84l184 159h152l186 -159l-61 -83l-201 105zM350 -10q-147 0 -223.5 68t-76.5 189v302q0 122 77 191.5t224 69.5t223 -69.5t76 -191.5v-302q0 -121 -76.5 -189t-223.5 -68zM350 140q54 0 77 29t23 98v262q0 69 -23 100t-77 31t-77 -31t-23 -100v-262
q0 -69 23 -98t77 -29z" />
    <glyph glyph-name="Otilde" unicode="&#xd5;" 
d="M50 0zM446 910q-49 0 -75 15t-42 32q-16 18 -30 32.5t-33 14.5q-16 0 -29 -14.5t-12 -60.5v-9h-127v15q0 83 42 139t116 56q48 0 74 -15t43 -32q17 -18 31 -33t31 -15q16 0 29 14.5t12 60.5v9h127v-15q0 -82 -42 -138t-115 -56zM350 -10q-147 0 -223.5 68t-76.5 189v302
q0 122 77 191.5t224 69.5t223 -69.5t76 -191.5v-302q0 -121 -76.5 -189t-223.5 -68zM350 140q54 0 77 29t23 98v262q0 69 -23 100t-77 31t-77 -31t-23 -100v-262q0 -69 23 -98t77 -29z" />
    <glyph glyph-name="Odieresis" unicode="&#xd6;" 
d="M50 0zM220 890q-43 0 -70.5 17t-27.5 59v15q0 43 27.5 61t70.5 18q44 0 71 -18t27 -61v-15q0 -42 -27.5 -59t-70.5 -17zM480 890q-43 0 -70.5 17t-27.5 59v15q0 43 27.5 61t70.5 18q44 0 71 -18t27 -61v-15q0 -42 -27.5 -59t-70.5 -17zM350 -10q-147 0 -223.5 68
t-76.5 189v302q0 122 77 191.5t224 69.5t223 -69.5t76 -191.5v-302q0 -121 -76.5 -189t-223.5 -68zM350 140q54 0 77 29t23 98v262q0 69 -23 100t-77 31t-77 -31t-23 -100v-262q0 -69 23 -98t77 -29z" />
    <glyph glyph-name="Omacron" unicode="&#x14c;" 
d="M50 0zM125 925v150h450v-150h-450zM350 -10q-147 0 -223.5 68t-76.5 189v302q0 122 77 191.5t224 69.5t223 -69.5t76 -191.5v-302q0 -121 -76.5 -189t-223.5 -68zM350 140q54 0 77 29t23 98v262q0 69 -23 100t-77 31t-77 -31t-23 -100v-262q0 -69 23 -98t77 -29z" />
    <glyph glyph-name="Obreve" unicode="&#x14e;" 
d="M50 0zM350 893q-135 0 -200.5 59t-66.5 181h160q1 -68 25 -94.5t82 -26.5t82 26.5t25 94.5h160q-1 -122 -66.5 -181t-200.5 -59zM350 -10q-147 0 -223.5 68t-76.5 189v302q0 122 77 191.5t224 69.5t223 -69.5t76 -191.5v-302q0 -121 -76.5 -189t-223.5 -68zM350 140
q54 0 77 29t23 98v262q0 69 -23 100t-77 31t-77 -31t-23 -100v-262q0 -69 23 -98t77 -29z" />
    <glyph glyph-name="Ohungarumlaut" unicode="&#x150;" 
d="M50 0zM406 900l46 200h190l-135 -200h-101zM176 900l46 200h190l-135 -200h-101zM350 -10q-147 0 -223.5 68t-76.5 189v302q0 122 77 191.5t224 69.5t223 -69.5t76 -191.5v-302q0 -121 -76.5 -189t-223.5 -68zM350 140q54 0 77 29t23 98v262q0 69 -23 100t-77 31t-77 -31
t-23 -100v-262q0 -69 23 -98t77 -29z" />
    <glyph glyph-name="P" unicode="P" 
d="M50 0v800h312q133 0 210.5 -55t77.5 -174v-111q0 -114 -76.5 -166t-210.5 -52h-113v-242h-200zM250 390h100q50 0 75 17t25 70v81q0 54 -25 73t-75 19h-100v-260z" />
    <glyph glyph-name="Q" unicode="Q" 
d="M610 -211q-189 -27 -271.5 29t-79.5 210q-103 19 -156 83.5t-53 165.5v272q0 122 77 191.5t224 69.5t223 -69.5t76 -191.5v-272q0 -108 -61 -174.5t-179 -79.5q3 -57 43.5 -74t136.5 0zM350 160q54 0 77 33.5t23 103.5v232q0 70 -23 100.5t-77 30.5t-77 -30.5t-23 -100.5
v-232q0 -70 23 -103.5t77 -33.5z" />
    <glyph glyph-name="R" unicode="R" 
d="M250 430h100q56 0 78 17.5t22 65.5v54q0 46 -22 64.5t-78 18.5h-100v-220zM250 0h-200v800h331q134 0 196.5 -57t62.5 -164v-72q0 -82 -34.5 -135t-102.5 -75l166 -297h-209l-155 280h-55v-280z" />
    <glyph glyph-name="Racute" unicode="&#x154;" 
d="M50 0zM241 900l106 200h250l-225 -200h-131zM250 430h100q56 0 78 17.5t22 65.5v54q0 46 -22 64.5t-78 18.5h-100v-220zM250 0h-200v800h331q134 0 196.5 -57t62.5 -164v-72q0 -82 -34.5 -135t-102.5 -75l166 -297h-209l-155 280h-55v-280z" />
    <glyph glyph-name="Rcommaaccent" unicode="&#x156;" 
d="M50 0zM250 430h100q56 0 78 17.5t22 65.5v54q0 46 -22 64.5t-78 18.5h-100v-220zM250 0h-200v800h331q134 0 196.5 -57t62.5 -164v-72q0 -82 -34.5 -135t-102.5 -75l166 -297h-209l-155 280h-55v-280zM161 -300l66 200h250l-185 -200h-131z" />
    <glyph glyph-name="Rcaron" unicode="&#x158;" 
d="M50 0zM260 904l-186 159l61 83l201 -105l198 106l62 -84l-184 -159h-152zM250 430h100q56 0 78 17.5t22 65.5v54q0 46 -22 64.5t-78 18.5h-100v-220zM250 0h-200v800h331q134 0 196.5 -57t62.5 -164v-72q0 -82 -34.5 -135t-102.5 -75l166 -297h-209l-155 280h-55v-280z
" />
    <glyph glyph-name="S" unicode="S" 
d="M341 -10q-97 0 -170 23.5t-131 57.5l45 149q60 -35 120.5 -57.5t138.5 -22.5q59 0 85 22t26 59q0 46 -33 63t-114 35q-137 31 -192.5 85t-55.5 156q0 105 72 177.5t221 72.5q72 0 145.5 -25.5t116.5 -50.5l-35 -142q-60 30 -113.5 48t-112.5 18q-49 0 -72 -19t-23 -56
t28 -59t120 -41q137 -29 192.5 -85t55.5 -165q0 -116 -83 -179.5t-231 -63.5z" />
    <glyph glyph-name="Sacute" unicode="&#x15a;" 
d="M40 0zM341 -10q-97 0 -170 23.5t-131 57.5l45 149q60 -35 120.5 -57.5t138.5 -22.5q59 0 85 22t26 59q0 46 -33 63t-114 35q-137 31 -192.5 85t-55.5 156q0 105 72 177.5t221 72.5q72 0 145.5 -25.5t116.5 -50.5l-35 -142q-60 30 -113.5 48t-112.5 18q-49 0 -72 -19
t-23 -56t28 -59t120 -41q137 -29 192.5 -85t55.5 -165q0 -116 -83 -179.5t-231 -63.5zM214 900l106 200h250l-225 -200h-131z" />
    <glyph glyph-name="Scircumflex" unicode="&#x15c;" 
d="M40 0zM149 884l-62 84l184 159h152l186 -159l-61 -83l-201 105zM341 -10q-97 0 -170 23.5t-131 57.5l45 149q60 -35 120.5 -57.5t138.5 -22.5q59 0 85 22t26 59q0 46 -33 63t-114 35q-137 31 -192.5 85t-55.5 156q0 105 72 177.5t221 72.5q72 0 145.5 -25.5t116.5 -50.5
l-35 -142q-60 30 -113.5 48t-112.5 18q-49 0 -72 -19t-23 -56t28 -59t120 -41q137 -29 192.5 -85t55.5 -165q0 -116 -83 -179.5t-231 -63.5z" />
    <glyph glyph-name="Scedilla" unicode="&#x15e;" 
d="M40 0zM341 -10q-97 0 -170 23.5t-131 57.5l45 149q60 -35 120.5 -57.5t138.5 -22.5q59 0 85 22t26 59q0 46 -33 63t-114 35q-137 31 -192.5 85t-55.5 156q0 105 72 177.5t221 72.5q72 0 145.5 -25.5t116.5 -50.5l-35 -142q-60 30 -113.5 48t-112.5 18q-49 0 -72 -19
t-23 -56t28 -59t120 -41q137 -29 192.5 -85t55.5 -165q0 -116 -83 -179.5t-231 -63.5zM318 0l20 42q86 -8 140 -35.5t54 -94.5q0 -75 -67 -106.5t-149 -31.5q-96 0 -157 31.5t-66 104.5l168 10q2 -19 12.5 -26.5t34.5 -7.5q27 0 40.5 10.5t13.5 44.5q0 25 -9 38.5t-35 20.5z
" />
    <glyph glyph-name="Scaron" unicode="&#x160;" 
d="M40 0zM273 904l-186 159l61 83l201 -105l198 106l62 -84l-184 -159h-152zM341 -10q-97 0 -170 23.5t-131 57.5l45 149q60 -35 120.5 -57.5t138.5 -22.5q59 0 85 22t26 59q0 46 -33 63t-114 35q-137 31 -192.5 85t-55.5 156q0 105 72 177.5t221 72.5q72 0 145.5 -25.5
t116.5 -50.5l-35 -142q-60 30 -113.5 48t-112.5 18q-49 0 -72 -19t-23 -56t28 -59t120 -41q137 -29 192.5 -85t55.5 -165q0 -116 -83 -179.5t-231 -63.5z" />
    <glyph glyph-name="Scommaaccent" unicode="&#x218;" 
d="M40 0zM341 -10q-97 0 -170 23.5t-131 57.5l45 149q60 -35 120.5 -57.5t138.5 -22.5q59 0 85 22t26 59q0 46 -33 63t-114 35q-137 31 -192.5 85t-55.5 156q0 105 72 177.5t221 72.5q72 0 145.5 -25.5t116.5 -50.5l-35 -142q-60 30 -113.5 48t-112.5 18q-49 0 -72 -19
t-23 -56t28 -59t120 -41q137 -29 192.5 -85t55.5 -165q0 -116 -83 -179.5t-231 -63.5zM166 -300l66 200h250l-185 -200h-131z" />
    <glyph glyph-name="T" unicode="T" 
d="M250 0v650h-220v150h640v-150h-220v-650h-200z" />
    <glyph glyph-name="Tcedilla" unicode="&#x162;" 
d="M30 0zM250 0v650h-220v150h640v-150h-220v-650h-200zM310 0l20 42q86 -8 140 -35.5t54 -94.5q0 -75 -67 -106.5t-149 -31.5q-96 0 -157 31.5t-66 104.5l168 10q2 -19 12.5 -26.5t34.5 -7.5q27 0 40.5 10.5t13.5 44.5q0 25 -9 38.5t-35 20.5z" />
    <glyph glyph-name="Tcaron" unicode="&#x164;" 
d="M30 0zM275 904l-186 159l61 83l201 -105l198 106l62 -84l-184 -159h-152zM250 0v650h-220v150h640v-150h-220v-650h-200z" />
    <glyph glyph-name="Tcommaaccent" unicode="&#x21a;" 
d="M30 0zM250 0v650h-220v150h640v-150h-220v-650h-200zM176 -300l66 200h250l-185 -200h-131z" />
    <glyph glyph-name="U" unicode="U" 
d="M350 -10q-154 0 -227 70t-73 217v523h200v-513q0 -80 23 -108.5t77 -28.5t77 28.5t23 108.5v513h200v-523q0 -147 -73 -217t-227 -70z" />
    <glyph glyph-name="Ugrave" unicode="&#xd9;" 
d="M50 0zM331 900l-225 200h250l106 -200h-131zM350 -10q-154 0 -227 70t-73 217v523h200v-513q0 -80 23 -108.5t77 -28.5t77 28.5t23 108.5v513h200v-523q0 -147 -73 -217t-227 -70z" />
    <glyph glyph-name="Uacute" unicode="&#xda;" 
d="M50 0zM216 900l106 200h250l-225 -200h-131zM350 -10q-154 0 -227 70t-73 217v523h200v-513q0 -80 23 -108.5t77 -28.5t77 28.5t23 108.5v513h200v-523q0 -147 -73 -217t-227 -70z" />
    <glyph glyph-name="Ucircumflex" unicode="&#xdb;" 
d="M50 0zM151 884l-62 84l184 159h152l186 -159l-61 -83l-201 105zM350 -10q-154 0 -227 70t-73 217v523h200v-513q0 -80 23 -108.5t77 -28.5t77 28.5t23 108.5v513h200v-523q0 -147 -73 -217t-227 -70z" />
    <glyph glyph-name="Udieresis" unicode="&#xdc;" 
d="M50 0zM350 -10q-154 0 -227 70t-73 217v523h200v-513q0 -80 23 -108.5t77 -28.5t77 28.5t23 108.5v513h200v-523q0 -147 -73 -217t-227 -70zM220 890q-43 0 -70.5 17t-27.5 59v15q0 43 27.5 61t70.5 18q44 0 71 -18t27 -61v-15q0 -42 -27.5 -59t-70.5 -17zM480 890
q-43 0 -70.5 17t-27.5 59v15q0 43 27.5 61t70.5 18q44 0 71 -18t27 -61v-15q0 -42 -27.5 -59t-70.5 -17z" />
    <glyph glyph-name="Utilde" unicode="&#x168;" 
d="M50 0zM350 -10q-154 0 -227 70t-73 217v523h200v-513q0 -80 23 -108.5t77 -28.5t77 28.5t23 108.5v513h200v-523q0 -147 -73 -217t-227 -70zM446 910q-49 0 -75 15t-42 32q-16 18 -30 32.5t-33 14.5q-16 0 -29 -14.5t-12 -60.5v-9h-127v15q0 83 42 139t116 56
q48 0 74 -15t43 -32q17 -18 31 -33t31 -15q16 0 29 14.5t12 60.5v9h127v-15q0 -82 -42 -138t-115 -56z" />
    <glyph glyph-name="Umacron" unicode="&#x16a;" 
d="M50 0zM350 -10q-154 0 -227 70t-73 217v523h200v-513q0 -80 23 -108.5t77 -28.5t77 28.5t23 108.5v513h200v-523q0 -147 -73 -217t-227 -70zM125 925v150h450v-150h-450z" />
    <glyph glyph-name="Ubreve" unicode="&#x16c;" 
d="M50 0zM350 -10q-154 0 -227 70t-73 217v523h200v-513q0 -80 23 -108.5t77 -28.5t77 28.5t23 108.5v513h200v-523q0 -147 -73 -217t-227 -70zM350 893q-135 0 -200.5 59t-66.5 181h160q1 -68 25 -94.5t82 -26.5t82 26.5t25 94.5h160q-1 -122 -66.5 -181t-200.5 -59z" />
    <glyph glyph-name="Uring" unicode="&#x16e;" 
d="M50 0zM350 -10q-154 0 -227 70t-73 217v523h200v-513q0 -80 23 -108.5t77 -28.5t77 28.5t23 108.5v513h200v-523q0 -147 -73 -217t-227 -70zM350 875q-94 0 -152 38t-58 117v32q0 80 58 119t152 39q95 0 152.5 -39t57.5 -119v-32q0 -79 -58 -117t-152 -38zM350 966
q35 0 53.5 14.5t18.5 49.5v32q0 34 -18.5 50.5t-53.5 16.5q-36 0 -54 -16.5t-18 -50.5v-32q0 -35 18 -49.5t54 -14.5z" />
    <glyph glyph-name="Uhungarumlaut" unicode="&#x170;" 
d="M50 0zM416 900l46 200h190l-135 -200h-101zM186 900l46 200h190l-135 -200h-101zM350 -10q-154 0 -227 70t-73 217v523h200v-513q0 -80 23 -108.5t77 -28.5t77 28.5t23 108.5v513h200v-523q0 -147 -73 -217t-227 -70z" />
    <glyph glyph-name="Uogonek" unicode="&#x172;" 
d="M50 0zM426 -224q-84 0 -132.5 32t-48.5 96q0 66 51 111.5t111 61.5l27 -54q-34 -21 -41.5 -40t-7.5 -36q0 -26 17.5 -38.5t57.5 -12.5q18 0 42 2.5t53 7.5v-116q-36 -7 -68.5 -10.5t-60.5 -3.5zM350 -10q-154 0 -227 70t-73 217v523h200v-513q0 -80 23 -108.5t77 -28.5
t77 28.5t23 108.5v513h200v-523q0 -147 -73 -217t-227 -70z" />
    <glyph glyph-name="V" unicode="V" 
d="M483 0h-265l-208 800h198l142 -657l151 657h190z" />
    <glyph glyph-name="W" unicode="W" 
d="M418 0l-66 347l-66 -347h-174l-103 800h169l38 -581l66 381h134l69 -366l37 566h169l-103 -800h-170z" />
    <glyph glyph-name="Wcircumflex" unicode="&#x174;" 
d="M9 0zM151 884l-62 84l184 159h152l186 -159l-61 -83l-201 105zM418 0l-66 347l-66 -347h-174l-103 800h169l38 -581l66 381h134l69 -366l37 566h169l-103 -800h-170z" />
    <glyph glyph-name="Wgrave" unicode="&#x1e80;" 
d="M9 0zM331 900l-225 200h250l106 -200h-131zM418 0l-66 347l-66 -347h-174l-103 800h169l38 -581l66 381h134l69 -366l37 566h169l-103 -800h-170z" />
    <glyph glyph-name="Wacute" unicode="&#x1e82;" 
d="M9 0zM216 900l106 200h250l-225 -200h-131zM418 0l-66 347l-66 -347h-174l-103 800h169l38 -581l66 381h134l69 -366l37 566h169l-103 -800h-170z" />
    <glyph glyph-name="Wdieresis" unicode="&#x1e84;" 
d="M9 0zM230 890q-43 0 -70.5 17t-27.5 59v15q0 43 27.5 61t70.5 18q44 0 71 -18t27 -61v-15q0 -42 -27.5 -59t-70.5 -17zM490 890q-43 0 -70.5 17t-27.5 59v15q0 43 27.5 61t70.5 18q44 0 71 -18t27 -61v-15q0 -42 -27.5 -59t-70.5 -17zM418 0l-66 347l-66 -347h-174
l-103 800h169l38 -581l66 381h134l69 -366l37 566h169l-103 -800h-170z" />
    <glyph glyph-name="X" unicode="X" 
d="M479 0l-134 249l-130 -249h-191l234 412l-209 388h204l116 -221l116 221h191l-220 -387l217 -413h-194z" />
    <glyph glyph-name="Y" unicode="Y" 
d="M450 0h-200v300l-236 500h199l136 -330l138 330h198l-235 -500v-300z" />
    <glyph glyph-name="Yacute" unicode="&#xdd;" 
d="M14 0zM450 0h-200v300l-236 500h199l136 -330l138 330h198l-235 -500v-300zM216 900l106 200h250l-225 -200h-131z" />
    <glyph glyph-name="Ycircumflex" unicode="&#x176;" 
d="M14 0zM450 0h-200v300l-236 500h199l136 -330l138 330h198l-235 -500v-300zM151 884l-62 84l184 159h152l186 -159l-61 -83l-201 105z" />
    <glyph glyph-name="Ydieresis" unicode="&#x178;" 
d="M14 0zM450 0h-200v300l-236 500h199l136 -330l138 330h198l-235 -500v-300zM220 890q-43 0 -70.5 17t-27.5 59v15q0 43 27.5 61t70.5 18q44 0 71 -18t27 -61v-15q0 -42 -27.5 -59t-70.5 -17zM480 890q-43 0 -70.5 17t-27.5 59v15q0 43 27.5 61t70.5 18q44 0 71 -18
t27 -61v-15q0 -42 -27.5 -59t-70.5 -17z" />
    <glyph glyph-name="Ygrave" unicode="&#x1ef2;" 
d="M14 0zM450 0h-200v300l-236 500h199l136 -330l138 330h198l-235 -500v-300zM331 900l-225 200h250l106 -200h-131z" />
    <glyph glyph-name="Z" unicode="Z" 
d="M650 0h-600v150l392 500h-392v150h600v-150l-388 -500h388v-150z" />
    <glyph glyph-name="Zacute" unicode="&#x179;" 
d="M50 0zM246 900l106 200h250l-225 -200h-131zM650 0h-600v150l392 500h-392v150h600v-150l-388 -500h388v-150z" />
    <glyph glyph-name="Zdotaccent" unicode="&#x17b;" 
d="M50 0zM650 0h-600v150l392 500h-392v150h600v-150l-388 -500h388v-150zM350 890q-57 0 -92.5 17t-35.5 59v15q0 43 35.5 61t92.5 18t92.5 -18t35.5 -61v-15q0 -42 -36 -59t-92 -17z" />
    <glyph glyph-name="Zcaron" unicode="&#x17d;" 
d="M50 0zM275 904l-186 159l61 83l201 -105l198 106l62 -84l-184 -159h-152zM650 0h-600v150l392 500h-392v150h600v-150l-388 -500h388v-150z" />
    <glyph glyph-name="AE" unicode="&#xc6;" 
d="M309 660l-82 -340h103v340h-21zM330 180h-137l-43 -180h-140l203 800h467v-140h-180v-160h160v-140h-160v-220h180v-140h-350v180z" />
    <glyph glyph-name="AEacute" unicode="&#x1fc;" 
d="M10 0zM336 900l106 200h250l-225 -200h-131zM309 660l-82 -340h103v340h-21zM330 180h-137l-43 -180h-140l203 800h467v-140h-180v-160h160v-140h-160v-220h180v-140h-350v180z" />
    <glyph glyph-name="Eth" unicode="&#xd0;" 
d="M50 0v380h-50v120h50v300h301q140 0 219.5 -79.5t79.5 -211.5v-222q0 -131 -79.5 -209t-220.5 -78h-300zM250 150h80q68 0 94 34t26 123v182q0 91 -26 126t-94 35h-80v-150h100v-120h-100v-230z" />
    <glyph glyph-name="Oslash" unicode="&#xd8;" 
d="M231 252l161 404q-10 2 -20 3t-22 1q-68 0 -94 -35t-26 -116v-222v-18.5t1 -16.5zM350 140q69 0 94.5 33t25.5 114v222v19t-1 18l-162 -402q10 -2 20.5 -3t22.5 -1zM350 -10q-25 0 -47.5 2t-43.5 6l-39 -98h-140l60 151q-44 35 -67 90t-23 126v262q0 132 77 206.5
t224 74.5q24 0 46.5 -2t42.5 -6l40 98h140l-60 -151q45 -36 67.5 -92t22.5 -128v-262q0 -131 -76.5 -204t-223.5 -73z" />
    <glyph glyph-name="Oslashacute" unicode="&#x1fe;" 
d="M50 0zM231 252l161 404q-10 2 -20 3t-22 1q-68 0 -94 -35t-26 -116v-222v-18.5t1 -16.5zM350 140q69 0 94.5 33t25.5 114v222v19t-1 18l-162 -402q10 -2 20.5 -3t22.5 -1zM350 -10q-25 0 -47.5 2t-43.5 6l-39 -98h-140l60 151q-44 35 -67 90t-23 126v262q0 132 77 206.5
t224 74.5q24 0 46.5 -2t42.5 -6l40 98h140l-60 -151q45 -36 67.5 -92t22.5 -128v-262q0 -131 -76.5 -204t-223.5 -73zM246 900l106 200h250l-225 -200h-131z" />
    <glyph glyph-name="Thorn" unicode="&#xde;" 
d="M50 0v800h200v-120h112q140 0 214 -59.5t74 -171.5v-111q0 -104 -74 -160t-213 -56h-113v-122h-200zM250 270h90q58 0 84 18t26 58v103q0 43 -26 62t-84 19h-90v-260z" />
    <glyph glyph-name="Dcroat" unicode="&#x110;" 
d="M50 0v380h-50v120h50v300h301q140 0 219.5 -79.5t79.5 -211.5v-222q0 -131 -79.5 -209t-220.5 -78h-300zM250 150h80q68 0 94 34t26 123v182q0 91 -26 126t-94 35h-80v-150h100v-120h-100v-230z" />
    <glyph glyph-name="Hbar" unicode="&#x126;" 
d="M260 420h180v130h-180v-130zM260 270v-270h-200v550h-60v120h60v130h200v-130h180v130h200v-130h60v-120h-60v-550h-200v270h-180z" />
    <glyph glyph-name="IJ" unicode="&#x132;" 
d="M190 0h-150v800h150v-800zM470 -10q-105 0 -158 64t-52 213l150 11q0 -97 9.5 -127.5t45.5 -30.5q24 0 34.5 20.5t10.5 79.5v450h-130v130h280v-590q0 -103 -47 -161.5t-143 -58.5z" />
    <glyph glyph-name="Ldot" unicode="&#x13f;" 
d="M100 0zM590 380q-57 0 -92.5 17t-35.5 59v15q0 43 35.5 61t92.5 18t92.5 -18t35.5 -61v-15q0 -42 -36 -59t-92 -17zM100 0v800h200v-650h350v-150h-550z" />
    <glyph glyph-name="Lslash" unicode="&#x141;" 
d="M100 0v322l-70 -22v120l70 22v358h200v-294l230 74v-120l-230 -74v-236h350v-150h-550z" />
    <glyph glyph-name="Eng" unicode="&#x14a;" 
d="M398 -210q-34 0 -69 6.5t-68 16.5l20 126q26 -8 49 -13.5t42 -5.5q37 0 57.5 22t20.5 73v539q0 51 -18.5 78.5t-50.5 27.5q-33 0 -62.5 -26t-68.5 -80v-554h-200v800h200v-130h30q30 69 80 104.5t113 35.5q72 0 124.5 -51t52.5 -150v-611q0 -110 -77 -159t-175 -49z" />
    <glyph glyph-name="OE" unicode="&#x152;" 
d="M279 0q-117 0 -183 79.5t-66 211.5v222q0 131 66 209t184 78h400v-140h-180v-160h130v-140h-130v-220h180v-140h-401zM300 150h30v500h-30q-62 0 -81 -37t-19 -120v-182q0 -82 19 -121.5t81 -39.5z" />
    <glyph glyph-name="Tbar" unicode="&#x166;" 
d="M250 0v290h-160v120h160v240h-220v150h640v-150h-220v-240h160v-120h-160v-290h-200z" />
    <glyph glyph-name="Alpha" unicode="&#x391;" 
d="M10 0zM428 330l-73 326l-82 -326h155zM503 0l-41 180h-227l-45 -180h-180l218 800h245l218 -800h-188z" />
    <glyph glyph-name="Alphatonos" unicode="&#x386;" 
d="M0 0zM428 330l-73 326l-82 -326h155zM503 0l-41 180h-227l-45 -180h-180l218 800h245l218 -800h-188zM-33 700l46 200h240l-165 -200h-121z" />
    <glyph glyph-name="Beta" unicode="&#x392;" 
d="M50 0zM50 0v800h314q135 0 199.5 -46t64.5 -142v-34q0 -66 -28 -97.5t-91 -42.5v-29q68 -7 104.5 -46.5t36.5 -99.5v-52q0 -107 -70.5 -159t-218.5 -52h-311zM250 480h94q47 0 66.5 15t19.5 52v48q0 36 -19.5 50.5t-66.5 14.5h-94v-180zM250 140h90q60 0 85 18t25 63v52
q0 43 -25 61t-85 18h-90v-212z" />
    <glyph glyph-name="Gamma" unicode="&#x393;" 
d="M100 0v800h570v-150h-370v-650h-200z" />
    <glyph glyph-name="Delta" unicode="&#x394;" 
d="M30 0v150l183 650h285l172 -650v-150h-640zM484 150l-134 528l-142 -528h276z" />
    <glyph glyph-name="Epsilon" unicode="&#x395;" 
d="M50 0zM50 0v800h600v-150h-400v-150h350v-150h-350v-200h400v-150h-600z" />
    <glyph glyph-name="Epsilontonos" unicode="&#x388;" 
d="M0 0zM50 0v800h600v-150h-400v-150h350v-150h-350v-200h400v-150h-600zM-183 700l46 200h240l-165 -200h-121z" />
    <glyph glyph-name="Zeta" unicode="&#x396;" 
d="M50 0zM650 0h-600v150l392 500h-392v150h600v-150l-388 -500h388v-150z" />
    <glyph glyph-name="Eta" unicode="&#x397;" 
d="M50 0zM50 0v800h200v-280h200v280h200v-800h-200v370h-200v-370h-200z" />
    <glyph glyph-name="Etatonos" unicode="&#x389;" 
d="M0 0zM-203 700l46 200h240l-165 -200h-121zM50 0v800h200v-280h200v280h200v-800h-200v370h-200v-370h-200z" />
    <glyph glyph-name="Theta" unicode="&#x398;" 
d="M350 -10q-144 0 -222 72t-78 205v262q0 134 78.5 207.5t222.5 73.5q143 0 221 -73.5t78 -207.5v-262q0 -133 -78 -205t-222 -72zM350 140q64 0 97 34t33 113v222q0 79 -32.5 115t-97.5 36t-97.5 -36t-32.5 -115v-222q0 -79 33 -113t97 -34zM270 340v130h160v-130h-160z
" />
    <glyph glyph-name="Iota" unicode="&#x399;" 
d="M50 0zM50 0v150h200v500h-200v150h600v-150h-200v-500h200v-150h-600z" />
    <glyph glyph-name="Iotatonos" unicode="&#x38a;" 
d="M0 0zM-203 700l46 200h240l-165 -200h-121zM50 0v150h200v500h-200v150h600v-150h-200v-500h200v-150h-600z" />
    <glyph glyph-name="Iotadieresis" unicode="&#x3aa;" 
d="M50 0zM50 0v150h200v500h-200v150h600v-150h-200v-500h200v-150h-600zM220 890q-43 0 -70.5 17t-27.5 59v15q0 43 27.5 61t70.5 18q44 0 71 -18t27 -61v-15q0 -42 -27.5 -59t-70.5 -17zM480 890q-43 0 -70.5 17t-27.5 59v15q0 43 27.5 61t70.5 18q44 0 71 -18t27 -61v-15
q0 -42 -27.5 -59t-70.5 -17z" />
    <glyph glyph-name="Kappa" unicode="&#x39a;" 
d="M50 0zM250 335v-335h-200v800h200v-315h40l190 315h205l-246 -370l243 -430h-202l-187 335h-43z" />
    <glyph glyph-name="Lambda" unicode="&#x39b;" 
d="M503 0l-148 656l-165 -656h-180l218 800h245l218 -800h-188z" />
    <glyph glyph-name="Mu" unicode="&#x39c;" 
d="M40 0zM288 250l-95 260l22 -510h-175v800h185l128 -371l127 371h180v-800h-175l21 504l-92 -254h-126z" />
    <glyph glyph-name="Nu" unicode="&#x39d;" 
d="M50 0zM417 0l-197 524v-524h-170v800h217l213 -568v568h170v-800h-233z" />
    <glyph glyph-name="Xi" unicode="&#x39e;" 
d="M50 650v150h600v-150h-600zM75 350v150h550v-150h-550zM50 0v150h600v-150h-600z" />
    <glyph glyph-name="Omicron" unicode="&#x39f;" 
d="M50 0zM350 -10q-147 0 -223.5 68t-76.5 189v302q0 122 77 191.5t224 69.5t223 -69.5t76 -191.5v-302q0 -121 -76.5 -189t-223.5 -68zM350 140q54 0 77 29t23 98v262q0 69 -23 100t-77 31t-77 -31t-23 -100v-262q0 -69 23 -98t77 -29z" />
    <glyph glyph-name="Omicrontonos" unicode="&#x38c;" 
d="M0 0zM-83 700l46 200h240l-165 -200h-121zM350 -10q-147 0 -223.5 68t-76.5 189v302q0 122 77 191.5t224 69.5t223 -69.5t76 -191.5v-302q0 -121 -76.5 -189t-223.5 -68zM350 140q54 0 77 29t23 98v262q0 69 -23 100t-77 31t-77 -31t-23 -100v-262q0 -69 23 -98t77 -29z
" />
    <glyph glyph-name="Pi" unicode="&#x3a0;" 
d="M50 0v800h600v-800h-200v650h-200v-650h-200z" />
    <glyph glyph-name="Rho" unicode="&#x3a1;" 
d="M50 0zM50 0v800h312q133 0 210.5 -55t77.5 -174v-111q0 -114 -76.5 -166t-210.5 -52h-113v-242h-200zM250 390h100q50 0 75 17t25 70v81q0 54 -25 73t-75 19h-100v-260z" />
    <glyph glyph-name="Sigma" unicode="&#x3a3;" 
d="M620 0h-550v150l297 259l-297 241v150h550v-150h-348l228 -175v-118l-240 -207h360v-150z" />
    <glyph glyph-name="Tau" unicode="&#x3a4;" 
d="M30 0zM250 0v650h-220v150h640v-150h-220v-650h-200z" />
    <glyph glyph-name="Upsilon" unicode="&#x3a5;" 
d="M14 0zM450 0h-200v300l-236 500h199l136 -330l138 330h198l-235 -500v-300z" />
    <glyph glyph-name="Upsilontonos" unicode="&#x38e;" 
d="M0 0zM450 0h-200v300l-236 500h199l136 -330l138 330h198l-235 -500v-300zM-203 700l46 200h240l-165 -200h-121z" />
    <glyph glyph-name="Upsilondieresis" unicode="&#x3ab;" 
d="M14 0zM450 0h-200v300l-236 500h199l136 -330l138 330h198l-235 -500v-300zM220 890q-43 0 -70.5 17t-27.5 59v15q0 43 27.5 61t70.5 18q44 0 71 -18t27 -61v-15q0 -42 -27.5 -59t-70.5 -17zM480 890q-43 0 -70.5 17t-27.5 59v15q0 43 27.5 61t70.5 18q44 0 71 -18
t27 -61v-15q0 -42 -27.5 -59t-70.5 -17z" />
    <glyph glyph-name="Phi" unicode="&#x3a6;" 
d="M37 0zM436 90h-7v-100h-159v100h-7q-108 0 -167 69.5t-59 197.5v82q0 129 59.5 200t168.5 71h5v100h159v-100h7q108 0 167.5 -71t59.5 -200v-82q0 -128 -59.5 -197.5t-167.5 -69.5zM446 570h-22v-340h22q31 0 42.5 34t11.5 93v82q0 58 -11.5 94.5t-42.5 36.5zM259 230h16
v340h-16q-34 0 -47 -36.5t-13 -94.5v-82q0 -59 13 -93t47 -34z" />
    <glyph glyph-name="Chi" unicode="&#x3a7;" 
d="M24 0zM479 0l-134 249l-130 -249h-191l234 412l-209 388h204l116 -221l116 221h191l-220 -387l217 -413h-194z" />
    <glyph glyph-name="Psi" unicode="&#x3a8;" 
d="M430 0h-160v186q-113 17 -172.5 86t-59.5 185v343h162v-333q0 -60 17 -93.5t53 -40.5v467h160v-467q36 7 53 40.5t17 93.5v333h162v-343q0 -116 -59.5 -185t-172.5 -86v-186z" />
    <glyph glyph-name="Omega" unicode="&#x3a9;" 
d="M320 0h-280v120h110v90q-53 30 -81.5 81.5t-28.5 119.5v118q0 137 80 209t230 72t230 -72t80 -209v-118q0 -68 -28.5 -119.5t-81.5 -81.5v-90h110v-120h-280v230q39 12 59.5 58.5t20.5 122.5v128q0 66 -28.5 93.5t-81.5 27.5t-81.5 -27.5t-28.5 -93.5v-128
q0 -76 20.5 -122.5t59.5 -58.5v-230z" />
    <glyph glyph-name="Omegatonos" unicode="&#x38f;" 
d="M0 0zM-123 700l46 200h240l-165 -200h-121zM320 0h-280v120h110v90q-53 30 -81.5 81.5t-28.5 119.5v118q0 137 80 209t230 72t230 -72t80 -209v-118q0 -68 -28.5 -119.5t-81.5 -81.5v-90h110v-120h-280v230q39 12 59.5 58.5t20.5 122.5v128q0 66 -28.5 93.5t-81.5 27.5
t-81.5 -27.5t-28.5 -93.5v-128q0 -76 20.5 -122.5t59.5 -58.5v-230z" />
    <glyph glyph-name="Ohm" unicode="&#x2126;" 
d="M40 0zM320 0h-280v120h110v90q-53 30 -81.5 81.5t-28.5 119.5v118q0 137 80 209t230 72t230 -72t80 -209v-118q0 -68 -28.5 -119.5t-81.5 -81.5v-90h110v-120h-280v230q39 12 59.5 58.5t20.5 122.5v128q0 66 -28.5 93.5t-81.5 27.5t-81.5 -27.5t-28.5 -93.5v-128
q0 -76 20.5 -122.5t59.5 -58.5v-230z" />
    <glyph glyph-name="Djecyrillic" unicode="&#x402;" 
d="M120 0v650h-110v150h460v-150h-150v-130h70q131 0 200.5 -59t69.5 -182v-41q0 -122 -69.5 -180t-200.5 -58v148q39 0 59.5 20.5t20.5 71.5v37q0 52 -20.5 73.5t-59.5 21.5h-70v-372h-200z" />
    <glyph glyph-name="Ecyrillic" unicode="&#x404;" 
d="M670 277q-7 -153 -79 -220t-231 -67q-154 0 -232 64.5t-78 192.5v302q0 130 78.5 195.5t232.5 65.5q156 0 229 -64t80 -227l-200 -10q-6 88 -26.5 119.5t-83.5 31.5q-60 0 -85 -30t-25 -102v-28h150v-150h-150v-83q0 -69 25 -98t85 -29q63 0 83 29t27 118z" />
    <glyph glyph-name="Dzecyrillic" unicode="&#x405;" 
d="M40 0zM341 -10q-97 0 -170 23.5t-131 57.5l45 149q60 -35 120.5 -57.5t138.5 -22.5q59 0 85 22t26 59q0 46 -33 63t-114 35q-137 31 -192.5 85t-55.5 156q0 105 72 177.5t221 72.5q72 0 145.5 -25.5t116.5 -50.5l-35 -142q-60 30 -113.5 48t-112.5 18q-49 0 -72 -19
t-23 -56t28 -59t120 -41q137 -29 192.5 -85t55.5 -165q0 -116 -83 -179.5t-231 -63.5z" />
    <glyph glyph-name="Icyrillic" unicode="&#x406;" 
d="M50 0zM50 0v150h200v500h-200v150h600v-150h-200v-500h200v-150h-600z" />
    <glyph glyph-name="Yicyrillic" unicode="&#x407;" 
d="M50 0zM220 890q-43 0 -70.5 17t-27.5 59v15q0 43 27.5 61t70.5 18q44 0 71 -18t27 -61v-15q0 -42 -27.5 -59t-70.5 -17zM480 890q-43 0 -70.5 17t-27.5 59v15q0 43 27.5 61t70.5 18q44 0 71 -18t27 -61v-15q0 -42 -27.5 -59t-70.5 -17zM50 0v150h200v500h-200v150h600
v-150h-200v-500h200v-150h-600z" />
    <glyph glyph-name="Jecyrillic" unicode="&#x408;" 
d="M30 0zM339 -10q-157 0 -229.5 69.5t-79.5 227.5l200 11q7 -97 29.5 -127.5t77.5 -30.5q49 0 71 27t22 103v380h-230v150h430v-540q0 -126 -70 -198t-221 -72z" />
    <glyph glyph-name="Ljecyrillic" unicode="&#x409;" 
d="M211 134q-1 -68 -39.5 -103.5t-113.5 -35.5q-18 0 -36.5 2.5t-37.5 6.5l20 141q7 -1 13.5 -2.5t13.5 -0.5q13 0 22 10.5t10 39.5l7 608h368v-242h58q78 0 122.5 -47t44.5 -130v-190q0 -90 -45 -140.5t-123 -50.5h-207v670h-72zM438 130h25q26 0 38 19t12 62v143
q0 40 -12 58t-38 18h-25v-300z" />
    <glyph glyph-name="Njecyrillic" unicode="&#x40a;" 
d="M438 130h25q27 0 38.5 18.5t11.5 62.5v143q0 41 -11.5 58.5t-38.5 17.5h-25v-300zM188 370v-370h-150v800h150v-280h100v280h150v-242h58q82 0 124.5 -45t42.5 -132v-190q0 -94 -43 -142.5t-125 -48.5h-207v370h-100z" />
    <glyph glyph-name="Tshecyrillic" unicode="&#x40b;" 
d="M320 0h-200v650h-110v150h470v-150h-160v-150h70q138 0 204 -56.5t66 -174.5v-269h-200v267q0 43 -17 64t-53 21h-70v-352z" />
    <glyph glyph-name="Dzhecyrillic" unicode="&#x40f;" 
d="M250 -150v150h-200v800h200v-650h200v650h200v-800h-200v-150h-200z" />
    <glyph glyph-name="Acyrillic" unicode="&#x410;" 
d="M10 0zM428 330l-73 326l-82 -326h155zM503 0l-41 180h-227l-45 -180h-180l218 800h245l218 -800h-188z" />
    <glyph glyph-name="Becyrillic" unicode="&#x411;" 
d="M50 0v800h560v-150h-360v-140h134q136 0 208 -57.5t72 -164.5v-54q0 -113 -72 -173.5t-207 -60.5h-335zM250 150h114q56 0 78 23.5t22 67.5v32q0 43 -22 66t-78 23h-114v-212z" />
    <glyph glyph-name="Vecyrillic" unicode="&#x412;" 
d="M50 0zM50 0v800h314q135 0 199.5 -46t64.5 -142v-34q0 -66 -28 -97.5t-91 -42.5v-29q68 -7 104.5 -46.5t36.5 -99.5v-52q0 -107 -70.5 -159t-218.5 -52h-311zM250 480h94q47 0 66.5 15t19.5 52v48q0 36 -19.5 50.5t-66.5 14.5h-94v-180zM250 140h90q60 0 85 18t25 63v52
q0 43 -25 61t-85 18h-90v-212z" />
    <glyph glyph-name="Gecyrillic" unicode="&#x413;" 
d="M100 0zM100 0v800h570v-150h-370v-650h-200z" />
    <glyph glyph-name="Gjecyrillic" unicode="&#x403;" 
d="M100 0zM251 900l106 200h250l-225 -200h-131zM100 0v800h570v-150h-370v-650h-200z" />
    <glyph glyph-name="Decyrillic" unicode="&#x414;" 
d="M259 169v-19h161v500h-119l-3 -345q-1 -47 -10.5 -83t-28.5 -53zM180 0v-150h-180v300h79q19 14 29 48.5t11 109.5l6 492h475v-650h80v-300h-180v150h-320z" />
    <glyph glyph-name="Iecyrillic" unicode="&#x415;" 
d="M50 0zM50 0v800h600v-150h-400v-150h350v-150h-350v-200h400v-150h-600z" />
    <glyph glyph-name="IEgravecyrillic" unicode="&#x400;" 
d="M50 0zM311 900l-225 200h250l106 -200h-131zM50 0v800h600v-150h-400v-150h350v-150h-350v-200h400v-150h-600z" />
    <glyph glyph-name="Iocyrillic" unicode="&#x401;" 
d="M50 0zM50 0v800h600v-150h-400v-150h350v-150h-350v-200h400v-150h-600zM230 890q-43 0 -70.5 17t-27.5 59v15q0 43 27.5 61t70.5 18q44 0 71 -18t27 -61v-15q0 -42 -27.5 -59t-70.5 -17zM490 890q-43 0 -70.5 17t-27.5 59v15q0 43 27.5 61t70.5 18q44 0 71 -18t27 -61
v-15q0 -42 -27.5 -59t-70.5 -17z" />
    <glyph glyph-name="Zhecyrillic" unicode="&#x416;" 
d="M237 345l-67 -345h-152l105 456l-108 344h155l74 -325h36v325h140v-325h36l74 325h155l-101 -350l98 -450h-152l-67 345h-43v-345h-140v345h-43z" />
    <glyph glyph-name="Zecyrillic" unicode="&#x417;" 
d="M353 -10q-156 0 -231 59t-82 183l200 10q7 -63 33 -83.5t79 -20.5q54 0 76 21t22 65v27q0 50 -25.5 71.5t-74.5 21.5h-110v147h110q40 0 60 14t20 51v32q0 41 -20 57.5t-60 16.5t-62 -18.5t-28 -65.5l-200 10q7 113 77.5 167.5t202.5 54.5q154 0 222 -47t68 -154v-18
q0 -63 -39 -104.5t-108 -50.5v-29q78 -7 122.5 -52.5t44.5 -118.5v-17q0 -121 -70 -175t-227 -54z" />
    <glyph glyph-name="Iicyrillic" unicode="&#x418;" 
d="M475 0v522l-192 -522h-233v800h175v-566l208 566h217v-800h-175z" />
    <glyph glyph-name="Igravecyrillic" unicode="&#x40d;" 
d="M50 0zM311 900l-225 200h250l106 -200h-131zM475 0v522l-192 -522h-233v800h175v-566l208 566h217v-800h-175z" />
    <glyph glyph-name="Iishortcyrillic" unicode="&#x419;" 
d="M50 0zM475 0v522l-192 -522h-233v800h175v-566l208 566h217v-800h-175zM350 893q-105 0 -184.5 51.5t-77.5 178.5l170 10q-1 -65 18.5 -93t73.5 -28t73.5 28t18.5 93l170 -10q2 -127 -77.5 -178.5t-184.5 -51.5z" />
    <glyph glyph-name="Kacyrillic" unicode="&#x41a;" 
d="M50 0zM250 335v-335h-200v800h200v-315h40l190 315h205l-246 -370l243 -430h-202l-187 335h-43z" />
    <glyph glyph-name="Kjecyrillic" unicode="&#x40c;" 
d="M50 0zM286 900l106 200h250l-225 -200h-131zM250 335v-335h-200v800h200v-315h40l190 315h205l-246 -370l243 -430h-202l-187 335h-43z" />
    <glyph glyph-name="Elcyrillic" unicode="&#x41b;" 
d="M450 0v650h-125l-2 -413q-1 -125 -55 -188t-160 -63q-25 0 -52 5.5t-55 12.5l20 151q13 -3 25.5 -6t23.5 -3q24 0 39 20.5t16 82.5l4 551h521v-800h-200z" />
    <glyph glyph-name="Emcyrillic" unicode="&#x41c;" 
d="M40 0zM288 250l-95 260l22 -510h-175v800h185l128 -371l127 371h180v-800h-175l21 504l-92 -254h-126z" />
    <glyph glyph-name="Encyrillic" unicode="&#x41d;" 
d="M50 0zM50 0v800h200v-280h200v280h200v-800h-200v370h-200v-370h-200z" />
    <glyph glyph-name="Ocyrillic" unicode="&#x41e;" 
d="M50 0zM350 -10q-147 0 -223.5 68t-76.5 189v302q0 122 77 191.5t224 69.5t223 -69.5t76 -191.5v-302q0 -121 -76.5 -189t-223.5 -68zM350 140q54 0 77 29t23 98v262q0 69 -23 100t-77 31t-77 -31t-23 -100v-262q0 -69 23 -98t77 -29z" />
    <glyph glyph-name="Pecyrillic" unicode="&#x41f;" 
d="M50 0zM50 0v800h600v-800h-200v650h-200v-650h-200z" />
    <glyph glyph-name="Ercyrillic" unicode="&#x420;" 
d="M50 0zM50 0v800h312q133 0 210.5 -55t77.5 -174v-111q0 -114 -76.5 -166t-210.5 -52h-113v-242h-200zM250 390h100q50 0 75 17t25 70v81q0 54 -25 73t-75 19h-100v-260z" />
    <glyph glyph-name="Escyrillic" unicode="&#x421;" 
d="M50 0zM360 -10q-155 0 -232.5 64.5t-77.5 192.5v302q0 131 78 196t233 65q158 0 230 -68t79 -223l-200 -10q-6 93 -27.5 122t-82.5 29q-59 0 -84.5 -30.5t-25.5 -101.5v-261q0 -68 25.5 -97.5t84.5 -29.5q60 0 81.5 28.5t28.5 118.5l200 -10q-7 -154 -79 -220.5
t-231 -66.5z" />
    <glyph glyph-name="Tecyrillic" unicode="&#x422;" 
d="M30 0zM250 0v650h-220v150h640v-150h-220v-650h-200z" />
    <glyph glyph-name="Ucyrillic" unicode="&#x423;" 
d="M175 -7q-35 0 -72.5 4.5t-74.5 11.5l17 150q36 -7 66 -11t54 -4q46 0 75.5 17.5t46.5 69.5l6 19h-76l-193 550h195l129 -389l131 389h196l-216 -607q-37 -101 -106.5 -150.5t-177.5 -49.5z" />
    <glyph glyph-name="Ushortcyrillic" unicode="&#x40e;" 
d="M24 0zM175 -7q-35 0 -72.5 4.5t-74.5 11.5l17 150q36 -7 66 -11t54 -4q46 0 75.5 17.5t46.5 69.5l6 19h-76l-193 550h195l129 -389l131 389h196l-216 -607q-37 -101 -106.5 -150.5t-177.5 -49.5zM350 893q-105 0 -184.5 51.5t-77.5 178.5l170 10q-1 -65 18.5 -93
t73.5 -28t73.5 28t18.5 93l170 -10q2 -127 -77.5 -178.5t-184.5 -51.5z" />
    <glyph glyph-name="Efcyrillic" unicode="&#x424;" 
d="M436 90h-7v-100h-159v100h-7q-108 0 -167 69.5t-59 197.5v82q0 129 59.5 200t168.5 71h5v100h159v-100h7q108 0 167.5 -71t59.5 -200v-82q0 -128 -59.5 -197.5t-167.5 -69.5zM446 570h-22v-340h22q31 0 42.5 34t11.5 93v82q0 58 -11.5 94.5t-42.5 36.5zM259 230h16v340
h-16q-34 0 -47 -36.5t-13 -94.5v-82q0 -59 13 -93t47 -34z" />
    <glyph glyph-name="Khacyrillic" unicode="&#x425;" 
d="M24 0zM479 0l-134 249l-130 -249h-191l234 412l-209 388h204l116 -221l116 221h191l-220 -387l217 -413h-194z" />
    <glyph glyph-name="Tsecyrillic" unicode="&#x426;" 
d="M500 -150v150h-450v800h200v-650h170v650h200v-650h80v-300h-200z" />
    <glyph glyph-name="Checyrillic" unicode="&#x427;" 
d="M645 800v-800h-200v250h-100q-152 0 -226 64t-74 197v289h200v-287q0 -58 24.5 -86.5t75.5 -28.5h100v402h200z" />
    <glyph glyph-name="Shacyrillic" unicode="&#x428;" 
d="M37 0v800h163v-660h71v660h157v-660h72v660h163v-800h-626z" />
    <glyph glyph-name="Shchacyrillic" unicode="&#x429;" 
d="M705 -200h-168v200h-500v800h163v-660h71v660h157v-660h72v660h163v-660h42v-340z" />
    <glyph glyph-name="Hardsigncyrillic" unicode="&#x42a;" 
d="M402 0h-272v650h-130v150h325v-242h78q128 0 192.5 -52t64.5 -155v-130q0 -110 -65 -165.5t-193 -55.5zM325 150h50q49 0 69.5 21t20.5 70v83q0 46 -20.5 66t-69.5 20h-50v-260z" />
    <glyph glyph-name="Yericyrillic" unicode="&#x42b;" 
d="M37 0v800h163v-242h23q108 0 162 -49t54 -148v-150q0 -106 -54 -158.5t-163 -52.5h-185zM500 0v800h163v-800h-163zM200 140h20q34 0 48 21t14 70v103q0 46 -14 66t-48 20h-20v-280z" />
    <glyph glyph-name="Softsigncyrillic" unicode="&#x42c;" 
d="M50 0v800h200v-242h143q140 0 213.5 -53t73.5 -154v-130q0 -108 -73.5 -164.5t-214.5 -56.5h-342zM250 150h110q64 0 92 21t28 70v83q0 46 -28 66t-92 20h-110v-260z" />
    <glyph glyph-name="Ereversedcyrillic" unicode="&#x42d;" 
d="M340 -10q-157 0 -230 67.5t-80 219.5l200 10q7 -89 27 -118t83 -29q72 0 91 34t19 93v83h-150v150h150v28q0 70 -24.5 101t-85.5 31q-63 0 -83.5 -31.5t-26.5 -119.5l-200 10q7 154 79.5 222.5t229.5 68.5q154 0 232.5 -66t78.5 -195v-302q0 -127 -78.5 -192t-231.5 -65z
" />
    <glyph glyph-name="IUcyrillic" unicode="&#x42e;" 
d="M465 -10q-96 0 -145.5 57.5t-49.5 159.5v143h-71v-350h-162v800h162v-300h71v89q0 104 50 162.5t146 58.5q97 0 147 -58.5t50 -162.5v-382q0 -102 -50 -159.5t-148 -57.5zM465 140q22 0 28.5 18t6.5 49v382q0 32 -6.5 51.5t-28.5 19.5t-28.5 -19.5t-6.5 -51.5v-382
q0 -31 6.5 -49t28.5 -18z" />
    <glyph glyph-name="IAcyrillic" unicode="&#x42f;" 
d="M350 430h100v220h-100q-56 0 -78 -18t-22 -66v-52q0 -48 22 -66t78 -18zM450 280h-63l-147 -280h-209l160 300q-64 25 -97.5 77t-33.5 130v72q0 107 66.5 164t192.5 57h331v-800h-200v280z" />
    <glyph glyph-name="Gheupturncyrillic" unicode="&#x490;" 
d="M100 0v800h370v150h200v-300h-370v-650h-200z" />
    <glyph glyph-name="a" unicode="a" 
d="M283 110q31 0 60 8t57 21v98h-120q-31 0 -45.5 -13.5t-14.5 -54.5q0 -29 15 -44t48 -15zM230 -10q-87 0 -138.5 47t-51.5 128q0 85 60 128.5t165 43.5h135v68q0 42 -22 56.5t-65 14.5q-45 0 -66.5 -17.5t-30.5 -64.5l-161 25q22 107 80.5 149t184.5 42q137 0 203.5 -50.5
t66.5 -153.5v-216q0 -39 23.5 -47.5t66.5 -3.5v-134q-84 -20 -135 1t-71 84h-30q-32 -40 -88.5 -70t-125.5 -30z" />
    <glyph glyph-name="agrave" unicode="&#xe0;" 
d="M40 0zM283 110q31 0 60 8t57 21v98h-120q-31 0 -45.5 -13.5t-14.5 -54.5q0 -29 15 -44t48 -15zM230 -10q-87 0 -138.5 47t-51.5 128q0 85 60 128.5t165 43.5h135v68q0 42 -22 56.5t-65 14.5q-45 0 -66.5 -17.5t-30.5 -64.5l-161 25q22 107 80.5 149t184.5 42
q137 0 203.5 -50.5t66.5 -153.5v-216q0 -39 23.5 -47.5t66.5 -3.5v-134q-84 -20 -135 1t-71 84h-30q-32 -40 -88.5 -70t-125.5 -30zM321 700l-225 200h250l106 -200h-131z" />
    <glyph glyph-name="aacute" unicode="&#xe1;" 
d="M40 0zM283 110q31 0 60 8t57 21v98h-120q-31 0 -45.5 -13.5t-14.5 -54.5q0 -29 15 -44t48 -15zM230 -10q-87 0 -138.5 47t-51.5 128q0 85 60 128.5t165 43.5h135v68q0 42 -22 56.5t-65 14.5q-45 0 -66.5 -17.5t-30.5 -64.5l-161 25q22 107 80.5 149t184.5 42
q137 0 203.5 -50.5t66.5 -153.5v-216q0 -39 23.5 -47.5t66.5 -3.5v-134q-84 -20 -135 1t-71 84h-30q-32 -40 -88.5 -70t-125.5 -30zM206 700l106 200h250l-225 -200h-131z" />
    <glyph glyph-name="acircumflex" unicode="&#xe2;" 
d="M40 0zM283 110q31 0 60 8t57 21v98h-120q-31 0 -45.5 -13.5t-14.5 -54.5q0 -29 15 -44t48 -15zM230 -10q-87 0 -138.5 47t-51.5 128q0 85 60 128.5t165 43.5h135v68q0 42 -22 56.5t-65 14.5q-45 0 -66.5 -17.5t-30.5 -64.5l-161 25q22 107 80.5 149t184.5 42
q137 0 203.5 -50.5t66.5 -153.5v-216q0 -39 23.5 -47.5t66.5 -3.5v-134q-84 -20 -135 1t-71 84h-30q-32 -40 -88.5 -70t-125.5 -30zM141 684l-62 84l184 159h152l186 -159l-61 -83l-201 105z" />
    <glyph glyph-name="atilde" unicode="&#xe3;" 
d="M40 0zM283 110q31 0 60 8t57 21v98h-120q-31 0 -45.5 -13.5t-14.5 -54.5q0 -29 15 -44t48 -15zM230 -10q-87 0 -138.5 47t-51.5 128q0 85 60 128.5t165 43.5h135v68q0 42 -22 56.5t-65 14.5q-45 0 -66.5 -17.5t-30.5 -64.5l-161 25q22 107 80.5 149t184.5 42
q137 0 203.5 -50.5t66.5 -153.5v-216q0 -39 23.5 -47.5t66.5 -3.5v-134q-84 -20 -135 1t-71 84h-30q-32 -40 -88.5 -70t-125.5 -30zM436 710q-49 0 -75 15t-42 32q-16 18 -30 32.5t-33 14.5q-16 0 -29 -14.5t-12 -60.5v-9h-127v15q0 83 42 139t116 56q48 0 74 -15t43 -32
q17 -18 31 -33t31 -15q16 0 29 14.5t12 60.5v9h127v-15q0 -82 -42 -138t-115 -56z" />
    <glyph glyph-name="adieresis" unicode="&#xe4;" 
d="M40 0zM283 110q31 0 60 8t57 21v98h-120q-31 0 -45.5 -13.5t-14.5 -54.5q0 -29 15 -44t48 -15zM230 -10q-87 0 -138.5 47t-51.5 128q0 85 60 128.5t165 43.5h135v68q0 42 -22 56.5t-65 14.5q-45 0 -66.5 -17.5t-30.5 -64.5l-161 25q22 107 80.5 149t184.5 42
q137 0 203.5 -50.5t66.5 -153.5v-216q0 -39 23.5 -47.5t66.5 -3.5v-134q-84 -20 -135 1t-71 84h-30q-32 -40 -88.5 -70t-125.5 -30zM210 690q-43 0 -70.5 17t-27.5 59v15q0 43 27.5 61t70.5 18q44 0 71 -18t27 -61v-15q0 -42 -27.5 -59t-70.5 -17zM470 690q-43 0 -70.5 17
t-27.5 59v15q0 43 27.5 61t70.5 18q44 0 71 -18t27 -61v-15q0 -42 -27.5 -59t-70.5 -17z" />
    <glyph glyph-name="aring" unicode="&#xe5;" 
d="M40 0zM283 110q31 0 60 8t57 21v98h-120q-31 0 -45.5 -13.5t-14.5 -54.5q0 -29 15 -44t48 -15zM230 -10q-87 0 -138.5 47t-51.5 128q0 85 60 128.5t165 43.5h135v68q0 42 -22 56.5t-65 14.5q-45 0 -66.5 -17.5t-30.5 -64.5l-161 25q22 107 80.5 149t184.5 42
q137 0 203.5 -50.5t66.5 -153.5v-216q0 -39 23.5 -47.5t66.5 -3.5v-134q-84 -20 -135 1t-71 84h-30q-32 -40 -88.5 -70t-125.5 -30zM330 675q-94 0 -152 38t-58 117v32q0 80 58 119t152 39q95 0 152.5 -39t57.5 -119v-32q0 -79 -58 -117t-152 -38zM330 766q35 0 53.5 14.5
t18.5 49.5v32q0 34 -18.5 50.5t-53.5 16.5q-36 0 -54 -16.5t-18 -50.5v-32q0 -35 18 -49.5t54 -14.5z" />
    <glyph glyph-name="amacron" unicode="&#x101;" 
d="M40 0zM283 110q31 0 60 8t57 21v98h-120q-31 0 -45.5 -13.5t-14.5 -54.5q0 -29 15 -44t48 -15zM230 -10q-87 0 -138.5 47t-51.5 128q0 85 60 128.5t165 43.5h135v68q0 42 -22 56.5t-65 14.5q-45 0 -66.5 -17.5t-30.5 -64.5l-161 25q22 107 80.5 149t184.5 42
q137 0 203.5 -50.5t66.5 -153.5v-216q0 -39 23.5 -47.5t66.5 -3.5v-134q-84 -20 -135 1t-71 84h-30q-32 -40 -88.5 -70t-125.5 -30zM105 725v150h450v-150h-450z" />
    <glyph glyph-name="abreve" unicode="&#x103;" 
d="M40 0zM283 110q31 0 60 8t57 21v98h-120q-31 0 -45.5 -13.5t-14.5 -54.5q0 -29 15 -44t48 -15zM230 -10q-87 0 -138.5 47t-51.5 128q0 85 60 128.5t165 43.5h135v68q0 42 -22 56.5t-65 14.5q-45 0 -66.5 -17.5t-30.5 -64.5l-161 25q22 107 80.5 149t184.5 42
q137 0 203.5 -50.5t66.5 -153.5v-216q0 -39 23.5 -47.5t66.5 -3.5v-134q-84 -20 -135 1t-71 84h-30q-32 -40 -88.5 -70t-125.5 -30zM330 693q-135 0 -200.5 59t-66.5 181h160q1 -68 25 -94.5t82 -26.5t82 26.5t25 94.5h160q-1 -122 -66.5 -181t-200.5 -59z" />
    <glyph glyph-name="aogonek" unicode="&#x105;" 
d="M40 0zM283 110q31 0 60 8t57 21v98h-120q-31 0 -45.5 -13.5t-14.5 -54.5q0 -29 15 -44t48 -15zM230 -10q-87 0 -138.5 47t-51.5 128q0 85 60 128.5t165 43.5h135v68q0 42 -22 56.5t-65 14.5q-45 0 -66.5 -17.5t-30.5 -64.5l-161 25q22 107 80.5 149t184.5 42
q137 0 203.5 -50.5t66.5 -153.5v-216q0 -39 23.5 -47.5t66.5 -3.5v-134q-84 -20 -135 1t-71 84h-30q-32 -40 -88.5 -70t-125.5 -30zM601 -224q-84 0 -132.5 32t-48.5 96q0 66 51 111.5t111 61.5l27 -54q-34 -21 -41.5 -40t-7.5 -36q0 -26 17.5 -38.5t57.5 -12.5q18 0 42 2.5
t53 7.5v-116q-36 -7 -68.5 -10.5t-60.5 -3.5z" />
    <glyph glyph-name="aringacute" unicode="&#x1fb;" 
d="M40 0zM283 110q31 0 60 8t57 21v98h-120q-31 0 -45.5 -13.5t-14.5 -54.5q0 -29 15 -44t48 -15zM230 -10q-87 0 -138.5 47t-51.5 128q0 85 60 128.5t165 43.5h135v68q0 42 -22 56.5t-65 14.5q-45 0 -66.5 -17.5t-30.5 -64.5l-161 25q22 107 80.5 149t184.5 42
q137 0 203.5 -50.5t66.5 -153.5v-216q0 -39 23.5 -47.5t66.5 -3.5v-134q-84 -20 -135 1t-71 84h-30q-32 -40 -88.5 -70t-125.5 -30zM330 675q-94 0 -152 38t-58 117v32q0 80 58 119t152 39q95 0 152.5 -39t57.5 -119v-32q0 -79 -58 -117t-152 -38zM330 766q35 0 53.5 14.5
t18.5 49.5v32q0 34 -18.5 50.5t-53.5 16.5q-36 0 -54 -16.5t-18 -50.5v-32q0 -35 18 -49.5t54 -14.5zM246 1000l106 200h250l-225 -200h-131z" />
    <glyph glyph-name="b" unicode="b" 
d="M343 -6q-72 0 -144.5 19.5t-138.5 56.5v730h200v-310h30q23 58 70 89t111 31q77 0 123 -54.5t46 -145.5v-191q0 -110 -76 -167.5t-221 -57.5zM354 133q42 0 64 19.5t22 67.5v151q0 46 -19.5 67.5t-50.5 21.5q-28 0 -54.5 -12.5t-55.5 -37.5v-252q25 -13 47 -19t47 -6z
" />
    <glyph glyph-name="c" unicode="c" 
d="M359 -10q-145 0 -222 61t-77 176v150q0 111 77.5 172t220.5 61q138 0 203 -59.5t80 -166.5l-193 -16q-5 57 -26 79t-70 22q-51 0 -71.5 -23.5t-20.5 -82.5v-126q0 -60 21 -83.5t73 -23.5q49 0 69.5 18t24.5 64l193 -16q-7 -99 -66 -152.5t-216 -53.5z" />
    <glyph glyph-name="ccedilla" unicode="&#xe7;" 
d="M60 0zM359 -10q-145 0 -222 61t-77 176v150q0 111 77.5 172t220.5 61q138 0 203 -59.5t80 -166.5l-193 -16q-5 57 -26 79t-70 22q-51 0 -71.5 -23.5t-20.5 -82.5v-126q0 -60 21 -83.5t73 -23.5q49 0 69.5 18t24.5 64l193 -16q-7 -99 -66 -152.5t-216 -53.5zM366 0l20 42
q86 -8 140 -35.5t54 -94.5q0 -75 -67 -106.5t-149 -31.5q-96 0 -157 31.5t-66 104.5l168 10q2 -19 12.5 -26.5t34.5 -7.5q27 0 40.5 10.5t13.5 44.5q0 25 -9 38.5t-35 20.5z" />
    <glyph glyph-name="cacute" unicode="&#x107;" 
d="M60 0zM359 -10q-145 0 -222 61t-77 176v150q0 111 77.5 172t220.5 61q138 0 203 -59.5t80 -166.5l-193 -16q-5 57 -26 79t-70 22q-51 0 -71.5 -23.5t-20.5 -82.5v-126q0 -60 21 -83.5t73 -23.5q49 0 69.5 18t24.5 64l193 -16q-7 -99 -66 -152.5t-216 -53.5zM262 700
l106 200h250l-225 -200h-131z" />
    <glyph glyph-name="ccircumflex" unicode="&#x109;" 
d="M60 0zM157 684l-62 84l184 159h152l186 -159l-61 -83l-201 105zM359 -10q-145 0 -222 61t-77 176v150q0 111 77.5 172t220.5 61q138 0 203 -59.5t80 -166.5l-193 -16q-5 57 -26 79t-70 22q-51 0 -71.5 -23.5t-20.5 -82.5v-126q0 -60 21 -83.5t73 -23.5q49 0 69.5 18
t24.5 64l193 -16q-7 -99 -66 -152.5t-216 -53.5z" />
    <glyph glyph-name="cdotaccent" unicode="&#x10b;" 
d="M60 0zM359 -10q-145 0 -222 61t-77 176v150q0 111 77.5 172t220.5 61q138 0 203 -59.5t80 -166.5l-193 -16q-5 57 -26 79t-70 22q-51 0 -71.5 -23.5t-20.5 -82.5v-126q0 -60 21 -83.5t73 -23.5q49 0 69.5 18t24.5 64l193 -16q-7 -99 -66 -152.5t-216 -53.5zM356 690
q-57 0 -92.5 17t-35.5 59v15q0 43 35.5 61t92.5 18t92.5 -18t35.5 -61v-15q0 -42 -36 -59t-92 -17z" />
    <glyph glyph-name="ccaron" unicode="&#x10d;" 
d="M60 0zM281 704l-186 159l61 83l201 -105l198 106l62 -84l-184 -159h-152zM359 -10q-145 0 -222 61t-77 176v150q0 111 77.5 172t220.5 61q138 0 203 -59.5t80 -166.5l-193 -16q-5 57 -26 79t-70 22q-51 0 -71.5 -23.5t-20.5 -82.5v-126q0 -60 21 -83.5t73 -23.5
q49 0 69.5 18t24.5 64l193 -16q-7 -99 -66 -152.5t-216 -53.5z" />
    <glyph glyph-name="d" unicode="d" 
d="M330 140q28 0 54.5 12.5t55.5 37.5v252q-21 11 -45 18t-49 7q-43 0 -64.5 -21.5t-21.5 -65.5v-151q0 -46 19.5 -67.5t50.5 -21.5zM410 110q-23 -57 -70.5 -88.5t-110.5 -31.5q-83 0 -126 59.5t-43 140.5v191q0 105 66 165t182 60q37 0 70.5 -6t61.5 -17v217h200v-800
h-200v110h-30z" />
    <glyph glyph-name="dcaron" unicode="&#x10f;" 
d="M60 0zM696 705l51 295h247l-186 -295h-112zM330 140q28 0 54.5 12.5t55.5 37.5v252q-21 11 -45 18t-49 7q-43 0 -64.5 -21.5t-21.5 -65.5v-151q0 -46 19.5 -67.5t50.5 -21.5zM410 110q-23 -57 -70.5 -88.5t-110.5 -31.5q-83 0 -126 59.5t-43 140.5v191q0 105 66 165
t182 60q37 0 70.5 -6t61.5 -17v217h200v-800h-200v110h-30z" />
    <glyph glyph-name="e" unicode="e" 
d="M654 142q-40 -87 -104 -119.5t-196 -32.5q-124 0 -209 57t-85 173v159q0 108 77 169.5t214 61.5q136 0 212.5 -61.5t76.5 -171.5v-117h-380v-54q0 -42 22.5 -66.5t77.5 -24.5q43 0 74.5 13.5t55.5 56.5zM260 399v-39h180v30q0 56 -18 78t-72 22t-72 -20.5t-18 -70.5z" />
    <glyph glyph-name="egrave" unicode="&#xe8;" 
d="M60 0zM336 700l-225 200h250l106 -200h-131zM654 142q-40 -87 -104 -119.5t-196 -32.5q-124 0 -209 57t-85 173v159q0 108 77 169.5t214 61.5q136 0 212.5 -61.5t76.5 -171.5v-117h-380v-54q0 -42 22.5 -66.5t77.5 -24.5q43 0 74.5 13.5t55.5 56.5zM260 399v-39h180v30
q0 56 -18 78t-72 22t-72 -20.5t-18 -70.5z" />
    <glyph glyph-name="eacute" unicode="&#xe9;" 
d="M60 0zM241 700l106 200h250l-225 -200h-131zM654 142q-40 -87 -104 -119.5t-196 -32.5q-124 0 -209 57t-85 173v159q0 108 77 169.5t214 61.5q136 0 212.5 -61.5t76.5 -171.5v-117h-380v-54q0 -42 22.5 -66.5t77.5 -24.5q43 0 74.5 13.5t55.5 56.5zM260 399v-39h180v30
q0 56 -18 78t-72 22t-72 -20.5t-18 -70.5z" />
    <glyph glyph-name="ecircumflex" unicode="&#xea;" 
d="M60 0zM156 684l-62 84l184 159h152l186 -159l-61 -83l-201 105zM654 142q-40 -87 -104 -119.5t-196 -32.5q-124 0 -209 57t-85 173v159q0 108 77 169.5t214 61.5q136 0 212.5 -61.5t76.5 -171.5v-117h-380v-54q0 -42 22.5 -66.5t77.5 -24.5q43 0 74.5 13.5t55.5 56.5z
M260 399v-39h180v30q0 56 -18 78t-72 22t-72 -20.5t-18 -70.5z" />
    <glyph glyph-name="edieresis" unicode="&#xeb;" 
d="M60 0zM654 142q-40 -87 -104 -119.5t-196 -32.5q-124 0 -209 57t-85 173v159q0 108 77 169.5t214 61.5q136 0 212.5 -61.5t76.5 -171.5v-117h-380v-54q0 -42 22.5 -66.5t77.5 -24.5q43 0 74.5 13.5t55.5 56.5zM260 399v-39h180v30q0 56 -18 78t-72 22t-72 -20.5
t-18 -70.5zM225 690q-43 0 -70.5 17t-27.5 59v15q0 43 27.5 61t70.5 18q44 0 71 -18t27 -61v-15q0 -42 -27.5 -59t-70.5 -17zM485 690q-43 0 -70.5 17t-27.5 59v15q0 43 27.5 61t70.5 18q44 0 71 -18t27 -61v-15q0 -42 -27.5 -59t-70.5 -17z" />
    <glyph glyph-name="emacron" unicode="&#x113;" 
d="M60 0zM654 142q-40 -87 -104 -119.5t-196 -32.5q-124 0 -209 57t-85 173v159q0 108 77 169.5t214 61.5q136 0 212.5 -61.5t76.5 -171.5v-117h-380v-54q0 -42 22.5 -66.5t77.5 -24.5q43 0 74.5 13.5t55.5 56.5zM260 399v-39h180v30q0 56 -18 78t-72 22t-72 -20.5
t-18 -70.5zM130 725v150h450v-150h-450z" />
    <glyph glyph-name="ebreve" unicode="&#x115;" 
d="M60 0zM654 142q-40 -87 -104 -119.5t-196 -32.5q-124 0 -209 57t-85 173v159q0 108 77 169.5t214 61.5q136 0 212.5 -61.5t76.5 -171.5v-117h-380v-54q0 -42 22.5 -66.5t77.5 -24.5q43 0 74.5 13.5t55.5 56.5zM260 399v-39h180v30q0 56 -18 78t-72 22t-72 -20.5
t-18 -70.5zM345 693q-135 0 -200.5 59t-66.5 181h160q1 -68 25 -94.5t82 -26.5t82 26.5t25 94.5h160q-1 -122 -66.5 -181t-200.5 -59z" />
    <glyph glyph-name="edotaccent" unicode="&#x117;" 
d="M60 0zM355 690q-57 0 -92.5 17t-35.5 59v15q0 43 35.5 61t92.5 18t92.5 -18t35.5 -61v-15q0 -42 -36 -59t-92 -17zM654 142q-40 -87 -104 -119.5t-196 -32.5q-124 0 -209 57t-85 173v159q0 108 77 169.5t214 61.5q136 0 212.5 -61.5t76.5 -171.5v-117h-380v-54
q0 -42 22.5 -66.5t77.5 -24.5q43 0 74.5 13.5t55.5 56.5zM260 399v-39h180v30q0 56 -18 78t-72 22t-72 -20.5t-18 -70.5z" />
    <glyph glyph-name="eogonek" unicode="&#x119;" 
d="M60 0zM497 -224q-84 0 -132.5 32t-48.5 96q0 66 51 111.5t111 61.5l27 -54q-34 -21 -41.5 -40t-7.5 -36q0 -26 17.5 -38.5t57.5 -12.5q18 0 42 2.5t53 7.5v-116q-36 -7 -68.5 -10.5t-60.5 -3.5zM654 142q-40 -87 -104 -119.5t-196 -32.5q-124 0 -209 57t-85 173v159
q0 108 77 169.5t214 61.5q136 0 212.5 -61.5t76.5 -171.5v-117h-380v-54q0 -42 22.5 -66.5t77.5 -24.5q43 0 74.5 13.5t55.5 56.5zM260 399v-39h180v30q0 56 -18 78t-72 22t-72 -20.5t-18 -70.5z" />
    <glyph glyph-name="ecaron" unicode="&#x11b;" 
d="M60 0zM280 704l-186 159l61 83l201 -105l198 106l62 -84l-184 -159h-152zM654 142q-40 -87 -104 -119.5t-196 -32.5q-124 0 -209 57t-85 173v159q0 108 77 169.5t214 61.5q136 0 212.5 -61.5t76.5 -171.5v-117h-380v-54q0 -42 22.5 -66.5t77.5 -24.5q43 0 74.5 13.5
t55.5 56.5zM260 399v-39h180v30q0 56 -18 78t-72 22t-72 -20.5t-18 -70.5z" />
    <glyph glyph-name="f" unicode="f" 
d="M220 0v460h-160v140h160v31q0 96 70 152t192 56q42 0 84.5 -5t82.5 -18l-20 -126q-34 10 -64.5 14.5t-56.5 4.5q-43 0 -65.5 -24.5t-22.5 -70.5v-14h220v-140h-220v-460h-200z" />
    <glyph glyph-name="g" unicode="g" 
d="M670 -26q0 -82 -62.5 -133t-169.5 -51h-172q-119 0 -177.5 41.5t-58.5 98.5q0 51 32 81.5t78 35.5v20q-37 12 -62.5 35t-25.5 71q0 56 40 90.5t97 41.5v20q-52 13 -80.5 42t-28.5 74v2q0 77 67.5 117t163.5 40h359v-110l-164 18v-20q37 -10 61 -37.5t24 -62.5v-4
q0 -74 -68 -113.5t-167 -39.5h-88q-33 0 -52 -11t-19 -36t19 -36t52 -11h176q104 0 165 -40.5t61 -122.5zM335 321q40 0 57.5 17t17.5 45v50q0 25 -17.5 42t-57.5 17t-57.5 -17t-17.5 -42v-50q0 -28 17 -45t58 -17zM268 -100h168q32 0 53 9t21 42t-21 41.5t-53 8.5h-218v-46
q0 -26 12.5 -40.5t37.5 -14.5z" />
    <glyph glyph-name="gcircumflex" unicode="&#x11d;" 
d="M30 0zM161 684l-62 84l184 159h152l186 -159l-61 -83l-201 105zM670 -26q0 -82 -62.5 -133t-169.5 -51h-172q-119 0 -177.5 41.5t-58.5 98.5q0 51 32 81.5t78 35.5v20q-37 12 -62.5 35t-25.5 71q0 56 40 90.5t97 41.5v20q-52 13 -80.5 42t-28.5 74v2q0 77 67.5 117
t163.5 40h359v-110l-164 18v-20q37 -10 61 -37.5t24 -62.5v-4q0 -74 -68 -113.5t-167 -39.5h-88q-33 0 -52 -11t-19 -36t19 -36t52 -11h176q104 0 165 -40.5t61 -122.5zM335 321q40 0 57.5 17t17.5 45v50q0 25 -17.5 42t-57.5 17t-57.5 -17t-17.5 -42v-50q0 -28 17 -45
t58 -17zM268 -100h168q32 0 53 9t21 42t-21 41.5t-53 8.5h-218v-46q0 -26 12.5 -40.5t37.5 -14.5z" />
    <glyph glyph-name="gbreve" unicode="&#x11f;" 
d="M30 0zM350 693q-135 0 -200.5 59t-66.5 181h160q1 -68 25 -94.5t82 -26.5t82 26.5t25 94.5h160q-1 -122 -66.5 -181t-200.5 -59zM670 -26q0 -82 -62.5 -133t-169.5 -51h-172q-119 0 -177.5 41.5t-58.5 98.5q0 51 32 81.5t78 35.5v20q-37 12 -62.5 35t-25.5 71
q0 56 40 90.5t97 41.5v20q-52 13 -80.5 42t-28.5 74v2q0 77 67.5 117t163.5 40h359v-110l-164 18v-20q37 -10 61 -37.5t24 -62.5v-4q0 -74 -68 -113.5t-167 -39.5h-88q-33 0 -52 -11t-19 -36t19 -36t52 -11h176q104 0 165 -40.5t61 -122.5zM335 321q40 0 57.5 17t17.5 45v50
q0 25 -17.5 42t-57.5 17t-57.5 -17t-17.5 -42v-50q0 -28 17 -45t58 -17zM268 -100h168q32 0 53 9t21 42t-21 41.5t-53 8.5h-218v-46q0 -26 12.5 -40.5t37.5 -14.5z" />
    <glyph glyph-name="gdotaccent" unicode="&#x121;" 
d="M30 0zM350 690q-57 0 -92.5 17t-35.5 59v15q0 43 35.5 61t92.5 18t92.5 -18t35.5 -61v-15q0 -42 -36 -59t-92 -17zM670 -26q0 -82 -62.5 -133t-169.5 -51h-172q-119 0 -177.5 41.5t-58.5 98.5q0 51 32 81.5t78 35.5v20q-37 12 -62.5 35t-25.5 71q0 56 40 90.5t97 41.5v20
q-52 13 -80.5 42t-28.5 74v2q0 77 67.5 117t163.5 40h359v-110l-164 18v-20q37 -10 61 -37.5t24 -62.5v-4q0 -74 -68 -113.5t-167 -39.5h-88q-33 0 -52 -11t-19 -36t19 -36t52 -11h176q104 0 165 -40.5t61 -122.5zM335 321q40 0 57.5 17t17.5 45v50q0 25 -17.5 42t-57.5 17
t-57.5 -17t-17.5 -42v-50q0 -28 17 -45t58 -17zM268 -100h168q32 0 53 9t21 42t-21 41.5t-53 8.5h-218v-46q0 -26 12.5 -40.5t37.5 -14.5z" />
    <glyph glyph-name="gcommaaccent" unicode="&#x123;" 
d="M30 0zM670 -26q0 -82 -62.5 -133t-169.5 -51h-172q-119 0 -177.5 41.5t-58.5 98.5q0 51 32 81.5t78 35.5v20q-37 12 -62.5 35t-25.5 71q0 56 40 90.5t97 41.5v20q-52 13 -80.5 42t-28.5 74v2q0 77 67.5 117t163.5 40h359v-110l-164 18v-20q37 -10 61 -37.5t24 -62.5v-4
q0 -74 -68 -113.5t-167 -39.5h-88q-33 0 -52 -11t-19 -36t19 -36t52 -11h176q104 0 165 -40.5t61 -122.5zM335 321q40 0 57.5 17t17.5 45v50q0 25 -17.5 42t-57.5 17t-57.5 -17t-17.5 -42v-50q0 -28 17 -45t58 -17zM268 -100h168q32 0 53 9t21 42t-21 41.5t-53 8.5h-218v-46
q0 -26 12.5 -40.5t37.5 -14.5zM216 700l185 200h131l-66 -200h-250z" />
    <glyph glyph-name="h" unicode="h" 
d="M60 0v800h200v-310h30q25 57 73 88.5t110 31.5q76 0 121.5 -49.5t45.5 -131.5v-429h-200v374q0 42 -15.5 64t-43.5 22q-31 0 -62 -23.5t-59 -62.5v-374h-200z" />
    <glyph glyph-name="hcircumflex" unicode="&#x125;" 
d="M0 0zM60 0v800h200v-310h30q25 57 73 88.5t110 31.5q76 0 121.5 -49.5t45.5 -131.5v-429h-200v374q0 42 -15.5 64t-43.5 22q-31 0 -62 -23.5t-59 -62.5v-374h-200zM-39 884l-62 84l184 159h152l186 -159l-61 -83l-201 105z" />
    <glyph glyph-name="i" unicode="i" 
d="M70 0zM70 0v140h180v320h-180v140h380v-460h180v-140h-560zM361 690q-57 0 -92.5 17t-35.5 59v15q0 43 35.5 61t92.5 18t92.5 -18t35.5 -61v-15q0 -42 -36 -59t-92 -17z" />
    <glyph glyph-name="igrave" unicode="&#xec;" 
d="M70 0zM351 700l-225 200h250l106 -200h-131zM70 0v140h180v320h-180v140h380v-460h180v-140h-560z" />
    <glyph glyph-name="iacute" unicode="&#xed;" 
d="M70 0zM216 700l106 200h250l-225 -200h-131zM70 0v140h180v320h-180v140h380v-460h180v-140h-560z" />
    <glyph glyph-name="icircumflex" unicode="&#xee;" 
d="M70 0zM151 684l-62 84l184 159h152l186 -159l-61 -83l-201 105zM70 0v140h180v320h-180v140h380v-460h180v-140h-560z" />
    <glyph glyph-name="idieresis" unicode="&#xef;" 
d="M70 0zM70 0v140h180v320h-180v140h380v-460h180v-140h-560zM220 690q-43 0 -70.5 17t-27.5 59v15q0 43 27.5 61t70.5 18q44 0 71 -18t27 -61v-15q0 -42 -27.5 -59t-70.5 -17zM480 690q-43 0 -70.5 17t-27.5 59v15q0 43 27.5 61t70.5 18q44 0 71 -18t27 -61v-15
q0 -42 -27.5 -59t-70.5 -17z" />
    <glyph glyph-name="itilde" unicode="&#x129;" 
d="M70 0zM70 0v140h180v320h-180v140h380v-460h180v-140h-560zM446 710q-49 0 -75 15t-42 32q-16 18 -30 32.5t-33 14.5q-16 0 -29 -14.5t-12 -60.5v-9h-127v15q0 83 42 139t116 56q48 0 74 -15t43 -32q17 -18 31 -33t31 -15q16 0 29 14.5t12 60.5v9h127v-15q0 -82 -42 -138
t-115 -56z" />
    <glyph glyph-name="imacron" unicode="&#x12b;" 
d="M70 0zM70 0v140h180v320h-180v140h380v-460h180v-140h-560zM125 725v150h450v-150h-450z" />
    <glyph glyph-name="ibreve" unicode="&#x12d;" 
d="M70 0zM70 0v140h180v320h-180v140h380v-460h180v-140h-560zM350 693q-135 0 -200.5 59t-66.5 181h160q1 -68 25 -94.5t82 -26.5t82 26.5t25 94.5h160q-1 -122 -66.5 -181t-200.5 -59z" />
    <glyph glyph-name="iogonek" unicode="&#x12f;" 
d="M70 0zM361 690q-57 0 -92.5 17t-35.5 59v15q0 43 35.5 61t92.5 18t92.5 -18t35.5 -61v-15q0 -42 -36 -59t-92 -17zM70 0v140h180v320h-180v140h380v-460h180v-140h-560zM416 -224q-84 0 -132.5 32t-48.5 96q0 66 51 111.5t111 61.5l27 -54q-34 -21 -41.5 -40t-7.5 -36
q0 -26 17.5 -38.5t57.5 -12.5q18 0 42 2.5t53 7.5v-116q-36 -7 -68.5 -10.5t-60.5 -3.5z" />
    <glyph glyph-name="j" unicode="j" 
d="M51 0zM238 -210q-47 0 -95 4.5t-92 18.5l20 126q40 -12 75 -15.5t66 -3.5q60 0 94 22t34 73v445h-249v140h449v-602q0 -97 -80.5 -152.5t-221.5 -55.5zM430 690q-57 0 -92.5 17t-35.5 59v15q0 43 35.5 61t92.5 18t92.5 -18t35.5 -61v-15q0 -42 -36 -59t-92 -17z" />
    <glyph glyph-name="jcircumflex" unicode="&#x135;" 
d="M51 0zM238 -210q-47 0 -95 4.5t-92 18.5l20 126q40 -12 75 -15.5t66 -3.5q60 0 94 22t34 73v445h-249v140h449v-602q0 -97 -80.5 -152.5t-221.5 -55.5zM206 684l-62 84l184 159h152l186 -159l-61 -83l-201 105z" />
    <glyph glyph-name="k" unicode="k" 
d="M270 245v-245h-200v800h200v-425h37l153 225h205l-192 -270l189 -330h-212l-143 245h-37z" />
    <glyph glyph-name="kcommaaccent" unicode="&#x137;" 
d="M70 0zM270 245v-245h-200v800h200v-425h37l153 225h205l-192 -270l189 -330h-212l-143 245h-37zM209 -300l66 200h250l-185 -200h-131z" />
    <glyph glyph-name="l" unicode="l" 
d="M80 0v140h190v520h-190v140h390v-660h180v-140h-570z" />
    <glyph glyph-name="lacute" unicode="&#x13a;" 
d="M80 0zM211 900l106 200h250l-225 -200h-131zM80 0v140h190v520h-190v140h390v-660h180v-140h-570z" />
    <glyph glyph-name="lcommaaccent" unicode="&#x13c;" 
d="M80 0zM80 0v140h190v520h-190v140h390v-660h180v-140h-570zM171 -300l66 200h250l-185 -200h-131z" />
    <glyph glyph-name="lcaron" unicode="&#x13e;" 
d="M80 0zM546 705l51 295h247l-186 -295h-112zM80 0v140h190v520h-190v140h390v-660h180v-140h-570z" />
    <glyph glyph-name="m" unicode="m" 
d="M199 424v-424h-162v600h160v-80h31q19 42 44.5 63.5t58.5 21.5q32 0 57.5 -21t35.5 -64h28q17 42 47 63.5t71 21.5q43 0 68 -37t25 -99v-469h-162v434q0 22 -6 34t-16 12q-13 0 -26.5 -14.5t-23.5 -41.5v-424h-158v434q0 22 -6 34t-16 12q-13 0 -26.5 -14.5t-23.5 -41.5z
" />
    <glyph glyph-name="n" unicode="n" 
d="M60 0v600h200v-110h30q24 57 75 88.5t118 31.5q75 0 116 -47.5t41 -133.5v-429h-200v394q0 32 -15.5 49t-43.5 17q-31 0 -64 -16.5t-57 -49.5v-394h-200z" />
    <glyph glyph-name="ntilde" unicode="&#xf1;" 
d="M60 0zM466 710q-49 0 -75 15t-42 32q-16 18 -30 32.5t-33 14.5q-16 0 -29 -14.5t-12 -60.5v-9h-127v15q0 83 42 139t116 56q48 0 74 -15t43 -32q17 -18 31 -33t31 -15q16 0 29 14.5t12 60.5v9h127v-15q0 -82 -42 -138t-115 -56zM60 0v600h200v-110h30q24 57 75 88.5
t118 31.5q75 0 116 -47.5t41 -133.5v-429h-200v394q0 32 -15.5 49t-43.5 17q-31 0 -64 -16.5t-57 -49.5v-394h-200z" />
    <glyph glyph-name="nacute" unicode="&#x144;" 
d="M60 0zM236 700l106 200h250l-225 -200h-131zM60 0v600h200v-110h30q24 57 75 88.5t118 31.5q75 0 116 -47.5t41 -133.5v-429h-200v394q0 32 -15.5 49t-43.5 17q-31 0 -64 -16.5t-57 -49.5v-394h-200z" />
    <glyph glyph-name="ncommaaccent" unicode="&#x146;" 
d="M60 0zM186 -300l66 200h250l-185 -200h-131zM60 0v600h200v-110h30q24 57 75 88.5t118 31.5q75 0 116 -47.5t41 -133.5v-429h-200v394q0 32 -15.5 49t-43.5 17q-31 0 -64 -16.5t-57 -49.5v-394h-200z" />
    <glyph glyph-name="ncaron" unicode="&#x148;" 
d="M60 0zM295 704l-186 159l61 83l201 -105l198 106l62 -84l-184 -159h-152zM60 0v600h200v-110h30q24 57 75 88.5t118 31.5q75 0 116 -47.5t41 -133.5v-429h-200v394q0 32 -15.5 49t-43.5 17q-31 0 -64 -16.5t-57 -49.5v-394h-200z" />
    <glyph glyph-name="o" unicode="o" 
d="M350 -10q-136 0 -213 60t-77 167v162q0 108 77 169.5t214 61.5q136 0 212.5 -63t76.5 -173v-162q0 -104 -77 -163t-213 -59zM350 130q48 0 69 23t21 74v143q0 53 -21 76.5t-69 23.5t-69 -23.5t-21 -74.5v-140q0 -54 21 -78t69 -24z" />
    <glyph glyph-name="ograve" unicode="&#xf2;" 
d="M60 0zM331 700l-225 200h250l106 -200h-131zM350 -10q-136 0 -213 60t-77 167v162q0 108 77 169.5t214 61.5q136 0 212.5 -63t76.5 -173v-162q0 -104 -77 -163t-213 -59zM350 130q48 0 69 23t21 74v143q0 53 -21 76.5t-69 23.5t-69 -23.5t-21 -74.5v-140q0 -54 21 -78
t69 -24z" />
    <glyph glyph-name="oacute" unicode="&#xf3;" 
d="M60 0zM216 700l106 200h250l-225 -200h-131zM350 -10q-136 0 -213 60t-77 167v162q0 108 77 169.5t214 61.5q136 0 212.5 -63t76.5 -173v-162q0 -104 -77 -163t-213 -59zM350 130q48 0 69 23t21 74v143q0 53 -21 76.5t-69 23.5t-69 -23.5t-21 -74.5v-140q0 -54 21 -78
t69 -24z" />
    <glyph glyph-name="ocircumflex" unicode="&#xf4;" 
d="M60 0zM151 684l-62 84l184 159h152l186 -159l-61 -83l-201 105zM350 -10q-136 0 -213 60t-77 167v162q0 108 77 169.5t214 61.5q136 0 212.5 -63t76.5 -173v-162q0 -104 -77 -163t-213 -59zM350 130q48 0 69 23t21 74v143q0 53 -21 76.5t-69 23.5t-69 -23.5t-21 -74.5
v-140q0 -54 21 -78t69 -24z" />
    <glyph glyph-name="otilde" unicode="&#xf5;" 
d="M60 0zM446 710q-49 0 -75 15t-42 32q-16 18 -30 32.5t-33 14.5q-16 0 -29 -14.5t-12 -60.5v-9h-127v15q0 83 42 139t116 56q48 0 74 -15t43 -32q17 -18 31 -33t31 -15q16 0 29 14.5t12 60.5v9h127v-15q0 -82 -42 -138t-115 -56zM350 -10q-136 0 -213 60t-77 167v162
q0 108 77 169.5t214 61.5q136 0 212.5 -63t76.5 -173v-162q0 -104 -77 -163t-213 -59zM350 130q48 0 69 23t21 74v143q0 53 -21 76.5t-69 23.5t-69 -23.5t-21 -74.5v-140q0 -54 21 -78t69 -24z" />
    <glyph glyph-name="odieresis" unicode="&#xf6;" 
d="M60 0zM220 690q-43 0 -70.5 17t-27.5 59v15q0 43 27.5 61t70.5 18q44 0 71 -18t27 -61v-15q0 -42 -27.5 -59t-70.5 -17zM480 690q-43 0 -70.5 17t-27.5 59v15q0 43 27.5 61t70.5 18q44 0 71 -18t27 -61v-15q0 -42 -27.5 -59t-70.5 -17zM350 -10q-136 0 -213 60t-77 167
v162q0 108 77 169.5t214 61.5q136 0 212.5 -63t76.5 -173v-162q0 -104 -77 -163t-213 -59zM350 130q48 0 69 23t21 74v143q0 53 -21 76.5t-69 23.5t-69 -23.5t-21 -74.5v-140q0 -54 21 -78t69 -24z" />
    <glyph glyph-name="omacron" unicode="&#x14d;" 
d="M60 0zM125 725v150h450v-150h-450zM350 -10q-136 0 -213 60t-77 167v162q0 108 77 169.5t214 61.5q136 0 212.5 -63t76.5 -173v-162q0 -104 -77 -163t-213 -59zM350 130q48 0 69 23t21 74v143q0 53 -21 76.5t-69 23.5t-69 -23.5t-21 -74.5v-140q0 -54 21 -78t69 -24z" />
    <glyph glyph-name="obreve" unicode="&#x14f;" 
d="M60 0zM360 693q-135 0 -200.5 59t-66.5 181h160q1 -68 25 -94.5t82 -26.5t82 26.5t25 94.5h160q-1 -122 -66.5 -181t-200.5 -59zM350 -10q-136 0 -213 60t-77 167v162q0 108 77 169.5t214 61.5q136 0 212.5 -63t76.5 -173v-162q0 -104 -77 -163t-213 -59zM350 130
q48 0 69 23t21 74v143q0 53 -21 76.5t-69 23.5t-69 -23.5t-21 -74.5v-140q0 -54 21 -78t69 -24z" />
    <glyph glyph-name="ohungarumlaut" unicode="&#x151;" 
d="M60 0zM396 700l46 200h190l-135 -200h-101zM166 700l46 200h190l-135 -200h-101zM350 -10q-136 0 -213 60t-77 167v162q0 108 77 169.5t214 61.5q136 0 212.5 -63t76.5 -173v-162q0 -104 -77 -163t-213 -59zM350 130q48 0 69 23t21 74v143q0 53 -21 76.5t-69 23.5
t-69 -23.5t-21 -74.5v-140q0 -54 21 -78t69 -24z" />
    <glyph glyph-name="p" unicode="p" 
d="M354 133q42 0 64 20t22 67v151q0 46 -19.5 67.5t-50.5 21.5q-28 0 -54.5 -12.5t-55.5 -37.5v-251q25 -13 45.5 -19.5t48.5 -6.5zM392 -6q-34 0 -69 6t-63 17v-217h-200v800h200v-110h30q22 55 70.5 87.5t110.5 32.5q78 0 123.5 -54t45.5 -146v-191q0 -104 -67 -164.5
t-181 -60.5z" />
    <glyph glyph-name="q" unicode="q" 
d="M440 -200v310h-30q-19 -46 -62.5 -83t-118.5 -37q-83 0 -126 59.5t-43 140.5v191q0 108 77 166.5t220 58.5q69 0 153 -15t130 -41v-750h-200zM330 140q28 0 54.5 12.5t55.5 37.5v252q-18 10 -40.5 17.5t-53.5 7.5q-42 0 -64 -19.5t-22 -67.5v-151q0 -46 19.5 -67.5
t50.5 -21.5z" />
    <glyph glyph-name="r" unicode="r" 
d="M80 0v600h200v-110h30q22 63 70 91.5t113 28.5q78 0 117.5 -44.5t39.5 -125.5v-112h-180v55q0 35 -15.5 56t-55.5 21q-34 0 -66 -15.5t-53 -54.5v-390h-200z" />
    <glyph glyph-name="racute" unicode="&#x155;" 
d="M80 0zM241 700l106 200h250l-225 -200h-131zM80 0v600h200v-110h30q22 63 70 91.5t113 28.5q78 0 117.5 -44.5t39.5 -125.5v-112h-180v55q0 35 -15.5 56t-55.5 21q-34 0 -66 -15.5t-53 -54.5v-390h-200z" />
    <glyph glyph-name="rcommaaccent" unicode="&#x157;" 
d="M31 0zM80 0v600h200v-110h30q22 63 70 91.5t113 28.5q78 0 117.5 -44.5t39.5 -125.5v-112h-180v55q0 35 -15.5 56t-55.5 21q-34 0 -66 -15.5t-53 -54.5v-390h-200zM31 -300l66 200h250l-185 -200h-131z" />
    <glyph glyph-name="rcaron" unicode="&#x159;" 
d="M80 0zM300 704l-186 159l61 83l201 -105l198 106l62 -84l-184 -159h-152zM80 0v600h200v-110h30q22 63 70 91.5t113 28.5q78 0 117.5 -44.5t39.5 -125.5v-112h-180v55q0 35 -15.5 56t-55.5 21q-34 0 -66 -15.5t-53 -54.5v-390h-200z" />
    <glyph glyph-name="s" unicode="s" 
d="M351 -6q-78 0 -156.5 20.5t-134.5 56.5l45 119q60 -37 128.5 -55.5t122.5 -18.5q44 0 62 13.5t18 40.5q0 31 -21 45.5t-70 19.5q-128 13 -196.5 50t-68.5 125q0 92 70.5 146t192.5 54q61 0 129.5 -17.5t122.5 -48.5l-35 -112q-57 29 -110 42.5t-99 13.5q-38 0 -55 -13.5
t-17 -38.5q0 -32 30.5 -44t94.5 -20q119 -15 175 -56.5t56 -122.5q0 -92 -73 -145.5t-211 -53.5z" />
    <glyph glyph-name="sacute" unicode="&#x15b;" 
d="M60 0zM351 -6q-78 0 -156.5 20.5t-134.5 56.5l45 119q60 -37 128.5 -55.5t122.5 -18.5q44 0 62 13.5t18 40.5q0 31 -21 45.5t-70 19.5q-128 13 -196.5 50t-68.5 125q0 92 70.5 146t192.5 54q61 0 129.5 -17.5t122.5 -48.5l-35 -112q-57 29 -110 42.5t-99 13.5
q-38 0 -55 -13.5t-17 -38.5q0 -32 30.5 -44t94.5 -20q119 -15 175 -56.5t56 -122.5q0 -92 -73 -145.5t-211 -53.5zM224 700l106 200h250l-225 -200h-131z" />
    <glyph glyph-name="scircumflex" unicode="&#x15d;" 
d="M60 0zM149 684l-62 84l184 159h152l186 -159l-61 -83l-201 105zM351 -6q-78 0 -156.5 20.5t-134.5 56.5l45 119q60 -37 128.5 -55.5t122.5 -18.5q44 0 62 13.5t18 40.5q0 31 -21 45.5t-70 19.5q-128 13 -196.5 50t-68.5 125q0 92 70.5 146t192.5 54q61 0 129.5 -17.5
t122.5 -48.5l-35 -112q-57 29 -110 42.5t-99 13.5q-38 0 -55 -13.5t-17 -38.5q0 -32 30.5 -44t94.5 -20q119 -15 175 -56.5t56 -122.5q0 -92 -73 -145.5t-211 -53.5z" />
    <glyph glyph-name="scedilla" unicode="&#x15f;" 
d="M60 0zM351 -6q-78 0 -156.5 20.5t-134.5 56.5l45 119q60 -37 128.5 -55.5t122.5 -18.5q44 0 62 13.5t18 40.5q0 31 -21 45.5t-70 19.5q-128 13 -196.5 50t-68.5 125q0 92 70.5 146t192.5 54q61 0 129.5 -17.5t122.5 -48.5l-35 -112q-57 29 -110 42.5t-99 13.5
q-38 0 -55 -13.5t-17 -38.5q0 -32 30.5 -44t94.5 -20q119 -15 175 -56.5t56 -122.5q0 -92 -73 -145.5t-211 -53.5zM308 0l20 42q86 -8 140 -35.5t54 -94.5q0 -75 -67 -106.5t-149 -31.5q-96 0 -157 31.5t-66 104.5l168 10q2 -19 12.5 -26.5t34.5 -7.5q27 0 40.5 10.5
t13.5 44.5q0 25 -9 38.5t-35 20.5z" />
    <glyph glyph-name="scaron" unicode="&#x161;" 
d="M60 0zM273 704l-186 159l61 83l201 -105l198 106l62 -84l-184 -159h-152zM351 -6q-78 0 -156.5 20.5t-134.5 56.5l45 119q60 -37 128.5 -55.5t122.5 -18.5q44 0 62 13.5t18 40.5q0 31 -21 45.5t-70 19.5q-128 13 -196.5 50t-68.5 125q0 92 70.5 146t192.5 54
q61 0 129.5 -17.5t122.5 -48.5l-35 -112q-57 29 -110 42.5t-99 13.5q-38 0 -55 -13.5t-17 -38.5q0 -32 30.5 -44t94.5 -20q119 -15 175 -56.5t56 -122.5q0 -92 -73 -145.5t-211 -53.5z" />
    <glyph glyph-name="scommaaccent" unicode="&#x219;" 
d="M60 0zM351 -6q-78 0 -156.5 20.5t-134.5 56.5l45 119q60 -37 128.5 -55.5t122.5 -18.5q44 0 62 13.5t18 40.5q0 31 -21 45.5t-70 19.5q-128 13 -196.5 50t-68.5 125q0 92 70.5 146t192.5 54q61 0 129.5 -17.5t122.5 -48.5l-35 -112q-57 29 -110 42.5t-99 13.5
q-38 0 -55 -13.5t-17 -38.5q0 -32 30.5 -44t94.5 -20q119 -15 175 -56.5t56 -122.5q0 -92 -73 -145.5t-211 -53.5zM176 -300l66 200h250l-185 -200h-131z" />
    <glyph glyph-name="t" unicode="t" 
d="M460 -11q-125 0 -192.5 57t-67.5 162v252h-140v140h140v200h200v-200h220v-140h-220v-224q0 -57 24.5 -81.5t66.5 -24.5q23 0 54 3.5t64 16.5l20 -136q-20 -9 -66 -17t-103 -8z" />
    <glyph glyph-name="tcedilla" unicode="&#x163;" 
d="M60 0zM460 -11q-125 0 -192.5 57t-67.5 162v252h-140v140h140v200h200v-200h220v-140h-220v-224q0 -57 24.5 -81.5t66.5 -24.5q23 0 54 3.5t64 16.5l20 -136q-20 -9 -66 -17t-103 -8zM363 0l20 42q86 -8 140 -35.5t54 -94.5q0 -75 -67 -106.5t-149 -31.5q-96 0 -157 31.5
t-66 104.5l168 10q2 -19 12.5 -26.5t34.5 -7.5q27 0 40.5 10.5t13.5 44.5q0 25 -9 38.5t-35 20.5z" />
    <glyph glyph-name="tcaron" unicode="&#x165;" 
d="M60 0zM496 705l51 295h247l-186 -295h-112zM460 -11q-125 0 -192.5 57t-67.5 162v252h-140v140h140v200h200v-200h220v-140h-220v-224q0 -57 24.5 -81.5t66.5 -24.5q23 0 54 3.5t64 16.5l20 -136q-20 -9 -66 -17t-103 -8z" />
    <glyph glyph-name="tcommaaccent" unicode="&#x21b;" 
d="M60 0zM460 -11q-125 0 -192.5 57t-67.5 162v252h-140v140h140v200h200v-200h220v-140h-220v-224q0 -57 24.5 -81.5t66.5 -24.5q23 0 54 3.5t64 16.5l20 -136q-20 -9 -66 -17t-103 -8zM216 -300l66 200h250l-185 -200h-131z" />
    <glyph glyph-name="u" unicode="u" 
d="M227 -10q-69 0 -118 45.5t-49 135.5v429h200v-374q0 -42 15.5 -64t43.5 -22q31 0 62 23.5t59 62.5v374h200v-600h-200v110h-30q-27 -65 -80.5 -92.5t-102.5 -27.5z" />
    <glyph glyph-name="ugrave" unicode="&#xf9;" 
d="M60 0zM341 700l-225 200h250l106 -200h-131zM227 -10q-69 0 -118 45.5t-49 135.5v429h200v-374q0 -42 15.5 -64t43.5 -22q31 0 62 23.5t59 62.5v374h200v-600h-200v110h-30q-27 -65 -80.5 -92.5t-102.5 -27.5z" />
    <glyph glyph-name="uacute" unicode="&#xfa;" 
d="M60 0zM266 700l106 200h250l-225 -200h-131zM227 -10q-69 0 -118 45.5t-49 135.5v429h200v-374q0 -42 15.5 -64t43.5 -22q31 0 62 23.5t59 62.5v374h200v-600h-200v110h-30q-27 -65 -80.5 -92.5t-102.5 -27.5z" />
    <glyph glyph-name="ucircumflex" unicode="&#xfb;" 
d="M60 0zM161 684l-62 84l184 159h152l186 -159l-61 -83l-201 105zM227 -10q-69 0 -118 45.5t-49 135.5v429h200v-374q0 -42 15.5 -64t43.5 -22q31 0 62 23.5t59 62.5v374h200v-600h-200v110h-30q-27 -65 -80.5 -92.5t-102.5 -27.5z" />
    <glyph glyph-name="udieresis" unicode="&#xfc;" 
d="M60 0zM227 -10q-69 0 -118 45.5t-49 135.5v429h200v-374q0 -42 15.5 -64t43.5 -22q31 0 62 23.5t59 62.5v374h200v-600h-200v110h-30q-27 -65 -80.5 -92.5t-102.5 -27.5zM230 690q-43 0 -70.5 17t-27.5 59v15q0 43 27.5 61t70.5 18q44 0 71 -18t27 -61v-15
q0 -42 -27.5 -59t-70.5 -17zM490 690q-43 0 -70.5 17t-27.5 59v15q0 43 27.5 61t70.5 18q44 0 71 -18t27 -61v-15q0 -42 -27.5 -59t-70.5 -17z" />
    <glyph glyph-name="utilde" unicode="&#x169;" 
d="M60 0zM227 -10q-69 0 -118 45.5t-49 135.5v429h200v-374q0 -42 15.5 -64t43.5 -22q31 0 62 23.5t59 62.5v374h200v-600h-200v110h-30q-27 -65 -80.5 -92.5t-102.5 -27.5zM446 710q-49 0 -75 15t-42 32q-16 18 -30 32.5t-33 14.5q-16 0 -29 -14.5t-12 -60.5v-9h-127v15
q0 83 42 139t116 56q48 0 74 -15t43 -32q17 -18 31 -33t31 -15q16 0 29 14.5t12 60.5v9h127v-15q0 -82 -42 -138t-115 -56z" />
    <glyph glyph-name="umacron" unicode="&#x16b;" 
d="M60 0zM227 -10q-69 0 -118 45.5t-49 135.5v429h200v-374q0 -42 15.5 -64t43.5 -22q31 0 62 23.5t59 62.5v374h200v-600h-200v110h-30q-27 -65 -80.5 -92.5t-102.5 -27.5zM125 725v150h450v-150h-450z" />
    <glyph glyph-name="ubreve" unicode="&#x16d;" 
d="M60 0zM227 -10q-69 0 -118 45.5t-49 135.5v429h200v-374q0 -42 15.5 -64t43.5 -22q31 0 62 23.5t59 62.5v374h200v-600h-200v110h-30q-27 -65 -80.5 -92.5t-102.5 -27.5zM360 693q-135 0 -200.5 59t-66.5 181h160q1 -68 25 -94.5t82 -26.5t82 26.5t25 94.5h160
q-1 -122 -66.5 -181t-200.5 -59z" />
    <glyph glyph-name="uring" unicode="&#x16f;" 
d="M60 0zM227 -10q-69 0 -118 45.5t-49 135.5v429h200v-374q0 -42 15.5 -64t43.5 -22q31 0 62 23.5t59 62.5v374h200v-600h-200v110h-30q-27 -65 -80.5 -92.5t-102.5 -27.5zM360 675q-94 0 -152 38t-58 117v32q0 80 58 119t152 39q95 0 152.5 -39t57.5 -119v-32
q0 -79 -58 -117t-152 -38zM360 766q35 0 53.5 14.5t18.5 49.5v32q0 34 -18.5 50.5t-53.5 16.5q-36 0 -54 -16.5t-18 -50.5v-32q0 -35 18 -49.5t54 -14.5z" />
    <glyph glyph-name="uhungarumlaut" unicode="&#x171;" 
d="M60 0zM396 700l46 200h190l-135 -200h-101zM166 700l46 200h190l-135 -200h-101zM227 -10q-69 0 -118 45.5t-49 135.5v429h200v-374q0 -42 15.5 -64t43.5 -22q31 0 62 23.5t59 62.5v374h200v-600h-200v110h-30q-27 -65 -80.5 -92.5t-102.5 -27.5z" />
    <glyph glyph-name="uogonek" unicode="&#x173;" 
d="M60 0zM566 -224q-84 0 -132.5 32t-48.5 96q0 66 51 111.5t111 61.5l27 -54q-34 -21 -41.5 -40t-7.5 -36q0 -26 17.5 -38.5t57.5 -12.5q18 0 42 2.5t53 7.5v-116q-36 -7 -68.5 -10.5t-60.5 -3.5zM227 -10q-69 0 -118 45.5t-49 135.5v429h200v-374q0 -42 15.5 -64t43.5 -22
q31 0 62 23.5t59 62.5v374h200v-600h-200v110h-30q-27 -65 -80.5 -92.5t-102.5 -27.5z" />
    <glyph glyph-name="v" unicode="v" 
d="M482 0h-265l-173 600h188l122 -445l121 445h180z" />
    <glyph glyph-name="w" unicode="w" 
d="M428 0l-78 286l-74 -286h-174l-93 600h169l48 -390l65 280h114l71 -272l46 382h169l-93 -600h-170z" />
    <glyph glyph-name="wcircumflex" unicode="&#x175;" 
d="M9 0zM161 684l-62 84l184 159h152l186 -159l-61 -83l-201 105zM428 0l-78 286l-74 -286h-174l-93 600h169l48 -390l65 280h114l71 -272l46 382h169l-93 -600h-170z" />
    <glyph glyph-name="wgrave" unicode="&#x1e81;" 
d="M9 0zM331 700l-225 200h250l106 -200h-131zM428 0l-78 286l-74 -286h-174l-93 600h169l48 -390l65 280h114l71 -272l46 382h169l-93 -600h-170z" />
    <glyph glyph-name="wacute" unicode="&#x1e83;" 
d="M9 0zM266 700l106 200h250l-225 -200h-131zM428 0l-78 286l-74 -286h-174l-93 600h169l48 -390l65 280h114l71 -272l46 382h169l-93 -600h-170z" />
    <glyph glyph-name="wdieresis" unicode="&#x1e85;" 
d="M9 0zM230 690q-43 0 -70.5 17t-27.5 59v15q0 43 27.5 61t70.5 18q44 0 71 -18t27 -61v-15q0 -42 -27.5 -59t-70.5 -17zM490 690q-43 0 -70.5 17t-27.5 59v15q0 43 27.5 61t70.5 18q44 0 71 -18t27 -61v-15q0 -42 -27.5 -59t-70.5 -17zM428 0l-78 286l-74 -286h-174
l-93 600h169l48 -390l65 280h114l71 -272l46 382h169l-93 -600h-170z" />
    <glyph glyph-name="x" unicode="x" 
d="M461 0l-120 177l-108 -177h-197l217 306l-200 294h199l105 -154l90 154h197l-196 -287l214 -313h-201z" />
    <glyph glyph-name="y" unicode="y" 
d="M195 -212q-34 0 -73 3t-85 9l10 140q43 -7 76.5 -11.5t58.5 -4.5q58 0 84.5 22t45.5 88l2 6h-127l-163 560h203l121 -444l132 444h195l-185 -584q-40 -128 -105 -178t-190 -50z" />
    <glyph glyph-name="yacute" unicode="&#xfd;" 
d="M24 0zM195 -212q-34 0 -73 3t-85 9l10 140q43 -7 76.5 -11.5t58.5 -4.5q58 0 84.5 22t45.5 88l2 6h-127l-163 560h203l121 -444l132 444h195l-185 -584q-40 -128 -105 -178t-190 -50zM216 700l106 200h250l-225 -200h-131z" />
    <glyph glyph-name="ydieresis" unicode="&#xff;" 
d="M24 0zM195 -212q-34 0 -73 3t-85 9l10 140q43 -7 76.5 -11.5t58.5 -4.5q58 0 84.5 22t45.5 88l2 6h-127l-163 560h203l121 -444l132 444h195l-185 -584q-40 -128 -105 -178t-190 -50zM220 690q-43 0 -70.5 17t-27.5 59v15q0 43 27.5 61t70.5 18q44 0 71 -18t27 -61v-15
q0 -42 -27.5 -59t-70.5 -17zM480 690q-43 0 -70.5 17t-27.5 59v15q0 43 27.5 61t70.5 18q44 0 71 -18t27 -61v-15q0 -42 -27.5 -59t-70.5 -17z" />
    <glyph glyph-name="ycircumflex" unicode="&#x177;" 
d="M24 0zM195 -212q-34 0 -73 3t-85 9l10 140q43 -7 76.5 -11.5t58.5 -4.5q58 0 84.5 22t45.5 88l2 6h-127l-163 560h203l121 -444l132 444h195l-185 -584q-40 -128 -105 -178t-190 -50zM151 684l-62 84l184 159h152l186 -159l-61 -83l-201 105z" />
    <glyph glyph-name="ygrave" unicode="&#x1ef3;" 
d="M24 0zM195 -212q-34 0 -73 3t-85 9l10 140q43 -7 76.5 -11.5t58.5 -4.5q58 0 84.5 22t45.5 88l2 6h-127l-163 560h203l121 -444l132 444h195l-185 -584q-40 -128 -105 -178t-190 -50zM331 700l-225 200h250l106 -200h-131z" />
    <glyph glyph-name="z" unicode="z" 
d="M630 0h-560v140l350 320h-350v140h560v-140l-350 -320h350v-140z" />
    <glyph glyph-name="zacute" unicode="&#x17a;" 
d="M70 0zM266 700l106 200h250l-225 -200h-131zM630 0h-560v140l350 320h-350v140h560v-140l-350 -320h350v-140z" />
    <glyph glyph-name="zdotaccent" unicode="&#x17c;" 
d="M70 0zM340 690q-57 0 -92.5 17t-35.5 59v15q0 43 35.5 61t92.5 18t92.5 -18t35.5 -61v-15q0 -42 -36 -59t-92 -17zM630 0h-560v140l350 320h-350v140h560v-140l-350 -320h350v-140z" />
    <glyph glyph-name="zcaron" unicode="&#x17e;" 
d="M70 0zM275 704l-186 159l61 83l201 -105l198 106l62 -84l-184 -159h-152zM630 0h-560v140l350 320h-350v140h560v-140l-350 -320h350v-140z" />
    <glyph glyph-name="ordfeminine" unicode="&#xaa;" 
d="M288 385q31 0 61 6.5t55 18.5v83h-119q-30 0 -44.5 -11.5t-14.5 -46.5q0 -25 14.5 -37.5t47.5 -12.5zM251 283q-65 0 -126 33.5t-61 107.5q0 78 55.5 116t152.5 38h132v41q0 46 -21 61.5t-61 15.5q-37 0 -57.5 -14.5t-33.5 -55.5l-154 22q19 89 77 125.5t174 36.5
q118 0 182 -42t64 -148v-150q0 -46 26.5 -56t75.5 -4v-114q-69 -16 -121.5 -4.5t-79.5 68.5h-25q-25 -33 -80 -55t-119 -22z" />
    <glyph glyph-name="ordmasculine" unicode="&#xba;" 
d="M350 283q-107 0 -181 47t-74 146v138q0 99 74 147.5t182 48.5q107 0 180.5 -48.5t73.5 -147.5v-138q0 -99 -73.5 -146t-181.5 -47zM350 402q48 0 66.5 20.5t18.5 66.5v121q0 39 -18.5 60t-66.5 21t-66.5 -21.5t-18.5 -61.5v-119q0 -46 18.5 -66.5t66.5 -20.5z" />
    <glyph glyph-name="germandbls" unicode="&#xdf;" 
d="M458 -6q-46 0 -100 16t-90 45l41 111q35 -29 67 -43.5t65 -14.5q28 0 44 12.5t16 36.5q0 22 -18 34t-94 40q-57 22 -85 60t-28 92q0 70 37.5 115t108.5 59q-2 63 -30.5 89t-66.5 26q-36 0 -65.5 -27.5t-29.5 -91.5v-553h-190v568q0 116 74 178t212 62q125 0 201 -73
t76 -187v-76q-95 1 -126.5 -14.5t-31.5 -40.5t22.5 -40t90.5 -43q58 -24 85 -62t27 -95q0 -82 -59.5 -132.5t-152.5 -50.5z" />
    <glyph glyph-name="ae" unicode="&#xe6;" 
d="M679 152q-21 -79 -69.5 -120.5t-120.5 -41.5q-49 0 -85.5 22.5t-57.5 67.5h-32q-13 -42 -49 -66t-85 -24q-75 0 -117.5 44t-42.5 122q0 92 49.5 136.5t135.5 44.5h85v58q0 46 -12 63.5t-38 17.5q-25 0 -36.5 -17.5t-27.5 -64.5l-141 25q22 99 68 145t122 46
q47 0 80.5 -18t51.5 -61q25 40 64 59.5t85 19.5q75 0 124.5 -57t49.5 -176v-117h-240v-54q0 -42 10 -66.5t35 -24.5q20 0 34.5 15.5t22.5 47.5zM440 399v-39h100v37q0 51 -11.5 72t-36.5 21t-38.5 -20.5t-13.5 -70.5zM290 139v98h-50q-30 0 -45 -15t-15 -53q0 -29 10.5 -44
t32.5 -15q18 0 33.5 8t33.5 21z" />
    <glyph glyph-name="aeacute" unicode="&#x1fd;" 
d="M20 0zM306 700l106 200h250l-225 -200h-131zM679 152q-21 -79 -69.5 -120.5t-120.5 -41.5q-49 0 -85.5 22.5t-57.5 67.5h-32q-13 -42 -49 -66t-85 -24q-75 0 -117.5 44t-42.5 122q0 92 49.5 136.5t135.5 44.5h85v58q0 46 -12 63.5t-38 17.5q-25 0 -36.5 -17.5
t-27.5 -64.5l-141 25q22 99 68 145t122 46q47 0 80.5 -18t51.5 -61q25 40 64 59.5t85 19.5q75 0 124.5 -57t49.5 -176v-117h-240v-54q0 -42 10 -66.5t35 -24.5q20 0 34.5 15.5t22.5 47.5zM440 399v-39h100v37q0 51 -11.5 72t-36.5 21t-38.5 -20.5t-13.5 -70.5zM290 139v98
h-50q-30 0 -45 -15t-15 -53q0 -29 10.5 -44t32.5 -15q18 0 33.5 8t33.5 21z" />
    <glyph glyph-name="eth" unicode="&#xf0;" 
d="M350 -10q-134 0 -217 59t-83 181v52q0 100 63.5 159t164.5 59q63 0 103 -22t56 -52h21q-6 62 -30 104.5t-67 71.5l-161 -72v100l52 23q-28 10 -61.5 19.5t-71.5 19.5l126 129q60 -16 111.5 -35.5t92.5 -43.5l151 68v-100l-66 -30q60 -56 88 -133.5t28 -179.5v-131
q0 -128 -83 -187t-217 -59zM351 130q54 0 76.5 21.5t22.5 66.5v63q0 40 -22.5 59t-76.5 19t-76.5 -19t-22.5 -59v-63q0 -45 22.5 -66.5t76.5 -21.5z" />
    <glyph glyph-name="oslash" unicode="&#xf8;" 
d="M230 232q0 -21 3 -37.5t9 -29.5l156 310q-10 2 -22.5 3.5t-25.5 1.5q-67 0 -93.5 -28.5t-26.5 -79.5v-140zM350 120q67 0 93.5 26t26.5 86v143q0 18 -3 33t-10 27l-155 -311q10 -2 22.5 -3t25.5 -1zM350 -10q-22 0 -46 2t-45 6l-49 -98h-120l66 133q-49 28 -77.5 77
t-28.5 107v162q0 107 80.5 169t220.5 62q21 0 45 -2t45 -6l49 98h120l-67 -133q50 -28 78.5 -78.5t28.5 -109.5v-162q0 -106 -80 -166.5t-220 -60.5z" />
    <glyph glyph-name="oslashacute" unicode="&#x1ff;" 
d="M50 0zM230 232q0 -21 3 -37.5t9 -29.5l156 310q-10 2 -22.5 3.5t-25.5 1.5q-67 0 -93.5 -28.5t-26.5 -79.5v-140zM350 120q67 0 93.5 26t26.5 86v143q0 18 -3 33t-10 27l-155 -311q10 -2 22.5 -3t25.5 -1zM350 -10q-22 0 -46 2t-45 6l-49 -98h-120l66 133
q-49 28 -77.5 77t-28.5 107v162q0 107 80.5 169t220.5 62q21 0 45 -2t45 -6l49 98h120l-67 -133q50 -28 78.5 -78.5t28.5 -109.5v-162q0 -106 -80 -166.5t-220 -60.5zM266 700l106 200h250l-225 -200h-131z" />
    <glyph glyph-name="thorn" unicode="&#xfe;" 
d="M354 133q42 0 64 20t22 67v151q0 46 -19.5 67.5t-50.5 21.5q-28 0 -54.5 -12.5t-55.5 -37.5v-251q25 -13 45.5 -19.5t48.5 -6.5zM392 -6q-37 0 -70.5 6t-61.5 17v-217h-200v1000h200v-310h30q22 57 69.5 88.5t111.5 31.5q76 0 122.5 -55t46.5 -145v-191q0 -103 -67 -164
t-181 -61z" />
    <glyph glyph-name="dcroat" unicode="&#x111;" 
d="M330 140q28 0 54.5 13t55.5 37v180q-26 13 -51 20t-53 7q-34 0 -55 -20t-21 -67v-81q0 -46 19.5 -67.5t50.5 -21.5zM410 110q-19 -46 -62.5 -83t-118.5 -37q-83 0 -126 59.5t-43 140.5v121q0 103 67 164t181 61q37 0 70.5 -6t61.5 -17v87h-160v100h160v100h200v-100h100
v-100h-100v-600h-200v110h-30z" />
    <glyph glyph-name="hbar" unicode="&#x127;" 
d="M260 304v-304h-200v600h-100v100h100v100h200v-100h160v-100h-160v-180h30q24 56 73 88t110 32q73 0 120 -51t47 -130v-359h-200v304q0 42 -15.5 64t-43.5 22q-31 0 -62 -23.5t-59 -62.5z" />
    <glyph glyph-name="dotlessi" unicode="&#x131;" 
d="M70 0v140h180v320h-180v140h380v-460h180v-140h-560z" />
    <glyph glyph-name="ij" unicode="&#x133;" 
d="M141 690q-52 0 -85 17t-33 59v15q0 43 33 61t85 18q53 0 85.5 -18t32.5 -61v-15q0 -42 -33.5 -59t-84.5 -17zM539 690q-52 0 -85 17t-33 59v15q0 43 33 61t85 18q53 0 85.5 -18t32.5 -61v-15q0 -42 -33.5 -59t-84.5 -17zM240 0h-180v600h180v-600zM387 -210
q-40 0 -80 5.5t-77 17.5l20 126q32 -10 59.5 -14.5t51.5 -4.5q46 0 72 22t26 73v445h-129v140h309v-602q0 -97 -67.5 -152.5t-184.5 -55.5z" />
    <glyph glyph-name="kgreenlandic" unicode="&#x138;" 
d="M70 0zM270 245v-245h-200v600h200v-225h37l153 225h205l-192 -270l189 -330h-212l-143 245h-37z" />
    <glyph glyph-name="ldot" unicode="&#x140;" 
d="M80 0zM705 330q-57 0 -92.5 17t-35.5 59v15q0 43 35.5 61t92.5 18t92.5 -18t35.5 -61v-15q0 -42 -36 -59t-92 -17zM80 0v140h190v520h-190v140h390v-660h180v-140h-570z" />
    <glyph glyph-name="lslash" unicode="&#x142;" 
d="M80 0v140h190v182l-160 -42v120l160 42v218h-190v140h390v-304l90 24v-120l-90 -24v-236h180v-140h-570z" />
    <glyph glyph-name="napostrophe" unicode="&#x149;" 
d="M0 0zM-34 700l106 200h250l-225 -200h-131zM60 0v600h200v-110h30q24 57 75 88.5t118 31.5q75 0 116 -47.5t41 -133.5v-429h-200v394q0 32 -15.5 49t-43.5 17q-31 0 -64 -16.5t-57 -49.5v-394h-200z" />
    <glyph glyph-name="eng" unicode="&#x14b;" 
d="M398 -210q-34 0 -69 6.5t-68 16.5l20 126q26 -8 49 -13.5t42 -5.5q32 0 50 22t18 73v379q0 32 -15.5 49t-43.5 17q-31 0 -64 -16.5t-57 -49.5v-394h-200v600h200v-110h30q28 64 82.5 92t108.5 28q73 0 116 -45.5t43 -135.5v-431q0 -110 -74 -159t-168 -49z" />
    <glyph glyph-name="oe" unicode="&#x153;" 
d="M672 152q-17 -93 -63 -127.5t-121 -34.5q-46 0 -84 17.5t-62 51.5q-20 -35 -53.5 -52t-73.5 -17q-76 0 -127 45.5t-51 141.5v242q0 97 51.5 144t127.5 47q40 0 72.5 -17t53.5 -52q23 35 60.5 52t82.5 17q76 0 127 -47t51 -146v-157h-234v-94q0 -23 10 -37t35 -14
q24 0 44 11t24 52zM429 439v-79h71v70q0 34 -7 47t-29 13q-21 0 -28 -11.5t-7 -39.5zM235 130q19 0 27 14.5t8 47.5v223q0 26 -8 40.5t-27 14.5t-27 -15t-8 -43v-220q0 -33 8 -47.5t27 -14.5z" />
    <glyph glyph-name="tbar" unicode="&#x167;" 
d="M460 -11q-125 0 -192.5 57t-67.5 162v42h-120v120h120v90h-140v140h140v200h200v-200h220v-140h-220v-90h200v-120h-200v-14q0 -57 24.5 -81.5t66.5 -24.5q23 0 54 3.5t64 16.5l20 -136q-20 -9 -66 -17t-103 -8z" />
    <glyph glyph-name="longs" unicode="&#x17f;" 
d="M250 0v460h-120v140h120v31q0 98 69 153t193 55q37 0 74.5 -6t72.5 -17l-20 -126q-29 9 -54 14t-47 5q-41 0 -64.5 -22t-23.5 -73v-614h-200z" />
    <glyph glyph-name="dotlessj" unicode="&#xf6be;" 
d="M238 -210q-47 0 -95 4.5t-92 18.5l20 126q40 -12 75 -15.5t66 -3.5q60 0 94 22t34 73v445h-249v140h449v-602q0 -97 -80.5 -152.5t-221.5 -55.5z" />
    <glyph glyph-name="dotlessj" unicode="&#x237;" 
d="M238 -210q-47 0 -95 4.5t-92 18.5l20 126q40 -12 75 -15.5t66 -3.5q60 0 94 22t34 73v445h-249v140h449v-602q0 -97 -80.5 -152.5t-221.5 -55.5z" />
    <glyph glyph-name="alpha" unicode="&#x3b1;" 
d="M320 141q21 0 41 13.5t39 36.5v221q-21 22 -40.5 36t-43.5 14t-40 -21.5t-16 -67.5v-151q0 -46 16.5 -63.5t43.5 -17.5zM470 131h-30q-28 -68 -80 -104t-121 -36q-82 0 -130.5 54t-48.5 146v199q0 96 45 159t114 63q53 0 89.5 -29t61.5 -91h30v108h200v-390
q0 -46 15 -60.5t55 -10.5v-134q-85 -20 -132 9.5t-68 116.5z" />
    <glyph glyph-name="alphatonos" unicode="&#x3ac;" 
d="M60 0zM320 141q21 0 41 13.5t39 36.5v221q-21 22 -40.5 36t-43.5 14t-40 -21.5t-16 -67.5v-151q0 -46 16.5 -63.5t43.5 -17.5zM470 131h-30q-28 -68 -80 -104t-121 -36q-82 0 -130.5 54t-48.5 146v199q0 96 45 159t114 63q53 0 89.5 -29t61.5 -91h30v108h200v-390
q0 -46 15 -60.5t55 -10.5v-134q-85 -20 -132 9.5t-68 116.5zM326 700l46 200h240l-165 -200h-121z" />
    <glyph glyph-name="beta" unicode="&#x3b2;" 
d="M350 138q32 0 60 21.5t28 81.5v22q0 63 -25.5 86t-72.5 23h-30v108h24q39 0 57.5 17.5t18.5 59.5v18q0 48 -18.5 66.5t-57.5 18.5q-42 0 -58 -25t-16 -79v-390q20 -13 41.5 -20.5t48.5 -7.5zM392 -10q-37 0 -70 5t-62 15v-210h-200v773q0 113 71.5 175t202.5 62
q127 0 200.5 -53t73.5 -144v-16q0 -60 -40 -97.5t-119 -51.5v-29q90 -9 140.5 -55t50.5 -124v-31q0 -102 -66 -160.5t-182 -58.5z" />
    <glyph glyph-name="gamma" unicode="&#x3b3;" 
d="M470 -200h-240l20 220l-226 580h200l126 -431l125 431h200l-225 -580z" />
    <glyph glyph-name="delta" unicode="&#x3b4;" 
d="M350 -10q-139 0 -214.5 59t-75.5 168v92q0 57 31.5 97.5t100.5 69.5q-56 27 -79 58.5t-23 80.5q0 96 65 140.5t192 44.5h205v-140h-205q-31 0 -47.5 -9t-16.5 -36q0 -20 25 -35t110 -44q122 -42 172 -91.5t50 -145.5v-82q0 -109 -75.5 -168t-214.5 -59zM350 130
q45 0 67.5 20.5t22.5 66.5v82q0 50 -23 75t-98 53q-27 -16 -43 -44t-16 -74v-92q0 -46 23 -66.5t67 -20.5z" />
    <glyph glyph-name="epsilon" unicode="&#x3b5;" 
d="M363 -10q-154 0 -228.5 40.5t-74.5 124.5v20q0 46 39 80t117 39v22q-64 4 -101 32.5t-37 77.5v24q0 86 76.5 123t208.5 37q134 0 201.5 -47t75.5 -153l-179 -8q-5 49 -25 70t-73 21q-48 0 -66.5 -13.5t-18.5 -44.5v-14q0 -37 20 -49.5t67 -12.5h56v-100h-56
q-70 0 -87.5 -16.5t-17.5 -47.5v-10q0 -31 18.5 -49.5t84.5 -18.5q78 0 94 24t22 68l179 -7q-8 -105 -67 -158.5t-228 -53.5z" />
    <glyph glyph-name="epsilontonos" unicode="&#x3ad;" 
d="M60 0zM363 -10q-154 0 -228.5 40.5t-74.5 124.5v20q0 46 39 80t117 39v22q-64 4 -101 32.5t-37 77.5v24q0 86 76.5 123t208.5 37q134 0 201.5 -47t75.5 -153l-179 -8q-5 49 -25 70t-73 21q-48 0 -66.5 -13.5t-18.5 -44.5v-14q0 -37 20 -49.5t67 -12.5h56v-100h-56
q-70 0 -87.5 -16.5t-17.5 -47.5v-10q0 -31 18.5 -49.5t84.5 -18.5q78 0 94 24t22 68l179 -7q-8 -105 -67 -158.5t-228 -53.5zM276 700l46 200h240l-165 -200h-121z" />
    <glyph glyph-name="zeta" unicode="&#x3b6;" 
d="M400 -200h-140v130h135q32 0 51 10.5t19 44.5q0 36 -19 48t-51 12h-65q-136 0 -203 52.5t-67 159.5q0 89 36.5 142t113.5 134l78 87l-5 15q-93 -28 -166.5 10.5t-124.5 142.5l99 69q53 -81 121 -103t184 3l201 75l24 -176l-182 -24l-91 -138q-42 -63 -65 -107t-23 -110
q0 -51 17.5 -76.5t52.5 -25.5h94q102 0 159 -45t57 -137q0 -97 -65 -145t-175 -48z" />
    <glyph glyph-name="eta" unicode="&#x3b7;" 
d="M440 -200v594q0 32 -15.5 49t-43.5 17q-31 0 -64 -16.5t-57 -49.5v-394h-200v600h200v-110h30q24 57 75 88.5t118 31.5q75 0 116 -47.5t41 -133.5v-629h-200z" />
    <glyph glyph-name="etatonos" unicode="&#x3ae;" 
d="M60 0zM336 700l46 200h240l-165 -200h-121zM440 -200v594q0 32 -15.5 49t-43.5 17q-31 0 -64 -16.5t-57 -49.5v-394h-200v600h200v-110h30q24 57 75 88.5t118 31.5q75 0 116 -47.5t41 -133.5v-629h-200z" />
    <glyph glyph-name="theta" unicode="&#x3b8;" 
d="M350 -10q-134 0 -212 61.5t-78 165.5v362q0 107 78.5 169t212.5 62q133 0 211 -62t78 -169v-362q0 -104 -78 -165.5t-212 -61.5zM250 572v-107h200v110q0 46 -22 70.5t-78 24.5t-78 -25.5t-22 -72.5zM350 130q56 0 78 24t22 78v113h-200v-113q0 -54 22 -78t78 -24z" />
    <glyph glyph-name="iota" unicode="&#x3b9;" 
d="M70 0zM485 -8q-116 0 -185.5 58.5t-69.5 148.5v261h-160v140h360v-361q0 -51 24.5 -75t66.5 -24q30 0 54 6.5t44 13.5l30 -136q-45 -16 -86 -24t-78 -8z" />
    <glyph glyph-name="iotadieresistonos" unicode="&#x390;" 
d="M27 0zM251 700l46 200h170l-105 -200h-111zM115 690q-39 0 -63.5 17t-24.5 59v15q0 43 24.5 61t63.5 18q40 0 64 -18t24 -61v-15q0 -42 -25 -59t-63 -17zM565 690q-39 0 -63.5 17t-24.5 59v15q0 43 24.5 61t63.5 18q40 0 64 -18t24 -61v-15q0 -42 -25 -59t-63 -17z
M485 -8q-116 0 -185.5 58.5t-69.5 148.5v261h-160v140h360v-361q0 -51 24.5 -75t66.5 -24q30 0 54 6.5t44 13.5l30 -136q-45 -16 -86 -24t-78 -8z" />
    <glyph glyph-name="iotatonos" unicode="&#x3af;" 
d="M70 0zM261 700l46 200h240l-165 -200h-121zM485 -8q-116 0 -185.5 58.5t-69.5 148.5v261h-160v140h360v-361q0 -51 24.5 -75t66.5 -24q30 0 54 6.5t44 13.5l30 -136q-45 -16 -86 -24t-78 -8z" />
    <glyph glyph-name="iotadieresis" unicode="&#x3ca;" 
d="M70 0zM485 -8q-116 0 -185.5 58.5t-69.5 148.5v261h-160v140h360v-361q0 -51 24.5 -75t66.5 -24q30 0 54 6.5t44 13.5l30 -136q-45 -16 -86 -24t-78 -8zM215 690q-43 0 -70.5 17t-27.5 59v15q0 43 27.5 61t70.5 18q44 0 71 -18t27 -61v-15q0 -42 -27.5 -59t-70.5 -17z
M475 690q-43 0 -70.5 17t-27.5 59v15q0 43 27.5 61t70.5 18q44 0 71 -18t27 -61v-15q0 -42 -27.5 -59t-70.5 -17z" />
    <glyph glyph-name="kappa" unicode="&#x3ba;" 
d="M270 245v-245h-200v600h200v-225h37l153 225h205l-192 -270l189 -330h-212l-143 245h-37z" />
    <glyph glyph-name="lambda" unicode="&#x3bb;" 
d="M475 0l-132 444l-121 -444h-198l144 510h156l-8 26q-22 74 -56 101.5t-102 27.5q-17 0 -37.5 -1t-43.5 -4l-20 140q32 3 62 4.5t57 1.5q134 0 203.5 -46.5t105.5 -161.5l190 -598h-200z" />
    <glyph glyph-name="mu" unicode="&#x3bc;" 
d="M270 20l10 -220h-220l10 220v580h200v-374q0 -43 17 -62t41 -19q26 0 44.5 11.5t37.5 33.5v410h200v-390q0 -46 12 -60.5t48 -10.5v-134q-69 -16 -108.5 0.5t-67.5 74.5h-30q-13 -36 -38.5 -63t-71.5 -27q-30 0 -50 10t-34 30v-10z" />
    <glyph glyph-name="nu" unicode="&#x3bd;" 
d="M452 0h-205l-223 600h200l147 -423q46 101 72.5 217t33.5 206h198q-19 -169 -80 -320t-143 -280z" />
    <glyph glyph-name="xi" unicode="&#x3be;" 
d="M640 -7q0 -96 -62.5 -144.5t-187.5 -48.5h-120v130h115q37 0 58.5 10.5t21.5 44.5q0 36 -21.5 48t-58.5 12h-75q-113 0 -176.5 48t-63.5 134v17q0 57 44 100.5t133 50.5v23q-57 0 -87 28.5t-30 65.5q0 42 32 69.5t90 34.5v23q-94 -4 -155.5 35.5t-94.5 113.5l99 69
q52 -78 115.5 -100.5t169.5 0.5l211 75l24 -176l-220 -28l-29 -16q-21 -12 -31.5 -33.5t-10.5 -52.5t14 -43.5t35 -12.5h171v-130h-179q-54 0 -77.5 -23.5t-23.5 -57.5v-17q0 -30 24 -48.5t76 -18.5h44q113 0 169.5 -45.5t56.5 -136.5z" />
    <glyph glyph-name="omicron" unicode="&#x3bf;" 
d="M60 0zM350 -10q-136 0 -213 60t-77 167v162q0 108 77 169.5t214 61.5q136 0 212.5 -63t76.5 -173v-162q0 -104 -77 -163t-213 -59zM350 130q48 0 69 23t21 74v143q0 53 -21 76.5t-69 23.5t-69 -23.5t-21 -74.5v-140q0 -54 21 -78t69 -24z" />
    <glyph glyph-name="omicrontonos" unicode="&#x3cc;" 
d="M60 0zM256 700l46 200h240l-165 -200h-121zM350 -10q-136 0 -213 60t-77 167v162q0 108 77 169.5t214 61.5q136 0 212.5 -63t76.5 -173v-162q0 -104 -77 -163t-213 -59zM350 130q48 0 69 23t21 74v143q0 53 -21 76.5t-69 23.5t-69 -23.5t-21 -74.5v-140q0 -54 21 -78
t69 -24z" />
    <glyph glyph-name="pi" unicode="&#x3c0;" 
d="M650 600v-140h-80v-250q0 -46 22 -62t78 -9v-134q-136 -27 -208 17.5t-72 155.5v282h-130v-460h-180v460h-70v140h640z" />
    <glyph glyph-name="rho" unicode="&#x3c1;" 
d="M370 140q34 0 52 23t18 66v151q0 48 -22 67.5t-64 19.5q-46 0 -70 -19.5t-24 -67.5v-190q30 -25 58 -37.5t52 -12.5zM60 -200v581q0 111 71.5 168t211.5 57q147 0 222 -57t75 -168v-181q0 -95 -54.5 -152.5t-144.5 -57.5q-60 0 -99.5 31.5t-51.5 88.5h-30v-310h-200z" />
    <glyph glyph-name="sigma1" unicode="&#x3c2;" 
d="M250 -200v140h135q32 0 51 9.5t19 40.5q0 33 -19 44t-51 11h-88q-111 0 -174 63t-63 174v95q0 110 78 171.5t215 61.5q135 0 199 -59.5t79 -166.5l-193 -16q-5 58 -24 79.5t-67 21.5q-50 0 -68.5 -24t-18.5 -82v-71q0 -58 19 -82.5t70 -24.5h95q93 0 144.5 -49t51.5 -136
q0 -94 -74 -147t-206 -53h-110z" />
    <glyph glyph-name="sigma" unicode="&#x3c3;" 
d="M330 130q40 0 55 21.5t15 70.5v163q0 41 -15 63t-55 22q-39 0 -54.5 -22.5t-15.5 -65.5v-160q0 -49 15.5 -70.5t54.5 -21.5zM330 -10q-126 0 -198 60.5t-72 166.5v162q0 103 72.5 162t198.5 59h369v-150l-136 8q18 -26 27 -59t9 -70v-112q0 -106 -72 -166.5t-198 -60.5z
" />
    <glyph glyph-name="tau" unicode="&#x3c4;" 
d="M570 5q-152 -31 -236 14.5t-84 158.5v272h-200v150h610v-150h-210v-240q0 -48 26.5 -63.5t93.5 -7.5v-134z" />
    <glyph glyph-name="upsilon" unicode="&#x3c5;" 
d="M351 -10q-137 0 -214 69t-77 192v349h200v-342q0 -62 21.5 -90t68.5 -28t68.5 27.5t21.5 87.5v345h200v-349q0 -123 -76 -192t-213 -69z" />
    <glyph glyph-name="upsilondieresistonos" unicode="&#x3b0;" 
d="M37 0zM351 -10q-137 0 -214 69t-77 192v349h200v-342q0 -62 21.5 -90t68.5 -28t68.5 27.5t21.5 87.5v345h200v-349q0 -123 -76 -192t-213 -69zM261 700l46 200h170l-105 -200h-111zM125 690q-39 0 -63.5 17t-24.5 59v15q0 43 24.5 61t63.5 18q40 0 64 -18t24 -61v-15
q0 -42 -25 -59t-63 -17zM575 690q-39 0 -63.5 17t-24.5 59v15q0 43 24.5 61t63.5 18q40 0 64 -18t24 -61v-15q0 -42 -25 -59t-63 -17z" />
    <glyph glyph-name="upsilondieresis" unicode="&#x3cb;" 
d="M60 0zM351 -10q-137 0 -214 69t-77 192v349h200v-342q0 -62 21.5 -90t68.5 -28t68.5 27.5t21.5 87.5v345h200v-349q0 -123 -76 -192t-213 -69zM220 690q-43 0 -70.5 17t-27.5 59v15q0 43 27.5 61t70.5 18q44 0 71 -18t27 -61v-15q0 -42 -27.5 -59t-70.5 -17zM480 690
q-43 0 -70.5 17t-27.5 59v15q0 43 27.5 61t70.5 18q44 0 71 -18t27 -61v-15q0 -42 -27.5 -59t-70.5 -17z" />
    <glyph glyph-name="upsilontonos" unicode="&#x3cd;" 
d="M60 0zM351 -10q-137 0 -214 69t-77 192v349h200v-342q0 -62 21.5 -90t68.5 -28t68.5 27.5t21.5 87.5v345h200v-349q0 -123 -76 -192t-213 -69zM246 700l46 200h240l-165 -200h-121z" />
    <glyph glyph-name="phi" unicode="&#x3c6;" 
d="M430 -200h-160v198q-110 22 -171.5 108.5t-61.5 220.5v42q0 73 9 135.5t33 102.5l157 -32q-18 -35 -27.5 -89t-9.5 -117v-42q0 -89 20.5 -133.5t70.5 -57.5v464h94q130 0 204.5 -77.5t74.5 -213.5v-32q0 -114 -61.5 -187.5t-171.5 -92.5v-197zM410 460v-326q61 8 86 41
t25 102v32q0 78 -28.5 114.5t-82.5 36.5z" />
    <glyph glyph-name="chi" unicode="&#x3c7;" 
d="M441 -200l-102 211l-106 -211h-197l213 396l-196 404h199l105 -216l110 216h197l-217 -400l195 -400h-201z" />
    <glyph glyph-name="psi" unicode="&#x3c8;" 
d="M430 -200h-160v185q-115 17 -174 85.5t-59 186.5v343h163v-313q0 -68 18.5 -106.5t61.5 -51.5v471h140v-471q43 13 61.5 51.5t18.5 106.5v313h163v-343q0 -118 -59 -186.5t-174 -85.5v-185z" />
    <glyph glyph-name="omega" unicode="&#x3c9;" 
d="M185 -10q-66 0 -107 68t-41 199v132q0 69 9.5 120.5t32.5 107.5l158 -32q-20 -72 -28.5 -116.5t-8.5 -79.5v-132q0 -58 9.5 -87.5t25.5 -29.5q23 0 34 18t11 59v223h140v-223q0 -41 11.5 -59t33.5 -18q18 0 26.5 29.5t8.5 87.5v132q0 35 -8.5 79.5t-28.5 116.5l158 32
q23 -56 32.5 -107.5t9.5 -120.5v-132q0 -131 -41.5 -199t-113.5 -68q-48 0 -87 28.5t-58 106.5h-30q-11 -78 -54 -106.5t-94 -28.5z" />
    <glyph glyph-name="omegatonos" unicode="&#x3ce;" 
d="M37 0zM261 700l46 200h240l-165 -200h-121zM185 -10q-66 0 -107 68t-41 199v132q0 69 9.5 120.5t32.5 107.5l158 -32q-20 -72 -28.5 -116.5t-8.5 -79.5v-132q0 -58 9.5 -87.5t25.5 -29.5q23 0 34 18t11 59v223h140v-223q0 -41 11.5 -59t33.5 -18q18 0 26.5 29.5t8.5 87.5
v132q0 35 -8.5 79.5t-28.5 116.5l158 32q23 -56 32.5 -107.5t9.5 -120.5v-132q0 -131 -41.5 -199t-113.5 -68q-48 0 -87 28.5t-58 106.5h-30q-11 -78 -54 -106.5t-94 -28.5z" />
    <glyph glyph-name="acyrillic" unicode="&#x430;" 
d="M40 0zM283 110q31 0 60 8t57 21v98h-120q-31 0 -45.5 -13.5t-14.5 -54.5q0 -29 15 -44t48 -15zM230 -10q-87 0 -138.5 47t-51.5 128q0 85 60 128.5t165 43.5h135v68q0 42 -22 56.5t-65 14.5q-45 0 -66.5 -17.5t-30.5 -64.5l-161 25q22 107 80.5 149t184.5 42
q137 0 203.5 -50.5t66.5 -153.5v-216q0 -39 23.5 -47.5t66.5 -3.5v-134q-84 -20 -135 1t-71 84h-30q-32 -40 -88.5 -70t-125.5 -30z" />
    <glyph glyph-name="becyrillic" unicode="&#x431;" 
d="M350 -10q-143 0 -216.5 67.5t-73.5 198.5v175q0 175 69.5 263t218.5 101l239 21l15 -155l-223 -21q-64 -7 -94.5 -40t-32.5 -99l-2 -65h23q26 51 67.5 77.5t105.5 26.5q82 0 138 -54t56 -144v-112q0 -118 -73.5 -179t-216.5 -61zM349 130q49 0 69 22t20 66v103
q0 40 -20 59t-69 19t-69 -19t-20 -59v-103q0 -44 20 -66t69 -22z" />
    <glyph glyph-name="vecyrillic" unicode="&#x432;" 
d="M60 0v600h295q132 0 208.5 -33.5t76.5 -111.5v-24q0 -51 -37 -81t-101 -34v-22q78 -5 117 -40.5t39 -83.5v-20q0 -72 -67.5 -111t-235.5 -39h-295zM250 359h113q47 0 67 11t20 44v14q0 30 -18.5 42.5t-66.5 12.5h-115v-124zM250 127h115q58 0 80.5 17t22.5 46v10
q0 29 -21 44t-84 15h-113v-132z" />
    <glyph glyph-name="gecyrillic" unicode="&#x433;" 
d="M100 0v600h520v-150h-320v-450h-200z" />
    <glyph glyph-name="gjecyrillic" unicode="&#x453;" 
d="M100 0zM221 700l106 200h250l-225 -200h-131zM100 0v600h520v-150h-320v-450h-200z" />
    <glyph glyph-name="decyrillic" unicode="&#x434;" 
d="M259 172v-22h161v300h-117l-3 -145q-1 -44 -12 -75t-29 -58zM200 0v-150h-180v300h64q19 14 28.5 48.5t10.5 109.5l6 292h471v-450h80v-300h-180v150h-300z" />
    <glyph glyph-name="iecyrillic" unicode="&#x435;" 
d="M60 0zM654 142q-40 -87 -104 -119.5t-196 -32.5q-124 0 -209 57t-85 173v159q0 108 77 169.5t214 61.5q136 0 212.5 -61.5t76.5 -171.5v-117h-380v-54q0 -42 22.5 -66.5t77.5 -24.5q43 0 74.5 13.5t55.5 56.5zM260 399v-39h180v30q0 56 -18 78t-72 22t-72 -20.5
t-18 -70.5z" />
    <glyph glyph-name="iegravecyrillic" unicode="&#x450;" 
d="M60 0zM654 142q-40 -87 -104 -119.5t-196 -32.5q-124 0 -209 57t-85 173v159q0 108 77 169.5t214 61.5q136 0 212.5 -61.5t76.5 -171.5v-117h-380v-54q0 -42 22.5 -66.5t77.5 -24.5q43 0 74.5 13.5t55.5 56.5zM260 399v-39h180v30q0 56 -18 78t-72 22t-72 -20.5
t-18 -70.5zM336 700l-225 200h250l106 -200h-131z" />
    <glyph glyph-name="iocyrillic" unicode="&#x451;" 
d="M60 0zM654 142q-40 -87 -104 -119.5t-196 -32.5q-124 0 -209 57t-85 173v159q0 108 77 169.5t214 61.5q136 0 212.5 -61.5t76.5 -171.5v-117h-380v-54q0 -42 22.5 -66.5t77.5 -24.5q43 0 74.5 13.5t55.5 56.5zM260 399v-39h180v30q0 56 -18 78t-72 22t-72 -20.5
t-18 -70.5zM220 690q-43 0 -70.5 17t-27.5 59v15q0 43 27.5 61t70.5 18q44 0 71 -18t27 -61v-15q0 -42 -27.5 -59t-70.5 -17zM480 690q-43 0 -70.5 17t-27.5 59v15q0 43 27.5 61t70.5 18q44 0 71 -18t27 -61v-15q0 -42 -27.5 -59t-70.5 -17z" />
    <glyph glyph-name="zhecyrillic" unicode="&#x436;" 
d="M235 250l-78 -250h-157l129 334l-132 266h160l94 -230h29v230h140v-230h24l91 230h165l-130 -265l130 -335h-162l-78 250h-40v-250h-140v250h-45z" />
    <glyph glyph-name="zecyrillic" unicode="&#x437;" 
d="M355 -10q-144 0 -215.5 51t-79.5 161l179 7q8 -60 32 -81t84 -21q66 0 84.5 21t18.5 57v10q0 31 -17.5 47.5t-87.5 16.5h-46v100h46q47 0 67 12.5t20 49.5v14q0 31 -18.5 44.5t-66.5 13.5q-51 0 -71.5 -19t-26.5 -72l-179 8q8 104 75 152t202 48q147 0 216 -38.5
t69 -121.5v-24q0 -49 -37 -77.5t-101 -32.5v-22q78 -5 117 -39t39 -80v-20q0 -85 -73 -125t-230 -40z" />
    <glyph glyph-name="iicyrillic" unicode="&#x438;" 
d="M470 0v372l-207 -372h-203v600h170v-401l223 401h187v-600h-170z" />
    <glyph glyph-name="iishortcyrillic" unicode="&#x439;" 
d="M60 0zM470 0v372l-207 -372h-203v600h170v-401l223 401h187v-600h-170zM350 693q-105 0 -184.5 51.5t-77.5 178.5l170 10q-1 -65 18.5 -93t73.5 -28t73.5 28t18.5 93l170 -10q2 -127 -77.5 -178.5t-184.5 -51.5z" />
    <glyph glyph-name="igravecyrillic" unicode="&#x45d;" 
d="M60 0zM351 700l-225 200h250l106 -200h-131zM470 0v372l-207 -372h-203v600h170v-401l223 401h187v-600h-170z" />
    <glyph glyph-name="kacyrillic" unicode="&#x43a;" 
d="M270 245v-245h-200v600h200v-225h37l153 225h205l-192 -270l189 -330h-212l-143 245h-37z" />
    <glyph glyph-name="kjecyrillic" unicode="&#x45c;" 
d="M70 0zM279 700l106 200h250l-225 -200h-131zM270 245v-245h-200v600h200v-225h37l153 225h205l-192 -270l189 -330h-212l-143 245h-37z" />
    <glyph glyph-name="elcyrillic" unicode="&#x43b;" 
d="M450 0v460h-135l-2 -233q-1 -122 -51.5 -181.5t-153.5 -59.5q-25 0 -52 5.5t-55 12.5l20 141q13 -3 25.5 -6t23.5 -3q24 0 39 20.5t16 82.5l4 361h521v-600h-200z" />
    <glyph glyph-name="emcyrillic" unicode="&#x43c;" 
d="M288 150l-90 187l22 -337h-170v600h185l118 -286l117 286h180v-600h-170l21 335l-87 -185h-126z" />
    <glyph glyph-name="encyrillic" unicode="&#x43d;" 
d="M60 0v600h200v-200h180v200h200v-600h-200v250h-180v-250h-200z" />
    <glyph glyph-name="ocyrillic" unicode="&#x43e;" 
d="M60 0zM350 -10q-136 0 -213 60t-77 167v162q0 108 77 169.5t214 61.5q136 0 212.5 -63t76.5 -173v-162q0 -104 -77 -163t-213 -59zM350 130q48 0 69 23t21 74v143q0 53 -21 76.5t-69 23.5t-69 -23.5t-21 -74.5v-140q0 -54 21 -78t69 -24z" />
    <glyph glyph-name="pecyrillic" unicode="&#x43f;" 
d="M60 0v600h580v-600h-200v450h-180v-450h-200z" />
    <glyph glyph-name="ercyrillic" unicode="&#x440;" 
d="M60 0zM354 133q42 0 64 20t22 67v151q0 46 -19.5 67.5t-50.5 21.5q-28 0 -54.5 -12.5t-55.5 -37.5v-251q25 -13 45.5 -19.5t48.5 -6.5zM392 -6q-34 0 -69 6t-63 17v-217h-200v800h200v-110h30q22 55 70.5 87.5t110.5 32.5q78 0 123.5 -54t45.5 -146v-191
q0 -104 -67 -164.5t-181 -60.5z" />
    <glyph glyph-name="escyrillic" unicode="&#x441;" 
d="M60 0zM359 -10q-145 0 -222 61t-77 176v150q0 111 77.5 172t220.5 61q138 0 203 -59.5t80 -166.5l-193 -16q-5 57 -26 79t-70 22q-51 0 -71.5 -23.5t-20.5 -82.5v-126q0 -60 21 -83.5t73 -23.5q49 0 69.5 18t24.5 64l193 -16q-7 -99 -66 -152.5t-216 -53.5z" />
    <glyph glyph-name="tecyrillic" unicode="&#x442;" 
d="M250 0v450h-200v150h600v-150h-200v-450h-200z" />
    <glyph glyph-name="ucyrillic" unicode="&#x443;" 
d="M24 0zM195 -212q-34 0 -73 3t-85 9l10 140q43 -7 76.5 -11.5t58.5 -4.5q58 0 84.5 22t45.5 88l2 6h-127l-163 560h203l121 -444l132 444h195l-185 -584q-40 -128 -105 -178t-190 -50z" />
    <glyph glyph-name="ushortcyrillic" unicode="&#x45e;" 
d="M24 0zM195 -212q-34 0 -73 3t-85 9l10 140q43 -7 76.5 -11.5t58.5 -4.5q58 0 84.5 22t45.5 88l2 6h-127l-163 560h203l121 -444l132 444h195l-185 -584q-40 -128 -105 -178t-190 -50zM350 693q-105 0 -184.5 51.5t-77.5 178.5l170 10q-1 -65 18.5 -93t73.5 -28t73.5 28
t18.5 93l170 -10q2 -127 -77.5 -178.5t-184.5 -51.5z" />
    <glyph glyph-name="efcyrillic" unicode="&#x444;" 
d="M447 0h-17v-200h-160v200h-17q-101 0 -158.5 53t-57.5 147v203q0 93 57.5 145t158.5 52h17v200h160v-200h17q101 0 158.5 -52.5t57.5 -145.5v-203q0 -93 -57.5 -146t-158.5 -53zM264 118h21v362h-21q-25 0 -47 -17t-22 -65v-197q0 -49 22 -66t47 -17zM436 480h-21v-362
h21q26 0 47.5 17t21.5 66v197q0 48 -21.5 65t-47.5 17z" />
    <glyph glyph-name="khacyrillic" unicode="&#x445;" 
d="M36 0zM461 0l-120 177l-108 -177h-197l217 306l-200 294h199l105 -154l90 154h197l-196 -287l214 -313h-201z" />
    <glyph glyph-name="tsecyrillic" unicode="&#x446;" 
d="M505 -150v150h-445v600h200v-450h165v450h200v-450h70v-300h-190z" />
    <glyph glyph-name="checyrillic" unicode="&#x447;" 
d="M630 600v-600h-200v176q-22 -7 -48 -11.5t-68 -4.5q-130 0 -197 64t-67 187v189h200v-187q0 -59 24.5 -82t65.5 -23q27 0 49 4.5t41 11.5v276h200z" />
    <glyph glyph-name="shacyrillic" unicode="&#x448;" 
d="M37 0v600h158v-460h77v460h156v-460h77v460h158v-600h-626z" />
    <glyph glyph-name="shchacyrillic" unicode="&#x449;" 
d="M700 -150h-158v150h-505v600h158v-460h77v460h156v-460h77v460h158v-460h37v-290z" />
    <glyph glyph-name="hardsigncyrillic" unicode="&#x44a;" 
d="M432 0h-282v450h-150v150h350v-162h83q116 0 181.5 -52t65.5 -145v-50q0 -90 -66 -140.5t-182 -50.5zM350 140h50q40 0 60 15.5t20 50.5v33q0 35 -20 48t-60 13h-50v-160z" />
    <glyph glyph-name="yericyrillic" unicode="&#x44b;" 
d="M37 0v600h163v-142h23q102 0 159 -44t57 -123v-110q0 -86 -57 -133.5t-160 -47.5h-185zM500 0v600h163v-600h-163zM200 130h20q36 0 54 15t18 56v63q0 39 -18 52.5t-54 13.5h-20v-200z" />
    <glyph glyph-name="softsigncyrillic" unicode="&#x44c;" 
d="M50 0v600h200v-162h133q127 0 197 -52t70 -145v-50q0 -91 -70 -141t-198 -50h-332zM250 140h100q50 0 75 13t25 48v33q0 35 -25 50.5t-75 15.5h-100v-160z" />
    <glyph glyph-name="ereversedcyrillic" unicode="&#x44d;" 
d="M336 -10q-143 0 -211.5 48t-75.5 153l193 16q4 -52 22 -72t77 -20q57 0 78 24.5t21 82.5v33h-157v110h157v18q0 55 -20.5 78t-76.5 23q-53 0 -75 -16t-26 -60l-193 16q13 97 82 141.5t206 44.5q138 0 220.5 -58t82.5 -175v-150q0 -115 -78.5 -176t-225.5 -61z" />
    <glyph glyph-name="iucyrillic" unicode="&#x44e;" 
d="M465 -10q-96 0 -145.5 52t-49.5 145v73h-71v-260h-162v600h162v-210h71v19q0 94 50 147.5t146 53.5q97 0 147 -53.5t50 -147.5v-222q0 -93 -50 -145t-148 -52zM465 120q22 0 28.5 18t6.5 49v222q0 32 -6.5 51.5t-28.5 19.5t-28.5 -19.5t-6.5 -51.5v-222q0 -31 6.5 -49
t28.5 -18z" />
    <glyph glyph-name="iacyrillic" unicode="&#x44f;" 
d="M340 310h100v160h-100q-28 0 -44 -12.5t-16 -56.5v-22q0 -46 16 -57.5t44 -11.5zM440 180h-60l-117 -180h-212l132 200q-50 22 -76.5 67t-26.5 110v32q0 91 55 141t154 50h351v-600h-200v180z" />
    <glyph glyph-name="djecyrillic" unicode="&#x452;" 
d="M388 -210q-34 0 -69 6.5t-68 16.5l20 126q26 -8 49 -13.5t42 -5.5q37 0 57.5 22t20.5 73v289q0 42 -15.5 64t-43.5 22q-31 0 -62 -23.5t-59 -62.5v-304h-200v600h-100v100h100v100h200v-100h160v-100h-160v-180h30q25 57 72.5 88.5t110.5 31.5q72 0 119.5 -47.5
t47.5 -133.5v-361q0 -110 -77 -159t-175 -49z" />
    <glyph glyph-name="ecyrillic" unicode="&#x454;" 
d="M651 191q-9 -105 -77.5 -153t-209.5 -48q-147 0 -225.5 61t-78.5 176v150q0 117 82.5 175t220.5 58q137 0 206 -44.5t82 -141.5l-193 -16q-4 44 -26 60t-75 16q-56 0 -76.5 -23t-20.5 -78v-23h180v-100h-180v-38q0 -58 21 -82.5t78 -24.5q59 0 77 20t22 72z" />
    <glyph glyph-name="dzecyrillic" unicode="&#x455;" 
d="M60 0zM351 -6q-78 0 -156.5 20.5t-134.5 56.5l45 119q60 -37 128.5 -55.5t122.5 -18.5q44 0 62 13.5t18 40.5q0 31 -21 45.5t-70 19.5q-128 13 -196.5 50t-68.5 125q0 92 70.5 146t192.5 54q61 0 129.5 -17.5t122.5 -48.5l-35 -112q-57 29 -110 42.5t-99 13.5
q-38 0 -55 -13.5t-17 -38.5q0 -32 30.5 -44t94.5 -20q119 -15 175 -56.5t56 -122.5q0 -92 -73 -145.5t-211 -53.5z" />
    <glyph glyph-name="icyrillic" unicode="&#x456;" 
d="M70 0zM361 690q-57 0 -92.5 17t-35.5 59v15q0 43 35.5 61t92.5 18t92.5 -18t35.5 -61v-15q0 -42 -36 -59t-92 -17zM70 0v140h180v320h-180v140h380v-460h180v-140h-560z" />
    <glyph glyph-name="yicyrillic" unicode="&#x457;" 
d="M70 0zM70 0v140h180v320h-180v140h380v-460h180v-140h-560zM220 690q-43 0 -70.5 17t-27.5 59v15q0 43 27.5 61t70.5 18q44 0 71 -18t27 -61v-15q0 -42 -27.5 -59t-70.5 -17zM480 690q-43 0 -70.5 17t-27.5 59v15q0 43 27.5 61t70.5 18q44 0 71 -18t27 -61v-15
q0 -42 -27.5 -59t-70.5 -17z" />
    <glyph glyph-name="jecyrillic" unicode="&#x458;" 
d="M51 0zM238 -210q-47 0 -95 4.5t-92 18.5l20 126q40 -12 75 -15.5t66 -3.5q60 0 94 22t34 73v445h-249v140h449v-602q0 -97 -80.5 -152.5t-221.5 -55.5zM430 690q-57 0 -92.5 17t-35.5 59v15q0 43 35.5 61t92.5 18t92.5 -18t35.5 -61v-15q0 -42 -36 -59t-92 -17z" />
    <glyph glyph-name="ljecyrillic" unicode="&#x459;" 
d="M213 480l-2 -346q-1 -66 -40.5 -102.5t-112.5 -36.5q-18 0 -36.5 2.5t-37.5 6.5l20 131l12 -2t12 -1q14 0 24 9.5t11 40.5l4 418h371v-162h58q80 0 123.5 -43.5t43.5 -123.5v-80q0 -92 -43.5 -141.5t-124.5 -49.5h-207v480h-75zM438 120h25q27 0 38.5 18.5t11.5 62.5v53
q0 36 -11.5 51t-38.5 15h-25v-200z" />
    <glyph glyph-name="njecyrillic" unicode="&#x45a;" 
d="M438 120h25q28 0 39 16t11 55v83q0 36 -11 51t-39 15h-25v-220zM188 280v-280h-150v600h150v-190h100v190h150v-142h58q80 0 123.5 -41t43.5 -116v-130q0 -81 -44 -126t-124 -45h-207v280h-100z" />
    <glyph glyph-name="tshecyrillic" unicode="&#x45b;" 
d="M0 0zM260 304v-304h-200v600h-100v100h100v100h200v-100h160v-100h-160v-180h30q24 56 73 88t110 32q73 0 120 -51t47 -130v-359h-200v304q0 42 -15.5 64t-43.5 22q-31 0 -62 -23.5t-59 -62.5z" />
    <glyph glyph-name="dzhecyrillic" unicode="&#x45f;" 
d="M255 -150v150h-195v600h200v-450h180v450h200v-600h-195v-150h-190z" />
    <glyph glyph-name="gheupturncyrillic" unicode="&#x491;" 
d="M100 0v600h330v150h190v-300h-320v-450h-200z" />
    <glyph glyph-name="nsuperior" unicode="&#x207f;" 
d="M100 300v500h170v-90h30q10 24 25.5 42.5t35.5 31.5t44 19.5t51 6.5q34 0 61 -14t45 -42q19 -27 28.5 -66t9.5 -89v-299h-170v294q0 21 -3.5 37t-9.5 27t-15 16.5t-21 5.5q-14 0 -27.5 -6t-27.5 -18q-14 -11 -28 -26.5t-28 -35.5v-294h-170z" />
    <glyph glyph-name="gravecmb" unicode="&#x300;" horiz-adv-x="0" 
d="M-19 700l-225 200h250l106 -200h-131z" />
    <glyph glyph-name="acutecmb" unicode="&#x301;" horiz-adv-x="0" 
d="M-134 700l106 200h250l-225 -200h-131z" />
    <glyph glyph-name="circumflexcmb" unicode="&#x302;" horiz-adv-x="0" 
d="M-199 684l-62 84l184 159h152l186 -159l-61 -83l-201 105z" />
    <glyph glyph-name="tildecmb" unicode="&#x303;" horiz-adv-x="0" 
d="M96 710q-49 0 -75 15t-42 32q-16 18 -30 32.5t-33 14.5q-16 0 -29 -14.5t-12 -60.5v-9h-127v15q0 83 42 139t116 56q48 0 74 -15t43 -32q17 -18 31 -33t31 -15q16 0 29 14.5t12 60.5v9h127v-15q0 -82 -42 -138t-115 -56z" />
    <glyph glyph-name="macroncmb" unicode="&#x304;" horiz-adv-x="0" 
d="M-225 725v150h450v-150h-450z" />
    <glyph glyph-name="brevecmb" unicode="&#x306;" horiz-adv-x="0" 
d="M0 693q-135 0 -200.5 59t-66.5 181h160q1 -68 25 -94.5t82 -26.5t82 26.5t25 94.5h160q-1 -122 -66.5 -181t-200.5 -59z" />
    <glyph glyph-name="dotaccentcmb" unicode="&#x307;" horiz-adv-x="0" 
d="M0 690q-57 0 -92.5 17t-35.5 59v15q0 43 35.5 61t92.5 18t92.5 -18t35.5 -61v-15q0 -42 -36 -59t-92 -17z" />
    <glyph glyph-name="dieresiscmb" unicode="&#x308;" horiz-adv-x="0" 
d="M-130 690q-43 0 -70.5 17t-27.5 59v15q0 43 27.5 61t70.5 18q44 0 71 -18t27 -61v-15q0 -42 -27.5 -59t-70.5 -17zM130 690q-43 0 -70.5 17t-27.5 59v15q0 43 27.5 61t70.5 18q44 0 71 -18t27 -61v-15q0 -42 -27.5 -59t-70.5 -17z" />
    <glyph glyph-name="ringcmb" unicode="&#x30a;" horiz-adv-x="0" 
d="M0 675q-94 0 -152 38t-58 117v32q0 80 58 119t152 39q95 0 152.5 -39t57.5 -119v-32q0 -79 -58 -117t-152 -38zM0 766q35 0 53.5 14.5t18.5 49.5v32q0 34 -18.5 50.5t-53.5 16.5q-36 0 -54 -16.5t-18 -50.5v-32q0 -35 18 -49.5t54 -14.5z" />
    <glyph glyph-name="hungarumlautcmb" unicode="&#x30b;" horiz-adv-x="0" 
d="M36 700l46 200h190l-135 -200h-101zM-194 700l46 200h190l-135 -200h-101z" />
    <glyph glyph-name="caroncmb" unicode="&#x30c;" horiz-adv-x="0" 
d="M-75 704l-186 159l61 83l201 -105l198 106l62 -84l-184 -159h-152z" />
    <glyph glyph-name="commaturnedabovecmb" unicode="&#x312;" horiz-adv-x="0" 
d="M-154 700l185 200h131l-66 -200h-250z" />
    <glyph glyph-name="commaaccentcmb" unicode="&#x326;" horiz-adv-x="0" 
d="M-164 -300l66 200h250l-185 -200h-131z" />
    <glyph glyph-name="cedillacmb" unicode="&#x327;" horiz-adv-x="0" 
d="M-30 0l20 42q86 -8 140 -35.5t54 -94.5q0 -75 -67 -106.5t-149 -31.5q-96 0 -157 31.5t-66 104.5l168 10q2 -19 12.5 -26.5t34.5 -7.5q27 0 40.5 10.5t13.5 44.5q0 25 -9 38.5t-35 20.5z" />
    <glyph glyph-name="ogonekcmb" unicode="&#x328;" horiz-adv-x="0" 
d="M16 -224q-84 0 -132.5 32t-48.5 96q0 66 51 111.5t111 61.5l27 -54q-34 -21 -41.5 -40t-7.5 -36q0 -26 17.5 -38.5t57.5 -12.5q18 0 42 2.5t53 7.5v-116q-36 -7 -68.5 -10.5t-60.5 -3.5z" />
    <glyph glyph-name="zero" unicode="0" 
d="M350 -10q-144 0 -222 85t-78 242v162q0 158 78.5 244.5t222.5 86.5q143 0 221 -86.5t78 -244.5v-162q0 -157 -78 -242t-222 -85zM350 130q66 0 93 46t27 161v122q0 117 -27 164t-93 47t-93 -47t-27 -164v-122q0 -115 27 -161t93 -46zM350 312q-32 0 -52 11t-20 42v69
q0 30 20 41.5t52 11.5t51.5 -11.5t19.5 -41.5v-69q0 -31 -20 -42t-51 -11z" />
    <glyph glyph-name="one" unicode="1" 
d="M80 0v150h200v470h-29q-16 -66 -67 -106t-114 -44l-10 148q78 8 139.5 58t83.5 124h197v-650h170v-150h-570z" />
    <glyph glyph-name="two" unicode="2" 
d="M50 0v165q0 97 40 149t149 98l96 40q54 22 79.5 39t25.5 67v16q0 54 -23 75t-67 21q-45 0 -65 -23.5t-25 -97.5l-200 10q8 133 75.5 192t213.5 59q153 0 222 -61.5t69 -175.5v-40q0 -91 -53.5 -136.5t-131.5 -77.5l-97 -40q-75 -31 -91.5 -48.5t-16.5 -63.5v-17h400v-150
h-600z" />
    <glyph glyph-name="three" unicode="3" 
d="M353 -10q-157 0 -231.5 60.5t-81.5 181.5l200 10q7 -71 31.5 -87.5t86.5 -16.5q49 0 70.5 21t21.5 65v27q0 50 -25.5 71.5t-74.5 21.5h-110v147h110q45 0 62.5 13.5t17.5 51.5v32q0 39 -20 56.5t-63 17.5q-41 0 -61 -18.5t-26 -65.5l-200 10q7 119 72 170.5t208 51.5
q153 0 221.5 -47.5t68.5 -153.5v-18q0 -69 -43 -108t-104 -47v-29q63 -5 115 -49t52 -122v-17q0 -130 -79 -179.5t-218 -49.5z" />
    <glyph glyph-name="four" unicode="4" 
d="M210 335h170v263zM700 195h-120v-195h-200v195h-340v140l295 465h245v-465h120v-140z" />
    <glyph glyph-name="five" unicode="5" 
d="M349 -10q-160 0 -231 58t-78 203l200 10q9 -81 32.5 -106t77.5 -25q62 0 81 27t19 89v28q0 55 -23.5 80.5t-103.5 25.5h-253v420h550v-140h-350v-131h125q126 0 190.5 -54.5t64.5 -165.5v-93q0 -96 -70.5 -161t-230.5 -65z" />
    <glyph glyph-name="six" unicode="6" 
d="M350 -10q-151 0 -225.5 70.5t-74.5 215.5v241q0 149 74.5 221t227.5 72q132 0 198.5 -49t90.5 -165l-209 -23q-13 61 -31.5 79t-65.5 18q-46 0 -65.5 -35t-19.5 -119v-83h10q25 28 64.5 47.5t111.5 19.5q102 0 158 -59t56 -179v-22q0 -126 -74.5 -188t-225.5 -62z
M349 130q57 0 78 31.5t21 80.5v13q0 57 -21 90.5t-78 33.5t-78 -33.5t-21 -90.5v-13q0 -57 21 -84.5t78 -27.5z" />
    <glyph glyph-name="seven" unicode="7" 
d="M200 0q46 224 94.5 357t155.5 293h-400v150h600v-150q-104 -175 -153 -317.5t-77 -332.5h-220z" />
    <glyph glyph-name="eight" unicode="8" 
d="M350 -10q-151 0 -225.5 53.5t-74.5 163.5v22q0 75 44.5 123t122.5 55v29q-63 6 -105 45.5t-42 104.5v32q0 97 69.5 144.5t210.5 47.5t210.5 -47.5t69.5 -144.5v-32q0 -65 -42 -104.5t-105 -45.5v-29q78 -7 122.5 -55.5t44.5 -122.5v-22q0 -110 -74.5 -163.5t-225.5 -53.5
zM350 490q39 0 59.5 16.5t20.5 59.5v22q0 42 -20.5 58t-59.5 16t-59.5 -16t-20.5 -58v-22q0 -43 20.5 -59.5t59.5 -16.5zM350 138q62 0 81 26.5t19 72.5v12q0 46 -19 73.5t-81 27.5t-81 -27.5t-19 -73.5v-12q0 -46 19 -72.5t81 -26.5z" />
    <glyph glyph-name="nine" unicode="9" 
d="M351 421q57 0 78 33.5t21 90.5v13q0 57 -21 84.5t-78 27.5t-78 -31.5t-21 -80.5v-13q0 -57 21 -90.5t78 -33.5zM348 -10q-130 0 -197.5 50.5t-91.5 163.5l209 23q13 -61 31.5 -79t65.5 -18q48 0 66.5 35t18.5 119v83h-10q-25 -29 -64.5 -48t-111.5 -19q-104 0 -159 59
t-55 179v22q0 126 74.5 188t225.5 62t225.5 -70.5t74.5 -215.5v-241q0 -149 -74.5 -221t-227.5 -72z" />
    <glyph glyph-name="onequarter" unicode="&#xbc;" 
d="M169 412v89h136v190h-21q-4 -21 -15.5 -38t-27.5 -30q-17 -12 -37 -19t-42 -9l-6 105q22 4 44.5 12t43.5 22q20 13 37 32t26 42h149v-307h124v-89h-411zM0 244v130l318 -20v-90zM396 264v90l304 20v-130zM611 -113h-93v-97h-151v97h-254v100l226 229h179v-229h93v-100z
M228 -13h139v138z" />
    <glyph glyph-name="onehalf" unicode="&#xbd;" 
d="M169 412v89h136v190h-21q-4 -21 -15.5 -38t-27.5 -30q-17 -12 -37 -19t-42 -9l-6 105q22 4 44.5 12t43.5 22q20 13 37 32t26 42h149v-307h124v-89h-411zM0 244v130l318 -20v-90zM396 264v90l304 20v-130zM119 -210v99q0 25 6.5 46t20.5 37q14 17 36.5 29t53.5 18l122 25
q21 4 32 7.5t18 7.5q8 4 11.5 11t3.5 17v4q0 10 -6 16.5t-16 9.5q-11 3 -23.5 4t-28.5 1t-28 -1.5t-22 -5.5t-16 -12.5t-7 -22.5l-151 7q2 32 15.5 55t40.5 39q27 15 69 23t99 8q58 0 100 -8t70 -23q28 -16 41.5 -39.5t13.5 -54.5v-18q0 -22 -8 -39.5t-24 -31.5
q-15 -13 -36 -22.5t-47 -14.5l-122 -25q-18 -4 -30 -7.5t-19 -7.5q-8 -4 -12 -9.5t-5 -12.5h309v-109h-461z" />
    <glyph glyph-name="threequarters" unicode="&#xbe;" 
d="M355 404q-59 0 -103.5 8.5t-74.5 24.5q-30 17 -46 42t-18 59l151 6q2 -16 8 -26t16 -16q11 -6 26.5 -8t39.5 -2q21 0 35 1.5t22 5.5q9 3 13.5 9t4.5 15v15q0 10 -5 17t-15 11t-24.5 6t-35.5 2h-112v86h112q18 0 31 1.5t21 4.5t12 8.5t4 14.5v6q0 9 -4 15t-13 9t-22.5 4
t-34.5 1t-33 -1t-19 -4t-10.5 -8.5t-4.5 -14.5l-151 6q2 28 16.5 48.5t41.5 34.5q27 13 67 20t93 7q57 0 99 -6t70 -17q27 -12 41 -29.5t14 -41.5v-8q0 -17 -7 -31t-19 -24q-13 -10 -28.5 -16.5t-33.5 -9.5v-18q17 -2 34.5 -8t32.5 -17q16 -10 25 -26t9 -36v-8
q0 -29 -14 -50t-41 -34q-28 -14 -70.5 -21t-99.5 -7zM0 244v130l318 -20v-90zM396 264v90l304 20v-130zM611 -113h-93v-97h-151v97h-254v100l226 229h179v-229h93v-100zM228 -13h139v138z" />
    <glyph glyph-name="oneeighth" unicode="&#x215b;" 
d="M169 412v89h136v190h-21q-4 -21 -15.5 -38t-27.5 -30q-17 -12 -37 -19t-42 -9l-6 105q22 4 44.5 12t43.5 22q20 13 37 32t26 42h149v-307h124v-89h-411zM0 244v130l318 -20v-90zM396 264v90l304 20v-130zM358 -214q-65 0 -109.5 8t-70.5 23q-27 15 -38.5 36.5t-11.5 50.5
v14q0 18 7 33t21 26t33.5 18t44.5 9v18q-20 2 -37 7.5t-30 14.5t-20 20.5t-7 26.5v20q0 27 14 46.5t42 31.5q28 13 68.5 19t93.5 6q54 0 94.5 -6t67.5 -18q28 -12 42 -32t14 -47v-20q0 -15 -7 -26.5t-19 -20.5q-13 -9 -30 -14.5t-37 -7.5v-18q25 -2 44.5 -9t33.5 -18t21 -26
t7 -33v-14q0 -29 -11.5 -51t-38.5 -36q-26 -15 -71 -23t-110 -8zM358 43q16 0 28 1.5t21 5.5q9 3 14 9t5 15v21q0 9 -5 15t-14 9q-9 4 -21 5.5t-28 1.5q-15 0 -27.5 -1.5t-20.5 -5.5q-9 -3 -14 -9t-5 -15v-21q0 -9 5 -15t14 -9q8 -4 20.5 -5.5t27.5 -1.5zM358 -126
q23 0 38.5 2.5t24.5 6.5q9 5 13 11t4 15v16q0 9 -4 16t-13 11q-9 5 -24.5 7.5t-38.5 2.5t-38.5 -2.5t-23.5 -7.5q-9 -4 -13 -11t-4 -16v-16q0 -9 4 -15t13 -11q8 -4 23.5 -6.5t38.5 -2.5z" />
    <glyph glyph-name="threeeighths" unicode="&#x215c;" 
d="M355 404q-58 0 -102 8.5t-75 24.5q-30 17 -46.5 42t-18.5 59l151 6q2 -16 8 -26t16 -16q11 -6 26.5 -8t39.5 -2q21 0 35 1.5t22 5.5q9 3 13.5 9t4.5 15v15q0 10 -5 17t-15 11t-24.5 6t-35.5 2h-112v86h112q18 0 31 1.5t21 4.5t12 8.5t4 14.5v6q0 9 -4 15t-13 9t-22.5 4
t-34.5 1t-33 -1t-19 -4t-10.5 -8.5t-4.5 -14.5l-151 6q2 32 18 53t44 34q28 12 66.5 17.5t89.5 5.5q52 0 92.5 -4.5t69.5 -14.5q30 -11 46 -29.5t16 -45.5v-8q0 -17 -7 -31t-19 -24q-13 -10 -28.5 -16.5t-33.5 -9.5v-18q17 -2 34.5 -8t32.5 -17q16 -10 25 -26t9 -36v-8
q0 -33 -16 -55t-46 -35q-30 -12 -70 -17t-93 -5zM0 244v130l318 -20v-90zM396 264v90l304 20v-130zM358 -214q-65 0 -109.5 8t-70.5 23q-27 15 -38.5 36.5t-11.5 50.5v14q0 18 7 33t21 26t33.5 18t44.5 9v18q-20 2 -37 7.5t-30 14.5t-20 20.5t-7 26.5v20q0 27 14 46.5
t42 31.5q28 13 68.5 19t93.5 6q54 0 94.5 -6t67.5 -18q28 -12 42 -32t14 -47v-20q0 -15 -7 -26.5t-19 -20.5q-13 -9 -30 -14.5t-37 -7.5v-18q25 -2 44.5 -9t33.5 -18t21 -26t7 -33v-14q0 -29 -11.5 -51t-38.5 -36q-26 -15 -71 -23t-110 -8zM358 43q16 0 28 1.5t21 5.5
q9 3 14 9t5 15v21q0 9 -5 15t-14 9q-9 4 -21 5.5t-28 1.5q-15 0 -27.5 -1.5t-20.5 -5.5q-9 -3 -14 -9t-5 -15v-21q0 -9 5 -15t14 -9q8 -4 20.5 -5.5t27.5 -1.5zM358 -126q23 0 38.5 2.5t24.5 6.5q9 5 13 11t4 15v16q0 9 -4 16t-13 11q-9 5 -24.5 7.5t-38.5 2.5t-38.5 -2.5
t-23.5 -7.5q-9 -4 -13 -11t-4 -16v-16q0 -9 4 -15t13 -11q8 -4 23.5 -6.5t38.5 -2.5z" />
    <glyph glyph-name="fiveeighths" unicode="&#x215d;" 
d="M355 396q-64 0 -109 7.5t-74 24.5q-28 16 -42.5 42.5t-16.5 65.5l151 6q2 -16 7.5 -26t16.5 -17q10 -7 27 -10t43 -3q24 0 38 2.5t21 7.5q7 6 9.5 14.5t2.5 22.5v12q0 11 -4 17.5t-15 11.5q-11 4 -33.5 6t-60.5 2h-185v226h433v-90h-282v-49h98q51 0 88.5 -7t62.5 -21
q24 -15 36.5 -36.5t12.5 -51.5v-34q0 -26 -12.5 -48t-39.5 -39t-70 -26.5t-103 -9.5zM0 244v130l318 -20v-90zM396 264v90l304 20v-130zM358 -214q-65 0 -109.5 8t-70.5 23q-27 15 -38.5 36.5t-11.5 50.5v14q0 18 7 33t21 26t33.5 18t44.5 9v18q-20 2 -37 8t-30 14
q-13 9 -20 21t-7 27v20q0 27 14 46t42 32q28 12 68.5 18t93.5 6q54 0 94.5 -5.5t67.5 -17.5q28 -13 42 -32.5t14 -46.5v-20q0 -15 -7 -27t-19 -21q-13 -8 -30 -14t-37 -8v-18q25 -2 44.5 -9t33.5 -18t21 -26t7 -33v-14q0 -29 -11.5 -51t-38.5 -36q-26 -15 -71 -23t-110 -8z
M358 43q16 0 28 1.5t21 5.5q9 3 14 9t5 15v21q0 9 -5 15t-14 9q-9 4 -21 5.5t-28 1.5q-15 0 -27.5 -1.5t-20.5 -5.5q-9 -3 -14 -9t-5 -15v-21q0 -9 5 -15t14 -9q8 -4 20.5 -5.5t27.5 -1.5zM358 -126q23 0 38.5 2.5t24.5 6.5q9 5 13 11t4 15v16q0 9 -4 16t-13 11
q-9 5 -24.5 7.5t-38.5 2.5t-38.5 -2.5t-23.5 -7.5q-9 -4 -13 -11t-4 -16v-16q0 -9 4 -15t13 -11q8 -4 23.5 -6.5t38.5 -2.5z" />
    <glyph glyph-name="seveneighths" unicode="&#x215e;" 
d="M272 412q13 42 31 80t41 73t51 68.5t63 68.5h-310v106h461v-106q-34 -35 -62 -70t-50 -71q-23 -35 -39.5 -72.5t-28.5 -76.5h-157zM0 244v130l318 -20v-90zM396 264v90l304 20v-130zM358 -214q-65 0 -109.5 8t-70.5 23q-27 15 -38.5 36.5t-11.5 50.5v14q0 18 7 33t21 26
t33.5 18t44.5 9v18q-20 2 -37 7.5t-30 14.5t-20 20.5t-7 26.5v20q0 27 14 46.5t42 31.5q28 13 68.5 19t93.5 6q54 0 94.5 -6t67.5 -18q28 -12 42 -32t14 -47v-20q0 -15 -7 -26.5t-19 -20.5q-13 -9 -30 -14.5t-37 -7.5v-18q25 -2 44.5 -9t33.5 -18t21 -26t7 -33v-14
q0 -29 -11.5 -51t-38.5 -36q-26 -15 -71 -23t-110 -8zM358 43q16 0 28 1.5t21 5.5q9 3 14 9t5 15v21q0 9 -5 15t-14 9q-9 4 -21 5.5t-28 1.5q-15 0 -27.5 -1.5t-20.5 -5.5q-9 -3 -14 -9t-5 -15v-21q0 -9 5 -15t14 -9q8 -4 20.5 -5.5t27.5 -1.5zM358 -126q23 0 38.5 2.5
t24.5 6.5q9 5 13 11t4 15v16q0 9 -4 16t-13 11q-9 5 -24.5 7.5t-38.5 2.5t-38.5 -2.5t-23.5 -7.5q-9 -4 -13 -11t-4 -16v-16q0 -9 4 -15t13 -11q8 -4 23.5 -6.5t38.5 -2.5z" />
    <glyph glyph-name="underscore" unicode="_" 
d="M60 -200v170h580v-170h-580z" />
    <glyph glyph-name="hyphen" unicode="&#x2011;" 
d="M60 270v170h580v-170h-580z" />
    <glyph glyph-name="hyphen" unicode="&#x2010;" 
d="M60 270v170h580v-170h-580z" />
    <glyph glyph-name="hyphen" unicode="&#xad;" 
d="M60 270v170h580v-170h-580z" />
    <glyph glyph-name="hyphen" unicode="-" 
d="M60 270v170h580v-170h-580z" />
    <glyph glyph-name="endash" unicode="&#x2013;" 
d="M40 270v170h620v-170h-620z" />
    <glyph glyph-name="emdash" unicode="&#x2014;" 
d="M0 270v170h700v-170h-700z" />
    <glyph glyph-name="horizontalbar" unicode="&#x2015;" 
d="M0 270v170h700v-170h-700z" />
    <glyph glyph-name="parenleft" unicode="(" 
d="M580 -210q-246 37 -338 183t-92 327q0 173 92 323t338 187l20 -130q-149 -37 -199.5 -133t-50.5 -247t50.5 -243t199.5 -129z" />
    <glyph glyph-name="parenright" unicode=")" 
d="M120 -210l-20 138q149 37 199.5 131.5t50.5 240.5q0 136 -50.5 239.5t-199.5 140.5l20 130q246 -37 338 -187t92 -323q0 -181 -92 -327t-338 -183z" />
    <glyph glyph-name="bracketleft" unicode="[" 
d="M150 -200v1000h450v-140h-250v-720h250v-140h-450z" />
    <glyph glyph-name="bracketright" unicode="]" 
d="M100 -200v140h250v720h-250v140h450v-1000h-450z" />
    <glyph glyph-name="braceleft" unicode="{" 
d="M600 -210q-269 -3 -384.5 33t-115.5 133q0 43 13.5 71.5t49.5 60.5q38 34 52.5 52t14.5 33q0 47 -49.5 66.5t-180.5 22.5v100q131 3 180.5 22t49.5 65q0 15 -13.5 30t-50.5 40q-37 26 -51.5 51.5t-14.5 65.5q0 101 115.5 139t384.5 35v-140q-170 3 -235 -11.5t-65 -54.5
q0 -21 14 -38t51 -41q37 -23 51 -43t14 -52q0 -60 -63 -86.5t-229 -30.5v-5q166 -10 229 -37t63 -82q0 -35 -13.5 -55.5t-50.5 -44.5t-51.5 -43.5t-14.5 -46.5q0 -43 65 -58.5t235 -12.5v-138z" />
    <glyph glyph-name="braceright" unicode="}" 
d="M600 -44q0 -97 -115.5 -133t-384.5 -33v138q170 -3 235 12.5t65 58.5q0 27 -14.5 46.5t-51.5 43.5t-50.5 44.5t-13.5 55.5q0 55 63 82t229 37v5q-166 4 -229 30.5t-63 86.5q0 32 14 52t51 43q37 24 51 41t14 38q0 40 -65 54.5t-235 11.5v140q269 3 384.5 -35t115.5 -139
q0 -40 -14.5 -65.5t-51.5 -51.5q-37 -25 -50.5 -40t-13.5 -30q0 -46 49.5 -65t180.5 -22v-100q-131 -3 -180.5 -22.5t-49.5 -66.5q0 -15 14.5 -33t52.5 -52q36 -32 49.5 -60.5t13.5 -71.5z" />
    <glyph glyph-name="numbersign" unicode="#" 
d="M405 300l10 200h-120l-10 -200h120zM390 0l9 170h-120l-9 -170h-150l9 170h-129v130h135l10 200h-145v130h152l8 170h150l-8 -170h120l8 170h150l-8 -170h128v-130h-135l-10 -200h145v-130h-151l-9 -170h-150z" />
    <glyph glyph-name="percent" unicode="%" 
d="M190 468q-76 0 -123 38t-47 117v40q0 80 47.5 118.5t122.5 38.5q76 0 122.5 -38.5t46.5 -118.5v-40q0 -79 -47 -117t-122 -38zM190 564q19 0 29.5 12t10.5 40v54q0 28 -10.5 41t-29.5 13t-30 -13t-11 -41v-54q0 -28 11 -40t30 -12zM31 193l568 502l78 -89l-576 -505z
M511 -22q-76 0 -123 38t-47 117v40q0 80 47.5 118.5t122.5 38.5q76 0 122.5 -38.5t46.5 -118.5v-40q0 -79 -47 -117t-122 -38zM511 69q19 0 29.5 12t10.5 40v54q0 28 -10.5 41t-29.5 13t-30 -13t-11 -41v-54q0 -28 11 -40t30 -12z" />
    <glyph glyph-name="perthousand" unicode="&#x2030;" 
d="M180 468q-72 0 -116 38t-44 117v40q0 80 44.5 118.5t115.5 38.5q72 0 115.5 -38.5t43.5 -118.5v-40q0 -79 -44 -117t-115 -38zM139 616q0 -28 11 -40t30 -12t29.5 12t10.5 40v54q0 28 -10.5 41t-29.5 13t-30 -13t-11 -41v-54zM687 592l-618 -392l-48 79l613 390zM551 -22
q-30 0 -53.5 14t-37.5 43q-16 -29 -41.5 -43t-57.5 -14q-54 0 -87 38t-33 117v30q0 80 36.5 118.5t93.5 38.5q30 0 53 -14t37 -42q14 28 37.5 42t52.5 14q58 0 93.5 -38.5t35.5 -118.5v-30q0 -79 -36 -117t-93 -38zM345 126q0 -28 8.5 -40t22.5 -12t22 12t8 40v44
q0 28 -8 41t-22 13t-22.5 -13t-8.5 -41v-44zM515 126q0 -28 8.5 -40t22.5 -12t22 12t8 40v44q0 28 -8 41t-22 13t-22.5 -13t-8.5 -41v-44z" />
    <glyph glyph-name="quotesingle" unicode="'" 
d="M266 350l-36 450h240l-36 -450h-168z" />
    <glyph glyph-name="quotedbl" unicode="&#x22;" 
d="M426 350l-36 450h220l-36 -450h-148zM126 350l-36 450h220l-36 -450h-148z" />
    <glyph glyph-name="quoteleft" unicode="&#x2018;" 
d="M159 350l251 450h127l-95 -450h-283z" />
    <glyph glyph-name="quoteleft" unicode="&#x2bb;" 
d="M159 350l251 450h127l-95 -450h-283z" />
    <glyph glyph-name="quoteright" unicode="&#x2019;" 
d="M163 350l95 450h283l-251 -450h-127z" />
    <glyph glyph-name="quotedblleft" unicode="&#x201c;" 
d="M339 350l221 450h107l-75 -450h-253zM39 350l231 450h107l-85 -450h-253z" />
    <glyph glyph-name="quotedblright" unicode="&#x201d;" 
d="M323 350l85 450h253l-231 -450h-107zM33 350l75 450h253l-221 -450h-107z" />
    <glyph glyph-name="quotereversed" unicode="&#x201b;" 
d="M143 350zM394 350l-251 450h283l95 -450h-127z" />
    <glyph glyph-name="quotesinglbase" unicode="&#x201a;" 
d="M173 0zM173 -150l75 450h283l-231 -450h-127z" />
    <glyph glyph-name="quotedblbase" unicode="&#x201e;" 
d="M33 0zM323 -150l85 450h253l-231 -450h-107zM33 -150l75 450h253l-221 -450h-107z" />
    <glyph glyph-name="guilsinglleft" unicode="&#x2039;" 
d="M550 20l-400 230v200l400 230v-175l-270 -155l270 -155v-175z" />
    <glyph glyph-name="guilsinglright" unicode="&#x203a;" 
d="M150 20v175l270 155l-270 155v175l400 -230v-200z" />
    <glyph glyph-name="guillemotleft" unicode="&#xab;" 
d="M675 20l-300 230v200l300 230v-175l-202 -155l202 -155v-175zM325 20l-300 230v200l300 230v-175l-202 -155l202 -155v-175z" />
    <glyph glyph-name="guillemotright" unicode="&#xbb;" 
d="M25 20v175l202 155l-202 155v175l300 -230v-200zM375 20v175l202 155l-202 155v175l300 -230v-200z" />
    <glyph glyph-name="asterisk" unicode="*" 
d="M569 261l-187 181l48 -242h-162l49 241l-186 -180l-81 140l246 100l-246 100l81 140l186 -181l-49 240h162l-48 -240l187 181l81 -140l-247 -100l247 -100z" />
    <glyph glyph-name="dagger" unicode="&#x2020;" 
d="M265 -200v660h-65l-30 -220h-140l30 360h205l-10 200h190l-10 -200h205l30 -360h-140l-30 220h-65v-660h-170z" />
    <glyph glyph-name="daggerdbl" unicode="&#x2021;" 
d="M255 -200l7 170h-207l-30 260h130l40 -120h70v380h-70l-40 -120h-130l30 260h207l-7 170h190l-7 -170h207l30 -260h-130l-40 120h-70v-380h70l40 120h130l-30 -260h-207l7 -170h-190z" />
    <glyph glyph-name="period" unicode="." 
d="M351 -10q-68 0 -109.5 29.5t-41.5 81.5v87q0 53 41.5 83t109.5 30q67 0 108 -30t41 -83v-87q0 -52 -42 -81.5t-107 -29.5z" />
    <glyph glyph-name="comma" unicode="," 
d="M173 -150l75 450h283l-231 -450h-127z" />
    <glyph glyph-name="colon" unicode=":" 
d="M351 386q-61 0 -98.5 26t-37.5 73v59q0 48 37.5 74.5t98.5 26.5q60 0 97 -26.5t37 -74.5v-59q0 -47 -38 -73t-96 -26zM351 -4q-61 0 -98.5 26t-37.5 73v59q0 48 37.5 74.5t98.5 26.5q60 0 97 -26.5t37 -74.5v-59q0 -47 -38 -73t-96 -26z" />
    <glyph glyph-name="semicolon" unicode=";" 
d="M351 386q-61 0 -98.5 26t-37.5 73v59q0 48 37.5 74.5t98.5 26.5q60 0 97 -26.5t37 -74.5v-59q0 -47 -38 -73t-96 -26zM191 -128l67 406h255l-208 -406h-114z" />
    <glyph glyph-name="ellipsis" unicode="&#x2026;" 
d="M589 -9q-36 0 -58.5 20.5t-22.5 63.5v140q0 44 22.5 65t58.5 21q37 0 59 -21t22 -65v-140q0 -43 -23 -63.5t-58 -20.5zM350 -9q-36 0 -58.5 20.5t-22.5 63.5v140q0 44 22.5 65t58.5 21q37 0 59 -21t22 -65v-140q0 -43 -23 -63.5t-58 -20.5zM112 -9q-37 0 -59.5 20.5
t-22.5 63.5v140q0 44 22.5 65t59.5 21q36 0 58 -21t22 -65v-140q0 -43 -23 -63.5t-57 -20.5z" />
    <glyph glyph-name="exclam" unicode="!" 
d="M255 300l-30 500h240l-30 -500h-180zM351 -10q-72 0 -109.5 20.5t-37.5 63.5v28q0 44 37.5 65t109.5 21t109 -21t37 -65v-28q0 -43 -37.5 -63.5t-108.5 -20.5z" />
    <glyph glyph-name="exclamdown" unicode="&#xa1;" 
d="M350 810q72 0 109.5 -20.5t37.5 -63.5v-28q0 -44 -37.5 -65t-109.5 -21t-109 21t-37 65v28q0 43 37.5 63.5t108.5 20.5zM446 500l30 -500h-240l30 500h180z" />
    <glyph glyph-name="exclamdbl" unicode="&#x203c;" 
d="M465 300l-30 500h200l-30 -500h-140zM105 300l-30 500h200l-30 -500h-140zM541 -10q-32 0 -55.5 5t-39.5 15q-16 11 -24 26.5t-8 37.5v28q0 22 8 38t24 27t39.5 16t55.5 5t55.5 -5t39.5 -16q15 -10 23 -26.5t8 -38.5v-28q0 -22 -8 -37.5t-24 -26.5q-16 -10 -39.5 -15
t-54.5 -5zM181 -10q-32 0 -55.5 5t-39.5 15q-16 11 -24 26.5t-8 37.5v28q0 22 8 38t24 27t39.5 16t55.5 5t55.5 -5t39.5 -16q15 -10 23 -26.5t8 -38.5v-28q0 -22 -8 -37.5t-24 -26.5q-16 -10 -39.5 -15t-54.5 -5z" />
    <glyph glyph-name="question" unicode="?" 
d="M220 263l-20 131q145 23 192.5 60.5t47.5 97.5v20q0 49 -19 73.5t-71 24.5q-55 0 -74 -26.5t-26 -94.5l-200 10q7 128 80 189.5t219 61.5q140 0 215.5 -67t75.5 -164v-31q0 -122 -99 -187.5t-321 -97.5zM301 -10q-72 0 -109.5 20.5t-37.5 63.5v28q0 44 37.5 65t109.5 21
t109 -21t37 -65v-28q0 -43 -37.5 -63.5t-108.5 -20.5z" />
    <glyph glyph-name="questiondown" unicode="&#xbf;" 
d="M399 810q72 0 109.5 -20.5t37.5 -63.5v-28q0 -44 -37.5 -65t-109.5 -21t-109 21t-37 65v28q0 43 37.5 63.5t108.5 20.5zM480 537l20 -131q-145 -23 -192.5 -60.5t-47.5 -97.5v-20q0 -49 19 -73.5t71 -24.5q55 0 74 26.5t26 94.5l200 -10q-7 -128 -80 -189.5t-219 -61.5
q-140 0 -215.5 67t-75.5 164v31q0 122 99 187.5t321 97.5z" />
    <glyph glyph-name="slash" unicode="/" 
d="M70 -200l400 1000h160l-400 -1000h-160z" />
    <glyph glyph-name="backslash" unicode="\" 
d="M470 -198l-400 1000l160 -2l400 -1000z" />
    <glyph glyph-name="fraction" unicode="&#x2215;" 
d="M70 0l400 800h160l-400 -800h-160z" />
    <glyph glyph-name="fraction" unicode="&#x2044;" 
d="M70 0l400 800h160l-400 -800h-160z" />
    <glyph glyph-name="bar" unicode="|" 
d="M270 -200v1000h160v-1000h-160z" />
    <glyph glyph-name="brokenbar" unicode="&#xa6;" 
d="M270 400v400h160v-400h-160zM270 -200v400h160v-400h-160z" />
    <glyph glyph-name="at" unicode="@" 
d="M398 -110q-185 0 -276.5 98t-91.5 261v238q0 146 81.5 234.5t247.5 88.5q150 0 230.5 -82t80.5 -231v-195q0 -96 -60 -139t-165 -43q-110 0 -162.5 48t-52.5 134v82q0 84 42 135t114 51q65 0 105 -21.5t57 -53.5h30q-2 110 -47.5 162.5t-172.5 52.5q-116 0 -167 -58.5
t-51 -164.5v-228q0 -125 60.5 -195t197.5 -70q59 0 109 9t93 21v-104q-41 -10 -95.5 -20t-106.5 -10zM449 230q28 0 43.5 14.5t15.5 59.5v72q0 45 -16.5 64.5t-42.5 19.5q-28 0 -43.5 -20t-15.5 -66v-62q0 -44 15.5 -63t43.5 -19z" />
    <glyph glyph-name="ampersand" unicode="&#x26;" 
d="M667 -22q-53 14 -103 38.5t-96 55.5q-42 -38 -94 -60t-130 -22q-96 0 -160 54.5t-64 146.5q0 73 32 125t115 106q-22 46 -34.5 88t-12.5 75q0 106 57 166t158 60q99 0 147 -54t48 -116q0 -73 -37 -116.5t-167 -118.5q8 -16 17.5 -31.5t19.5 -29.5q19 -26 40 -51.5
t45 -47.5q16 34 35 79t42 102l149 -29q-31 -66 -68.5 -127t-75.5 -109l171 -52zM280 585q0 -22 3 -44.5t9 -44.5q37 24 62.5 52.5t25.5 68.5q0 39 -11 56t-36 17q-28 0 -40.5 -24.5t-12.5 -80.5zM305 110q23 0 41.5 6t35.5 23q-30 27 -57 56t-51 59q-13 17 -26 34.5
t-24 33.5q-13 -24 -18.5 -52.5t-5.5 -58.5q0 -56 27 -78.5t78 -22.5z" />
    <glyph glyph-name="section" unicode="&#xa7;" 
d="M340 232l18 -4l18 -4q31 1 55 14.5t24 44.5q0 41 -26 57.5t-64 24.5l-18 4l-18 4q-31 -1 -55 -14t-24 -44q0 -42 26.5 -58.5t63.5 -24.5zM368 -207q-84 0 -164 28.5t-133 65.5l50 141q59 -37 119 -61t133 -24q36 0 62.5 12.5t26.5 41.5q0 39 -41 53.5t-93 25.5
q-133 26 -205.5 72t-72.5 145q0 50 33 83t86 52q-57 30 -88 74t-31 108q0 89 78 141.5t209 52.5q84 0 160.5 -29t136.5 -65l-60 -131q-60 32 -116 53.5t-126 21.5q-46 0 -67 -16.5t-21 -46.5q0 -34 48.5 -48t135.5 -33q98 -19 162.5 -63t64.5 -143q0 -51 -25.5 -88.5
t-68.5 -59.5q46 -29 70 -70.5t24 -98.5q0 -89 -78 -141.5t-209 -52.5z" />
    <glyph glyph-name="paragraph" unicode="&#xb6;" 
d="M490 340h-80v-540h-150v541q-81 6 -140.5 51.5t-59.5 144.5v52q0 110 69.5 160.5t159.5 50.5h351v-1000h-150v540z" />
    <glyph glyph-name="lsquare" unicode="&#x2113;" 
d="M340 370q14 0 23 2.5t17 8.5q7 7 12.5 20.5t9.5 35.5l27 152q3 20 2.5 33.5t-5.5 21.5q-4 9 -12.5 12.5t-21.5 3.5q-15 0 -24 -2t-16 -9t-13 -21.5t-10 -38.5l-29 -165q-3 -14 -1 -24.5t7 -16.5q5 -7 13.5 -10t20.5 -3zM537 49q-31 -14 -61.5 -24.5t-60.5 -17.5
q-29 -7 -58 -10.5t-57 -3.5q-59 0 -106 15.5t-79 48.5t-44 84t0 121l59 336q10 59 35.5 100t62.5 66q37 24 82.5 35t98.5 11q67 0 113 -10.5t74 -34.5t37 -64.5t-2 -100.5l-34 -193q-7 -40 -27 -70t-50 -49t-68.5 -28.5t-82.5 -9.5q-14 0 -27.5 1t-25.5 2q-12 2 -23 4.5
t-21 5.5l-4 -24q-4 -25 0 -43.5t15 -30.5t28.5 -17.5t40.5 -5.5q19 0 41 3.5t46 10.5t49 17t51 22z" />
    <glyph glyph-name="numero" unicode="&#x2116;" 
d="M245 597v-217h-170v420h197l183 -239v239h170v-420h-213zM415 -9q-94 0 -152 35t-58 107v43q0 73 58 109t152 36q96 0 153 -36t57 -109v-43q0 -72 -58 -107t-152 -35zM415 88q27 0 41 12.5t14 42.5v23q0 24 -14 36t-41 12q-28 0 -41.5 -12t-13.5 -36v-23
q0 -30 13.5 -42.5t41.5 -12.5z" />
    <glyph glyph-name="periodcentered" unicode="&#x2219;" 
d="M351 245q-68 0 -109.5 29.5t-41.5 81.5v87q0 53 41.5 83t109.5 30q67 0 108 -30t41 -83v-87q0 -52 -42 -81.5t-107 -29.5z" />
    <glyph glyph-name="periodcentered" unicode="&#xb7;" 
d="M351 245q-68 0 -109.5 29.5t-41.5 81.5v87q0 53 41.5 83t109.5 30q67 0 108 -30t41 -83v-87q0 -52 -42 -81.5t-107 -29.5z" />
    <glyph glyph-name="bullet" unicode="&#x2022;" 
d="M351 236q-75 0 -121.5 30.5t-46.5 95.5v72q0 66 46.5 97.5t121.5 31.5t121 -31.5t46 -97.5v-72q0 -65 -47 -95.5t-120 -30.5z" />
    <glyph glyph-name="anoteleia" unicode="&#x387;" 
d="M200 245zM351 245q-68 0 -109.5 29.5t-41.5 81.5v87q0 53 41.5 83t109.5 30q67 0 108 -30t41 -83v-87q0 -52 -42 -81.5t-107 -29.5z" />
    <glyph glyph-name="underscoredbl" unicode="&#x2017;" 
d="M60 0zM60 0v170h580v-170h-580zM60 -300v170h580v-170h-580z" />
    <glyph glyph-name="minute" unicode="&#x2032;" 
d="M163 350zM163 350l95 450h283l-251 -450h-127z" />
    <glyph glyph-name="second" unicode="&#x2033;" 
d="M33 350zM323 350l85 450h253l-231 -450h-107zM33 350l75 450h253l-221 -450h-107z" />
    <glyph glyph-name="overline" unicode="&#x203e;" 
d="M60 830zM60 830v170h580v-170h-580z" />
    <glyph glyph-name="plus" unicode="+" 
d="M270 30v240h-210v160h210v240h160v-240h210v-160h-210v-240h-160z" />
    <glyph glyph-name="minus" unicode="&#x2212;" 
d="M60 270v160h580v-160h-580z" />
    <glyph glyph-name="plusminus" unicode="&#xb1;" 
d="M60 0zM270 130v240h-210v160h210v240h160v-240h210v-160h-210v-240h-160zM60 0v160h580v-160h-580z" />
    <glyph glyph-name="divide" unicode="&#xf7;" 
d="M350 511q-46 0 -75 18.5t-29 58.5v21q0 40 29 59.5t75 19.5t74.5 -19.5t28.5 -59.5v-21q0 -40 -28.5 -58.5t-74.5 -18.5zM60 280v140h580v-140h-580zM350 11q-46 0 -75 18.5t-29 58.5v21q0 40 29 59.5t75 19.5t74.5 -19.5t28.5 -59.5v-21q0 -40 -28.5 -58.5t-74.5 -18.5z
" />
    <glyph glyph-name="multiply" unicode="&#xd7;" 
d="M174 31l-103 103l176 216l-176 216l103 103l176 -216l176 216l103 -103l-176 -216l176 -216l-103 -103l-176 216z" />
    <glyph glyph-name="equal" unicode="=" 
d="M60 430v160h580v-160h-580zM60 110v160h580v-160h-580z" />
    <glyph glyph-name="less" unicode="&#x3c;" 
d="M610 0l-520 250v200l520 250v-155l-406 -195l406 -195v-155z" />
    <glyph glyph-name="greater" unicode="&#x3e;" 
d="M90 0v145l426 205l-426 205v145l520 -250v-200z" />
    <glyph glyph-name="lessequal" unicode="&#x2264;" 
d="M610 200l-520 200v200l520 200v-155l-377 -145l377 -145v-155zM90 0v135h520v-135h-520z" />
    <glyph glyph-name="greaterequal" unicode="&#x2265;" 
d="M90 200v155l377 145l-377 145v155l520 -200v-200zM610 0h-520v135h520v-135z" />
    <glyph glyph-name="approxequal" unicode="&#x2248;" 
d="M481 380q-24 0 -45.5 6.5t-41.5 19.5q-21 13 -39.5 33t-35.5 47q-8 12 -23 36.5t-25 38.5q-10 13 -21 21.5t-23 8.5q-11 0 -19.5 -5.5t-15.5 -16.5q-6 -12 -9 -30.5t-3 -45.5v-73h-130v79q0 58 11 103t32 76q20 31 49.5 46.5t66.5 15.5q23 0 45 -6.5t42 -19.5t39 -32.5
t37 -46.5q7 -10 22.5 -36t25.5 -39q10 -14 21.5 -22.5t23.5 -8.5q11 0 19 5.5t14 16.5q6 12 9 31t3 46v72h130v-79q0 -58 -11 -103t-32 -76q-20 -31 -49.5 -46.5t-66.5 -15.5zM481 -20q-24 0 -45.5 6.5t-41.5 19.5q-21 13 -39.5 33t-35.5 47q-4 5 -21.5 32.5t-28.5 41.5
q-10 14 -22 22.5t-24 8.5q-11 0 -19 -5.5t-13 -16.5q-6 -12 -8.5 -30.5t-2.5 -45.5v-73h-130v79q0 58 11 103t32 76q20 31 49.5 46.5t66.5 15.5q23 0 45 -6.5t42 -19.5t39 -32.5t37 -46.5q39 -61 50 -75t23 -22q6 -5 12 -7t12 -2q11 0 18.5 5.5t12.5 16.5q5 12 7.5 31
t2.5 46v72h130v-79q0 -58 -11 -103t-32 -76q-20 -31 -49.5 -46.5t-66.5 -15.5z" />
    <glyph glyph-name="notequal" unicode="&#x2260;" 
d="M640 165h-279l-41 -165h-140l41 165h-161v150h199l42 170h-241v150h279l41 165h140l-41 -165h161v-150h-199l-42 -170h241v-150z" />
    <glyph glyph-name="logicalnot" unicode="&#xac;" 
d="M480 0v270h-420v160h580v-430h-160z" />
    <glyph glyph-name="uni23af" unicode="&#x23af;" 
d="M0 300v200h700v-200h-700z" />
    <glyph glyph-name="arrowleft" unicode="&#x2190;" 
d="M380 25l-380 365v20l380 365h20v-275h300v-200h-300v-275h-20z" />
    <glyph glyph-name="arrowup" unicode="&#x2191;" 
d="M250 -50v450h-250v20l340 430h20l340 -430v-20h-250v-450h-200z" />
    <glyph glyph-name="arrowright" unicode="&#x2192;" 
d="M300 25v275h-300v200h300v275h20l380 -365v-20l-380 -365h-20z" />
    <glyph glyph-name="arrowdown" unicode="&#x2193;" 
d="M340 -100l-365 430v20h275v450h200v-450h275v-20l-365 -430h-20z" />
    <glyph glyph-name="arrowboth" unicode="&#x2194;" 
d="M270 300v-275h-20l-250 365v20l250 365h20v-275h160v275h20l250 -365v-20l-250 -365h-20v275h-160z" />
    <glyph glyph-name="partialdiff" unicode="&#x2202;" 
d="M288 -10q-66 0 -116 14.5t-83 44.5t-45.5 75.5t-2.5 105.5l9 52q9 50 31 90.5t56 68.5q34 29 77 44t92 15q28 0 51 -5.5t40 -16.5q17 -10 28.5 -23.5t16.5 -28.5h21q5 56 -6.5 95.5t-42.5 69.5q-32 29 -87.5 53t-145.5 48l149 129q100 -28 167.5 -68t105.5 -95t48 -127
t-6 -164l-23 -131q-11 -63 -39.5 -110t-72.5 -77q-43 -30 -99 -44.5t-123 -14.5zM313 130q25 0 42.5 5.5t29.5 15.5q12 11 19.5 27.5t12.5 39.5l13 63q4 20 2 34.5t-11 24.5t-25.5 14.5t-40.5 4.5q-25 0 -42.5 -4.5t-29.5 -14.5t-19.5 -24t-11.5 -35l-13 -63
q-5 -23 -2.5 -39.5t11.5 -27.5q8 -10 24.5 -15.5t40.5 -5.5z" />
    <glyph glyph-name="Delta#1" unicode="&#x2206;" 
d="M30 0zM30 0v150l183 650h285l172 -650v-150h-640zM484 150l-134 528l-142 -528h276z" />
    <glyph glyph-name="product" unicode="&#x220f;" 
d="M50 -200v1000h600v-1000h-200v850h-200v-850h-200z" />
    <glyph glyph-name="summation" unicode="&#x2211;" 
d="M620 -50v-150h-550v150l307 359l-307 341v150h550v-150h-358l238 -275v-118l-251 -307h371z" />
    <glyph glyph-name="mu1" unicode="&#xb5;" 
d="M60 0zM270 20l10 -220h-220l10 220v580h200v-374q0 -43 17 -62t41 -19q26 0 44.5 11.5t37.5 33.5v410h200v-390q0 -46 12 -60.5t48 -10.5v-134q-69 -16 -108.5 0.5t-67.5 74.5h-30q-13 -36 -38.5 -63t-71.5 -27q-30 0 -50 10t-34 30v-10z" />
    <glyph glyph-name="radical" unicode="&#x221a;" 
d="M287 0l-147 343l-139 -18v145l233 30l135 -334l166 734h192l-215 -900h-225z" />
    <glyph glyph-name="infinity" unicode="&#x221e;" 
d="M199 110q-32 0 -62 19t-54 56q-25 38 -39 92.5t-14 123.5t15 123.5t41 91.5q27 37 60.5 55.5t71.5 18.5q29 0 52.5 -11.5t41.5 -31.5q17 -21 30.5 -48t24.5 -60q13 34 26 60.5t30 47.5q16 20 36.5 31.5t45.5 11.5q31 0 60 -19t53 -57q24 -37 38 -92t14 -123
q0 -69 -15 -123.5t-42 -91.5q-26 -37 -61 -55.5t-74 -18.5q-28 0 -50.5 11t-39.5 31q-18 20 -31 46t-24 59q-12 -33 -25 -59t-29 -46t-36 -31t-44 -11zM481 239q11 0 19.5 9t15.5 29t10.5 52.5t3.5 77.5q-1 42 -5 71.5t-10 47.5q-7 18 -15.5 26.5t-18.5 8.5q-14 0 -26 -8.5
t-23 -24.5q-10 -16 -19.5 -37t-19.5 -49q13 -58 24 -96.5t22 -62.5q10 -23 20 -33.5t22 -10.5zM219 239q14 0 26 8.5t23 24.5q10 15 19.5 35.5t19.5 47.5q-13 59 -24 98t-22 63q-10 24 -20 34.5t-22 10.5q-11 0 -19.5 -9t-15.5 -29t-10.5 -52.5t-3.5 -77.5q1 -41 5 -70.5
t10 -48.5q7 -18 15.5 -26.5t18.5 -8.5z" />
    <glyph glyph-name="orthogonal" unicode="&#x221f;" 
d="M100 0v700h200v-540h320v-160h-520z" />
    <glyph glyph-name="intersection" unicode="&#x2229;" 
d="M70 0v449q0 60 19.5 108.5t55.5 82.5q37 34 89 52t117 18q64 0 116 -18t88 -52q37 -34 56 -82.5t19 -108.5v-449h-200v435q0 31 -4 54t-14 39q-9 16 -24.5 24t-37.5 8t-37.5 -8.5t-24.5 -24.5q-10 -16 -14 -39.5t-4 -55.5v-432h-200z" />
    <glyph glyph-name="integral" unicode="&#x222b;" 
d="M187 -205q-18 0 -37 1.5t-37 4.5q-19 3 -37 7t-36 10l20 126q15 -5 28.5 -8.5t26.5 -5.5q12 -2 23.5 -3.5t22.5 -1.5q21 0 37.5 5.5t27.5 16.5q12 12 18 30t6 43v611q0 53 21 93t58 65q36 26 83 38t100 12q18 0 37 -1.5t37 -4.5q19 -3 37 -7t36 -10l-20 -126
q-15 5 -28.5 8.5t-26.5 5.5q-12 2 -23.5 3.5t-22.5 1.5q-21 0 -37 -5.5t-28 -16.5q-11 -12 -17 -30t-6 -43v-611q0 -53 -21 -93t-58 -65q-37 -26 -84 -38t-100 -12z" />
    <glyph glyph-name="equivalence" unicode="&#x2261;" 
d="M60 520v160h580v-160h-580zM60 260v160h580v-160h-580zM60 0v160h580v-160h-580z" />
    <glyph glyph-name="integralbt" unicode="&#x2321;" 
d="M237 -205q-18 0 -37 1.5t-37 4.5q-19 3 -37 7t-36 10l20 126q15 -5 28.5 -8.5t26.5 -5.5q12 -2 23.5 -3.5t22.5 -1.5q21 0 37.5 5.5t27.5 16.5q12 12 18 30t6 43v780h200v-797q0 -53 -21 -93t-58 -65q-37 -26 -84 -38t-100 -12z" />
    <glyph glyph-name="dollar" unicode="$" 
d="M225 562q0 -27 17 -44t58 -28v135q-42 -5 -58.5 -20t-16.5 -43zM496 240q0 29 -21.5 46.5t-74.5 29.5v-143q54 2 75 18t21 49zM410 -50h-120v92q-94 7 -155.5 32t-110.5 55l42 131q48 -29 100 -53t134 -32v158q-140 20 -198.5 64.5t-58.5 134.5q0 86 61 148.5t186 75.5
v94h120v-93q64 -6 127 -25.5t97 -46.5l-32 -125q-49 26 -95 43t-107 22v-153q153 -22 216 -69.5t63 -140.5q0 -96 -71.5 -153t-197.5 -67v-92z" />
    <glyph glyph-name="cent" unicode="&#xa2;" 
d="M240 337q0 -51 14 -78t51 -35v351q-37 -7 -51 -34t-14 -78v-126zM290 -50v143q-116 13 -178 73t-62 161v150q0 103 65 160.5t175 69.5v143h120v-143q110 -12 164 -69.5t67 -153.5l-183 -16q-4 49 -18 73.5t-45 32.5v-351q35 7 47 30t16 69l183 -16q-7 -93 -56 -148.5
t-175 -65.5v-142h-120z" />
    <glyph glyph-name="sterling" unicode="&#xa3;" 
d="M680 277q-8 -140 -64.5 -213.5t-155.5 -73.5q-48 0 -92.5 17.5t-85.5 34.5q-33 13 -58.5 20.5t-53.5 -11.5l-92 -60l-81 120l106 64q34 21 61 58t27 74q0 13 -3 25t-7 23h-151v100h92q-13 22 -23 47.5t-10 54.5q0 113 74 183t208 70q148 0 210 -72t69 -209l-180 -10
q-5 63 -22.5 97t-77.5 34q-53 0 -76.5 -27t-23.5 -68q0 -25 11 -50t27 -50h132v-100h-82q2 -10 3.5 -20t1.5 -20q0 -40 -30 -68t-90 -50l19 -39q31 16 50.5 21.5t36.5 1.5q19 -4 35.5 -13t35.5 -9q46 0 60 29.5t20 98.5z" />
    <glyph glyph-name="currency" unicode="&#xa4;" 
d="M350 240q35 0 52.5 18t17.5 59v162q0 41 -17.5 61t-52.5 20t-52.5 -20t-17.5 -61v-162q0 -41 17.5 -59t52.5 -18zM350 90q-49 0 -90 10t-73 31l-93 -95l-83 83l104 105q-7 20 -11 43.5t-4 49.5v162q0 27 4 51t12 45l-105 106l83 83l94 -96q32 21 73 31.5t90 10.5
t90.5 -10.5t72.5 -32.5l92 92l83 -83l-104 -104q7 -20 11 -43.5t4 -49.5v-162q0 -22 -3 -41.5t-7 -37.5l99 -114l-83 -83l-92 92q-31 -22 -73 -32.5t-91 -10.5z" />
    <glyph glyph-name="yen" unicode="&#xa5;" 
d="M650 100h-200v-100h-200v100h-200v100h200v100h-200v100h155l-181 400h199l127 -326l127 326h198l-180 -400h155v-100h-200v-100h200v-100z" />
    <glyph glyph-name="franc" unicode="&#x20a3;" 
d="M430 130h-150v-130h-200v130h-100v120h100v550h570v-150h-370v-120h300v-150h-300v-130h150v-120z" />
    <glyph glyph-name="lira" unicode="&#x20a4;" 
d="M680 277q-4 -70 -21 -124t-46 -90q-30 -36 -70.5 -54.5t-92.5 -18.5q-20 0 -39.5 4.5t-38.5 11.5q-9 4 -28 12.5t-47 22.5q-19 9 -35 15t-31 8q-16 2 -31.5 -1t-29.5 -12l-92 -60l-81 120l106 64q12 8 25 18.5t24 24.5q12 13 20.5 27.5t12.5 29.5h-155v100h135
q-1 3 -3 6.5t-6 11.5q-2 4 -3.5 6.5t-2.5 4.5q-3 4 -9 14.5l-10 17.5t-8.5 14.5t-8.5 14.5h-84v100h60q4 56 22 101t52 78q33 32 82.5 49t114.5 17q76 0 129.5 -18t87.5 -53q34 -36 51 -87.5t21 -122.5l-180 -10q-3 36 -8 59t-15 39q-10 17 -29 25t-48 8q-17 0 -31 -6
t-24 -18q-10 -11 -16 -26.5t-8 -34.5h129v-100h-118q1 -4 2.5 -7.5t2.5 -7.5q1 -3 2.5 -6.5t3.5 -8.5q7 -22 9.5 -29t4.5 -15l2 -8l2 -8h89v-100h-94q-6 -12 -14.5 -24t-18.5 -23q-11 -10 -23.5 -18t-26.5 -13l19 -39q17 8 31 13t25 6q11 2 21 1t19 -3l16.5 -5.5t15.5 -5.5
q6 -2 14 -3.5t16 -1.5q23 0 37.5 7t22.5 22t12.5 38t7.5 61z" />
    <glyph glyph-name="peseta" unicode="&#x20a7;" 
d="M130 378h10q10 0 17 3.5t13 10.5q5 7 7.5 20t2.5 31v192q0 18 -2.5 31t-7.5 20q-6 8 -13 11t-17 3h-10v-322zM680 151q0 -41 -11 -71.5t-30 -50.5t-43.5 -29.5t-51.5 -9.5q-7 0 -13.5 0.5t-12.5 1.5q-7 1 -13 2.5t-12 3.5q-10 -2 -19.5 -3.5t-18.5 -2.5t-16.5 -1h-19.5
q-22 0 -40 8.5t-31 27.5t-20.5 49t-7.5 71v353h-40v-59q0 -48 -10 -80t-27 -50q-17 -17 -38 -24t-45 -7h-20v-280h-110v800h131q24 0 44.5 -7t37.5 -24q17 -18 27 -50t10 -80v-39h40v200h100v-200h108q5 3 10.5 4.5t11.5 3.5q5 1 10.5 1.5t11.5 0.5q15 0 28.5 -2.5
t26.5 -7.5t26 -13t27 -19l-45 -79q-11 9 -18.5 14.5t-14.5 9.5q-7 3 -14.5 5t-15.5 2q-4 0 -7 -3.5t-5 -10.5t-3.5 -19.5t-1.5 -30.5q0 -21 5 -39t14 -34q8 -16 17 -29t27 -36q14 -19 24.5 -35.5t18.5 -36.5q9 -19 14 -43t5 -52zM544 80q7 0 13.5 3t11.5 10q6 7 9 19.5
t3 31.5q0 17 -5 33t-13 31q-4 8 -15 24.5t-29 41.5q-14 20 -24.5 38t-19.5 39t-14 45.5t-5 52.5q0 7 0.5 13.5t0.5 13.5l2 12l2 12h-41v-354q0 -16 2 -28t5 -20t7.5 -12t10.5 -4h5.5t5.5 1q2 0 4.5 0.5t5.5 1.5l15 26q13 -10 19.5 -14.5t13.5 -8.5t14.5 -6t15.5 -2z" />
    <glyph glyph-name="Euro" unicode="&#x20ac;" 
d="M360 -10q-140 0 -209.5 67t-69.5 187v2h-81v98h80v110h-80v98h81v2q0 121 72.5 188.5t217.5 67.5q140 0 206 -69t73 -222l-170 -10q-7 89 -32 120t-88 31q-60 0 -84 -28.5t-24 -77.5v-2h158v-98h-160v-110h160v-98h-158v-2q0 -49 24 -76.5t84 -27.5q78 0 96 34.5
t24 112.5l170 -10q-7 -152 -75 -219.5t-215 -67.5z" />
    <glyph glyph-name="florin" unicode="&#x192;" 
d="M187 -5q-18 0 -37 1.5t-37 4.5q-19 3 -37 7t-36 10l20 126q15 -5 28.5 -8.5t26.5 -5.5q12 -2 23.5 -3.5t22.5 -1.5q21 0 37 5.5t28 16.5q11 12 17 30t6 43v170h-199v140h200v101q0 48 18 87t52 66t82.5 41t109.5 14q18 0 37 -1.5t37 -4.5q19 -3 37 -7t36 -10l-20 -126
q-15 5 -28.5 8.5t-26.5 5.5q-12 2 -23.5 3.5t-22.5 1.5q-21 0 -37 -5.5t-28 -16.5q-11 -12 -17 -30t-6 -43v-84h200v-140h-200v-187q0 -48 -18 -87t-52 -66t-83 -41t-110 -14z" />
    <glyph glyph-name="asciicircum" unicode="^" 
d="M485 200l-135 352l-135 -352h-195l230 600h200l230 -600h-195z" />
    <glyph glyph-name="asciitilde" unicode="~" 
d="M481 200q-49 0 -88.5 30t-78.5 96q-28 46 -51 85.5t-49 39.5q-22 0 -33 -31.5t-11 -106.5v-103h-120v109q0 136 43 208.5t116 72.5q49 0 88.5 -29.5t79.5 -95.5q28 -47 51.5 -86.5t49.5 -39.5q21 0 31.5 22.5t10.5 76.5v122h120v-129q0 -116 -43 -178.5t-116 -62.5z" />
    <glyph glyph-name="acute" unicode="&#xb4;" 
d="M216 700zM216 700l106 200h250l-225 -200h-131z" />
    <glyph glyph-name="grave" unicode="`" 
d="M394 350l-251 450h283l95 -450h-127z" />
    <glyph glyph-name="hungarumlaut" unicode="&#x2dd;" 
d="M156 700zM386 700l46 200h190l-135 -200h-101zM156 700l46 200h190l-135 -200h-101z" />
    <glyph glyph-name="circumflex" unicode="&#x2c6;" 
d="M89 684zM151 684l-62 84l184 159h152l186 -159l-61 -83l-201 105z" />
    <glyph glyph-name="caron" unicode="&#x2c7;" 
d="M89 704zM275 704l-186 159l61 83l201 -105l198 106l62 -84l-184 -159h-152z" />
    <glyph glyph-name="breve" unicode="&#x2d8;" 
d="M83 693zM350 693q-135 0 -200.5 59t-66.5 181h160q1 -68 25 -94.5t82 -26.5t82 26.5t25 94.5h160q-1 -122 -66.5 -181t-200.5 -59z" />
    <glyph glyph-name="tilde" unicode="&#x2dc;" 
d="M98 710zM446 710q-49 0 -75 15t-42 32q-16 18 -30 32.5t-33 14.5q-16 0 -29 -14.5t-12 -60.5v-9h-127v15q0 83 42 139t116 56q48 0 74 -15t43 -32q17 -18 31 -33t31 -15q16 0 29 14.5t12 60.5v9h127v-15q0 -82 -42 -138t-115 -56z" />
    <glyph glyph-name="macron" unicode="&#x2c9;" 
d="M125 725zM125 725v150h450v-150h-450z" />
    <glyph glyph-name="macron" unicode="&#xaf;" 
d="M125 725zM125 725v150h450v-150h-450z" />
    <glyph glyph-name="dieresis" unicode="&#xa8;" 
d="M122 690zM220 690q-43 0 -70.5 17t-27.5 59v15q0 43 27.5 61t70.5 18q44 0 71 -18t27 -61v-15q0 -42 -27.5 -59t-70.5 -17zM480 690q-43 0 -70.5 17t-27.5 59v15q0 43 27.5 61t70.5 18q44 0 71 -18t27 -61v-15q0 -42 -27.5 -59t-70.5 -17z" />
    <glyph glyph-name="dotaccent" unicode="&#x2d9;" 
d="M222 690zM350 690q-57 0 -92.5 17t-35.5 59v15q0 43 35.5 61t92.5 18t92.5 -18t35.5 -61v-15q0 -42 -36 -59t-92 -17z" />
    <glyph glyph-name="ring" unicode="&#x2da;" 
d="M140 675zM350 675q-94 0 -152 38t-58 117v32q0 80 58 119t152 39q95 0 152.5 -39t57.5 -119v-32q0 -79 -58 -117t-152 -38zM350 766q35 0 53.5 14.5t18.5 49.5v32q0 34 -18.5 50.5t-53.5 16.5q-36 0 -54 -16.5t-18 -50.5v-32q0 -35 18 -49.5t54 -14.5z" />
    <glyph glyph-name="cedilla" unicode="&#xb8;" 
d="M95 0zM320 0l20 42q86 -8 140 -35.5t54 -94.5q0 -75 -67 -106.5t-149 -31.5q-96 0 -157 31.5t-66 104.5l168 10q2 -19 12.5 -26.5t34.5 -7.5q27 0 40.5 10.5t13.5 44.5q0 25 -9 38.5t-35 20.5z" />
    <glyph glyph-name="ogonek" unicode="&#x2db;" 
d="M185 0zM366 -224q-84 0 -132.5 32t-48.5 96q0 66 51 111.5t111 61.5l27 -54q-34 -21 -41.5 -40t-7.5 -36q0 -26 17.5 -38.5t57.5 -12.5q18 0 42 2.5t53 7.5v-116q-36 -7 -68.5 -10.5t-60.5 -3.5z" />
    <glyph glyph-name="tonos" unicode="&#x384;" 
d="M256 700zM256 700l46 200h240l-165 -200h-121z" />
    <glyph glyph-name="dieresistonos" unicode="&#x385;" 
d="M37 690zM261 700l46 200h170l-105 -200h-111zM125 690q-39 0 -63.5 17t-24.5 59v15q0 43 24.5 61t63.5 18q40 0 64 -18t24 -61v-15q0 -42 -25 -59t-63 -17zM575 690q-39 0 -63.5 17t-24.5 59v15q0 43 24.5 61t63.5 18q40 0 64 -18t24 -61v-15q0 -42 -25 -59t-63 -17z" />
    <glyph glyph-name="copyright" unicode="&#xa9;" 
d="M350 -110q-164 0 -247 92t-83 275v222q0 185 83 278t248 93q164 0 246.5 -93t82.5 -278v-222q0 -183 -83 -275t-247 -92zM350 -40q139 0 199.5 74t60.5 243v182q0 171 -60.5 246t-199.5 75t-199.5 -75t-60.5 -246v-182q0 -169 60.5 -243t199.5 -74zM360 70
q-104 0 -149 53t-45 154v190q0 99 45.5 151t147.5 52q88 0 129.5 -53t48.5 -163l-133 -6q-4 67 -13 89.5t-33 22.5q-27 0 -39.5 -24.5t-12.5 -82.5v-166q0 -57 13 -82t41 -25q22 0 31 19.5t13 82.5l133 -6q-7 -107 -48.5 -156.5t-128.5 -49.5z" />
    <glyph glyph-name="registered" unicode="&#xae;" 
d="M350 118q-149 0 -224.5 71t-75.5 212v173q0 143 75.5 214.5t225.5 71.5q149 0 224 -71.5t75 -214.5v-173q0 -141 -75.5 -212t-224.5 -71zM350 180q128 0 183.5 51.5t55.5 169.5v173q0 120 -55.5 172.5t-183.5 52.5t-183.5 -52.5t-55.5 -172.5v-173q0 -118 55.5 -169.5
t183.5 -51.5zM321 506h34q17 0 32.5 7t15.5 30v31q0 28 -15.5 37.5t-32.5 9.5h-34v-115zM321 283h-133v418h183q82 0 123.5 -32t41.5 -95v-31q0 -34 -18.5 -58t-55.5 -36l101 -166h-143l-80 153h-19v-153z" />
    <glyph glyph-name="trademark" unicode="&#x2122;" 
d="M72 351v358h-72v91h252v-91h-61v-358h-119zM392 722l20 -371h-101v449h129l50 -247l50 247h130v-449h-101l19 371l-58 -234h-82z" />
    <glyph glyph-name="degree" unicode="&#xb0;" 
d="M350 316q-103 0 -166.5 44.5t-63.5 137.5v123q0 93 63.5 139t166.5 46q104 0 167 -46t63 -139v-123q0 -93 -63.5 -137.5t-166.5 -44.5zM350 443q37 0 56 17.5t19 57.5v83q0 40 -19 59t-56 19q-38 0 -56.5 -19t-18.5 -59v-83q0 -40 18.5 -57.5t56.5 -17.5z" />
    <glyph glyph-name="careof" unicode="&#x2105;" 
d="M230 591l119 -8q-4 -29 -16 -50.5t-32 -36.5q-20 -14 -47.5 -21t-63.5 -7q-39 0 -70 9.5t-54 28.5q-22 19 -34 48.5t-12 68.5v40q0 39 12 69t35 49q22 20 53.5 29.5t69.5 9.5q36 0 64 -7t48 -22q20 -14 31.5 -36t15.5 -52l-119 -18q0 9 -2.5 15t-8.5 11q-5 4 -12.5 6
t-16.5 2t-17 -3.5t-13 -9.5q-5 -7 -8 -17t-3 -24v-54q0 -14 3 -23.5t8 -16.5q5 -6 12.5 -9t17.5 -3t17 2t12 5q6 4 8.5 10.5t2.5 14.5zM31 193l568 502l78 -89l-576 -505zM511 -22q-39 0 -70 9.5t-54 28.5q-22 19 -34 48.5t-12 68.5v40q0 39 12 69t35 49q22 20 53.5 29.5
t69.5 9.5q39 0 70 -9.5t53 -29.5q22 -19 34 -49t12 -69v-40q0 -39 -12 -68.5t-34 -48.5q-23 -19 -54 -28.5t-69 -9.5zM511 69q10 0 17 3t12 9q6 7 8.5 16.5t2.5 23.5v54q0 14 -2.5 24t-8.5 17q-5 6 -12.5 9.5t-16.5 3.5t-17 -3.5t-13 -9.5q-5 -7 -8 -17t-3 -24v-54
q0 -14 3 -23.5t8 -16.5q5 -6 12.5 -9t17.5 -3z" />
    <glyph glyph-name="uni2117" unicode="&#x2117;" 
d="M350 -110q-154 0 -232 92t-78 275v222q0 185 78 278t233 93q154 0 231.5 -93t77.5 -278v-222q0 -183 -78 -275t-232 -92zM350 -40q128 0 184 74t56 243v182q0 171 -56 246t-184 75t-184 -75t-56 -246v-182q0 -169 56 -243t184 -74zM181 94v560h181q94 0 141.5 -44
t47.5 -132v-42q0 -85 -47.5 -128.5t-142.5 -43.5h-30v-170h-150zM331 372h30q17 0 33.5 11.5t16.5 52.5v42q0 40 -16.5 53t-33.5 13h-30v-172z" />
    <glyph glyph-name="estimated" unicode="&#x212e;" 
d="M345 -12q-143 0 -230 122.5t-87 291.5q0 171 86 292t235 121q150 0 233 -138t87 -327h-457v-240q25 -25 59 -38.5t74 -13.5q78 0 132 33.5t91 92.5l48 -60q-43 -65 -109.5 -100.5t-161.5 -35.5zM212 430h269v260q-22 24 -57 39.5t-77 15.5q-39 0 -75.5 -12t-59.5 -40
v-263z" />
    <glyph glyph-name="arrowupdn" unicode="&#x2195;" 
d="M360 -150h-20l-340 380v20h250v300h-250v20l340 380h20l340 -380v-20h-250v-300h250v-20z" />
    <glyph glyph-name="arrowupdnbse" unicode="&#x21a8;" 
d="M0 0zM60 -260v160h580v-160h-580zM360 -150h-20l-340 380v20h250v300h-250v20l340 380h20l340 -380v-20h-250v-300h250v-20z" />
    <glyph glyph-name="logicalnotreversed" unicode="&#x2310;" 
d="M0 0v430h700v-160h-540v-270h-160z" />
    <glyph glyph-name="lighthorzbxd" unicode="&#x2500;" 
d="M-20 350h740v-100h-740v100z" />
    <glyph glyph-name="heavyhorzbxd" unicode="&#x2501;" 
d="M-20 400h740v-200h-740v200z" />
    <glyph glyph-name="lightvertbxd" unicode="&#x2502;" 
d="M300 1050h100v-1500h-100v1500z" />
    <glyph glyph-name="heavyvertbxd" unicode="&#x2503;" 
d="M250 1050h200v-1500h-200v1500z" />
    <glyph glyph-name="lighttrpldashhorzbxd" unicode="&#x2504;" 
d="M38 350h156v-100h-156v100zM271 350h156v-100h-156v100zM504 350h156v-100h-156v100z" />
    <glyph glyph-name="heavytrpldashhorzbxd" unicode="&#x2505;" 
d="M38 400h156v-200h-156v200zM271 400h156v-200h-156v200zM504 400h156v-200h-156v200z" />
    <glyph glyph-name="lighttrpldashvertbxd" unicode="&#x2506;" 
d="M300 55h100v-244h-100v244zM300 421h100v-244h-100v244zM300 787h100v-244h-100v244zM300 1153h100v-244h-100v244z" />
    <glyph glyph-name="heavytrpldashvertbxd" unicode="&#x2507;" 
d="M250 55h200v-244h-200v244zM250 421h200v-244h-200v244zM250 787h200v-244h-200v244zM250 1153h200v-244h-200v244z" />
    <glyph glyph-name="lightquaddashhorzbxd" unicode="&#x2508;" 
d="M21 350h132v-100h-132v100zM196 350h132v-100h-132v100zM371 350h132v-100h-132v100zM546 350h132v-100h-132v100z" />
    <glyph glyph-name="heavyquaddashhorzbxd" unicode="&#x2509;" 
d="M21 400h132v-200h-132v200zM196 400h132v-200h-132v200zM371 400h132v-200h-132v200zM546 400h132v-200h-132v200z" />
    <glyph glyph-name="lightquaddashvertbxd" unicode="&#x250a;" 
d="M300 -9h100v-207h-100v207zM300 266h100v-207h-100v207zM300 541h100v-207h-100v207zM300 816h100v-207h-100v207z" />
    <glyph glyph-name="heavyquaddashvertbxd" unicode="&#x250b;" 
d="M250 -9h200v-207h-200v207zM250 266h200v-207h-200v207zM250 541h200v-207h-200v207zM250 816h200v-207h-200v207z" />
    <glyph glyph-name="lightdnrightbxd" unicode="&#x250c;" 
d="M300 350h420v-100h-320v-700h-100v800z" />
    <glyph glyph-name="dnlightrightheavybxd" unicode="&#x250d;" 
d="M300 400h420v-200h-320v-650h-100v850z" />
    <glyph glyph-name="dnheavyrightlightbxd" unicode="&#x250e;" 
d="M250 350h470v-100h-270v-700h-200v800z" />
    <glyph glyph-name="heavydnrightbxd" unicode="&#x250f;" 
d="M250 400h470v-200h-270v-650h-200v850z" />
    <glyph glyph-name="lightdnleftbxd" unicode="&#x2510;" 
d="M-20 350h420v-800h-100v700h-320v100z" />
    <glyph glyph-name="dnlightleftheavybxd" unicode="&#x2511;" 
d="M-20 400h420v-850h-100v650h-320v200z" />
    <glyph glyph-name="dnheavyleftlightbxd" unicode="&#x2512;" 
d="M-20 350h470v-800h-200v700h-270v100z" />
    <glyph glyph-name="heavydnleftbxd" unicode="&#x2513;" 
d="M-20 400h470v-850h-200v650h-270v200z" />
    <glyph glyph-name="lightuprightbxd" unicode="&#x2514;" 
d="M300 1050h100v-700h320v-100h-420v800z" />
    <glyph glyph-name="uplightrightheavybxd" unicode="&#x2515;" 
d="M300 1050h100v-650h320v-200h-420v850z" />
    <glyph glyph-name="upheavyrightlightbxd" unicode="&#x2516;" 
d="M250 1050h200v-700h270v-100h-470v800z" />
    <glyph glyph-name="heavyuprightbxd" unicode="&#x2517;" 
d="M250 1050h200v-650h270v-200h-470v850z" />
    <glyph glyph-name="lightupleftbxd" unicode="&#x2518;" 
d="M-20 350h320v700h100v-800h-420v100z" />
    <glyph glyph-name="uplightleftheavybxd" unicode="&#x2519;" 
d="M-20 400h320v650h100v-850h-420v200z" />
    <glyph glyph-name="upheavyleftlightbxd" unicode="&#x251a;" 
d="M-20 350h270v700h200v-800h-470v100z" />
    <glyph glyph-name="heavyupleftbxd" unicode="&#x251b;" 
d="M-20 400h270v650h200v-850h-470v200z" />
    <glyph glyph-name="lightvertrightbxd" unicode="&#x251c;" 
d="M300 1050h100v-700h320v-100h-320v-700h-100v1500z" />
    <glyph glyph-name="vertlightrightheavybxd" unicode="&#x251d;" 
d="M300 1050h100v-650h320v-200h-320v-650h-100v1500z" />
    <glyph glyph-name="upheavyrightdnlightbxd" unicode="&#x251e;" 
d="M250 1050h200v-700h270v-100h-320v-700h-100v700h-50v800z" />
    <glyph glyph-name="dnheavyrightuplightbxd" unicode="&#x251f;" 
d="M250 350h50v700h100v-700h320v-100h-270v-700h-200v800z" />
    <glyph glyph-name="vertheavyrightlightbxd" unicode="&#x2520;" 
d="M250 1050h200v-700h270v-100h-270v-700h-200v1500z" />
    <glyph glyph-name="dnlightrightupheavybxd" unicode="&#x2521;" 
d="M250 1050h200v-650h270v-200h-320v-650h-100v650h-50v850z" />
    <glyph glyph-name="uplightrightdnheavybxd" unicode="&#x2522;" 
d="M250 400h50v650h100v-650h320v-200h-270v-650h-200v850z" />
    <glyph glyph-name="heavyvertrightbxd" unicode="&#x2523;" 
d="M250 1050h200v-650h270v-200h-270v-650h-200v1500z" />
    <glyph glyph-name="lightvertleftbxd" unicode="&#x2524;" 
d="M-20 350h320v700h100v-1500h-100v700h-320v100z" />
    <glyph glyph-name="vertlightleftheavybxd" unicode="&#x2525;" 
d="M-20 400h320v650h100v-1500h-100v650h-320v200z" />
    <glyph glyph-name="upheavyleftdnlightbxd" unicode="&#x2526;" 
d="M-20 350h270v700h200v-800h-50v-700h-100v700h-320v100z" />
    <glyph glyph-name="dnheavyleftuplightbxd" unicode="&#x2527;" 
d="M-20 350h320v700h100v-700h50v-800h-200v700h-270v100z" />
    <glyph glyph-name="vertheavyleftlightbxd" unicode="&#x2528;" 
d="M-20 350h270v700h200v-1500h-200v700h-270v100z" />
    <glyph glyph-name="dnlightleftupheavybxd" unicode="&#x2529;" 
d="M-20 400h270v650h200v-850h-50v-650h-100v650h-320v200z" />
    <glyph glyph-name="uplightleftdnheavybxd" unicode="&#x252a;" 
d="M-20 400h320v650h100v-650h50v-850h-200v650h-270v200z" />
    <glyph glyph-name="heavyvertleftbxd" unicode="&#x252b;" 
d="M-20 400h270v650h200v-1500h-200v650h-270v200z" />
    <glyph glyph-name="lightdnhorzbxd" unicode="&#x252c;" 
d="M-20 350h740v-100h-320v-700h-100v700h-320v100z" />
    <glyph glyph-name="leftheavyrightdnlightbxd" unicode="&#x252d;" 
d="M-20 400h420v-50h320v-100h-320v-700h-100v650h-320v200z" />
    <glyph glyph-name="rightheavyleftdnlightbxd" unicode="&#x252e;" 
d="M-20 350h320v50h420v-200h-320v-650h-100v700h-320v100z" />
    <glyph glyph-name="dnlighthorzheavybxd" unicode="&#x252f;" 
d="M-20 400h740v-200h-320v-650h-100v650h-320v200z" />
    <glyph glyph-name="dnheavyhorzlightbxd" unicode="&#x2530;" 
d="M-20 350h740v-100h-270v-700h-200v700h-270v100z" />
    <glyph glyph-name="rightlightleftdnheavybxd" unicode="&#x2531;" 
d="M-20 400h470v-50h270v-100h-270v-700h-200v650h-270v200z" />
    <glyph glyph-name="leftlightrightdnheavybxd" unicode="&#x2532;" 
d="M-20 350h270v50h470v-200h-270v-650h-200v700h-270v100z" />
    <glyph glyph-name="heavydnhorzbxd" unicode="&#x2533;" 
d="M-20 400h740v-200h-270v-650h-200v650h-270v200z" />
    <glyph glyph-name="lightuphorzbxd" unicode="&#x2534;" 
d="M-20 350h320v700h100v-700h320v-100h-740v100z" />
    <glyph glyph-name="leftheavyrightuplightbxd" unicode="&#x2535;" 
d="M-20 400h320v650h100v-700h320v-100h-320v-50h-420v200z" />
    <glyph glyph-name="rightheavyleftuplightbxd" unicode="&#x2536;" 
d="M-20 350h320v700h100v-650h320v-200h-420v50h-320v100z" />
    <glyph glyph-name="uplighthorzheavybxd" unicode="&#x2537;" 
d="M-20 400h320v650h100v-650h320v-200h-740v200z" />
    <glyph glyph-name="upheavyhorzlightbxd" unicode="&#x2538;" 
d="M-20 350h270v700h200v-700h270v-100h-740v100z" />
    <glyph glyph-name="rightlightleftupheavybxd" unicode="&#x2539;" 
d="M-20 400h270v650h200v-700h270v-100h-270v-50h-470v200z" />
    <glyph glyph-name="leftlightrightupheavybxd" unicode="&#x253a;" 
d="M-20 350h270v700h200v-650h270v-200h-470v50h-270v100z" />
    <glyph glyph-name="heavyuphorzbxd" unicode="&#x253b;" 
d="M-20 400h270v650h200v-650h270v-200h-740v200z" />
    <glyph glyph-name="lightverthorzbxd" unicode="&#x253c;" 
d="M-20 350h320v700h100v-700h320v-100h-320v-700h-100v700h-320v100z" />
    <glyph glyph-name="leftheavyrightvertlightbxd" unicode="&#x253d;" 
d="M-20 400h320v650h100v-700h320v-100h-320v-700h-100v650h-320v200z" />
    <glyph glyph-name="rightheavyleftvertlightbxd" unicode="&#x253e;" 
d="M-20 350h320v700h100v-650h320v-200h-320v-650h-100v700h-320v100z" />
    <glyph glyph-name="vertlighthorzheavybxd" unicode="&#x253f;" 
d="M-20 400h320v650h100v-650h320v-200h-320v-650h-100v650h-320v200z" />
    <glyph glyph-name="upheavydnhorzlightbxd" unicode="&#x2540;" 
d="M-20 350h270v700h200v-700h270v-100h-320v-700h-100v700h-320v100z" />
    <glyph glyph-name="dnheavyuphorzlightbxd" unicode="&#x2541;" 
d="M-20 350h320v700h100v-700h320v-100h-270v-700h-200v700h-270v100z" />
    <glyph glyph-name="vertheavyhorzlightbxd" unicode="&#x2542;" 
d="M-20 350h270v700h200v-700h270v-100h-270v-700h-200v700h-270v100z" />
    <glyph glyph-name="leftupheavyrightdnlightbxd" unicode="&#x2543;" 
d="M-20 400h270v650h200v-700h270v-100h-270v-50h-50v-650h-100v650h-320v200z" />
    <glyph glyph-name="rightupheavyleftdnlightbxd" unicode="&#x2544;" 
d="M-20 350h270v700h200v-650h270v-200h-320v-650h-100v650h-50v50h-270v100z" />
    <glyph glyph-name="leftdnheavyrightuplightbxd" unicode="&#x2545;" 
d="M-20 400h320v650h100v-650h50v-50h270v-100h-270v-700h-200v650h-270v200z" />
    <glyph glyph-name="rightdnheavyleftuplightbxd" unicode="&#x2546;" 
d="M-20 350h270v50h50v650h100v-650h320v-200h-270v-650h-200v700h-270v100z" />
    <glyph glyph-name="dnlightuphorzheavybxd" unicode="&#x2547;" 
d="M-20 400h270v650h200v-650h270v-200h-320v-650h-100v650h-320v200z" />
    <glyph glyph-name="uplightdnhorzheavybxd" unicode="&#x2548;" 
d="M-20 400h320v650h100v-650h320v-200h-270v-650h-200v650h-270v200z" />
    <glyph glyph-name="rightlightleftvertheavybxd" unicode="&#x2549;" 
d="M-20 400h270v650h200v-700h270v-100h-270v-700h-200v650h-270v200z" />
    <glyph glyph-name="leftlightrightvertheavybxd" unicode="&#x254a;" 
d="M-20 350h270v700h200v-650h270v-200h-270v-650h-200v700h-270v100z" />
    <glyph glyph-name="heavyverthorzbxd" unicode="&#x254b;" 
d="M-20 400h270v650h200v-650h270v-200h-270v-650h-200v650h-270v200z" />
    <glyph glyph-name="lightdbldashhorzbxd" unicode="&#x254c;" 
d="M87 350h175v-100h-175v100zM437 350h175v-100h-175v100z" />
    <glyph glyph-name="heavydbldashhorzbxd" unicode="&#x254d;" 
d="M87 400h175v-200h-175v200zM437 400h175v-200h-175v200z" />
    <glyph glyph-name="lightdbldashvertbxd" unicode="&#x254e;" 
d="M300 162h100v-275h-100v275zM300 712h100v-275h-100v275z" />
    <glyph glyph-name="heavydbldashvertbxd" unicode="&#x254f;" 
d="M250 162h200v-275h-200v275zM250 712h200v-275h-200v275z" />
    <glyph glyph-name="dblhorzbxd" unicode="&#x2550;" 
d="M-20 450h740v-100h-740v100zM-20 250h740v-100h-740v100z" />
    <glyph glyph-name="dblvertbxd" unicode="&#x2551;" 
d="M200 1050h100v-1500h-100v1500zM400 1050h100v-1500h-100v1500z" />
    <glyph glyph-name="dnsngrightdblbxd" unicode="&#x2552;" 
d="M300 450h420v-100h-320v-100h320v-100h-320v-600h-100v900z" />
    <glyph glyph-name="dndblrightsngbxd" unicode="&#x2553;" 
d="M200 350h520v-100h-220v-700h-100v700h-100v-700h-100v800z" />
    <glyph glyph-name="dbldnrightbxd" unicode="&#x2554;" 
d="M200 450h520v-100h-420v-800h-100v900zM400 250h320v-100h-220v-600h-100v700z" />
    <glyph glyph-name="dnsngleftdblbxd" unicode="&#x2555;" 
d="M-20 450h420v-900h-100v600h-320v100h320v100h-320v100z" />
    <glyph glyph-name="dndblleftsngbxd" unicode="&#x2556;" 
d="M-20 350h520v-800h-100v700h-100v-700h-100v700h-220v100z" />
    <glyph glyph-name="dbldnleftbxd" unicode="&#x2557;" 
d="M-20 450h520v-900h-100v800h-420v100zM-20 250h320v-700h-100v600h-220v100z" />
    <glyph glyph-name="upsngrightdblbxd" unicode="&#x2558;" 
d="M300 1050h100v-600h320v-100h-320v-100h320v-100h-420v900z" />
    <glyph glyph-name="updblrightsngbxd" unicode="&#x2559;" 
d="M200 1050h100v-700h100v700h100v-700h220v-100h-520v800z" />
    <glyph glyph-name="dbluprightbxd" unicode="&#x255a;" 
d="M200 1050h100v-800h420v-100h-520v900zM400 1050h100v-600h220v-100h-320v700z" />
    <glyph glyph-name="upsngleftdblbxd" unicode="&#x255b;" 
d="M-20 450h320v600h100v-900h-420v100h320v100h-320v100z" />
    <glyph glyph-name="updblleftsngbxd" unicode="&#x255c;" 
d="M-20 350h220v700h100v-700h100v700h100v-800h-520v100z" />
    <glyph glyph-name="dblupleftbxd" unicode="&#x255d;" 
d="M-20 250h420v800h100v-900h-520v100zM-20 450h220v600h100v-700h-320v100z" />
    <glyph glyph-name="vertsngrightdblbxd" unicode="&#x255e;" 
d="M300 1050h100v-600h320v-100h-320v-100h320v-100h-320v-600h-100v1500z" />
    <glyph glyph-name="vertdblrightsngbxd" unicode="&#x255f;" 
d="M400 1050h100v-700h220v-100h-220v-700h-100v1500zM200 1050h100v-1500h-100v1500z" />
    <glyph glyph-name="dblvertrightbxd" unicode="&#x2560;" 
d="M200 1050h100v-1500h-100v1500zM400 1050h100v-600h220v-100h-320v700zM400 250h320v-100h-220v-600h-100v700z" />
    <glyph glyph-name="vertsngleftdblbxd" unicode="&#x2561;" 
d="M-20 450h320v600h100v-1500h-100v600h-320v100h320v100h-320v100z" />
    <glyph glyph-name="vertdblleftsngbxd" unicode="&#x2562;" 
d="M-20 350h220v700h100v-1500h-100v700h-220v100zM400 1050h100v-1500h-100v1500z" />
    <glyph glyph-name="dblvertleftbxd" unicode="&#x2563;" 
d="M400 1050h100v-1500h-100v1500zM-20 250h320v-700h-100v600h-220v100zM-20 450h220v600h100v-700h-320v100z" />
    <glyph glyph-name="dnsnghorzdblbxd" unicode="&#x2564;" 
d="M-20 250h740v-100h-320v-600h-100v600h-320v100zM-20 450h740v-100h-740v100z" />
    <glyph glyph-name="dndblhorzsngbxd" unicode="&#x2565;" 
d="M-20 350h740v-100h-220v-700h-100v700h-100v-700h-100v700h-220v100z" />
    <glyph glyph-name="dbldnhorzbxd" unicode="&#x2566;" 
d="M-20 250h320v-700h-100v600h-220v100zM400 250h320v-100h-220v-600h-100v700zM-20 450h740v-100h-740v100z" />
    <glyph glyph-name="upsnghorzdblbxd" unicode="&#x2567;" 
d="M-20 450h320v600h100v-600h320v-100h-740v100zM-20 250h740v-100h-740v100z" />
    <glyph glyph-name="updblhorzsngbxd" unicode="&#x2568;" 
d="M-20 350h220v700h100v-700h100v700h100v-700h220v-100h-740v100z" />
    <glyph glyph-name="dbluphorzbxd" unicode="&#x2569;" 
d="M-20 450h220v600h100v-700h-320v100zM400 1050h100v-600h220v-100h-320v700zM-20 250h740v-100h-740v100z" />
    <glyph glyph-name="vertsnghorzdblbxd" unicode="&#x256a;" 
d="M-20 450h320v600h100v-600h320v-100h-320v-100h320v-100h-320v-600h-100v600h-320v100h320v100h-320v100z" />
    <glyph glyph-name="vertdblhorzsngbxd" unicode="&#x256b;" 
d="M-20 350h220v700h100v-700h100v700h100v-700h220v-100h-220v-700h-100v700h-100v-700h-100v700h-220v100z" />
    <glyph glyph-name="dblverthorzbxd" unicode="&#x256c;" 
d="M-20 450h220v600h100v-700h-320v100zM-20 250h320v-700h-100v600h-220v100zM400 1050h100v-600h220v-100h-320v700zM400 250h320v-100h-220v-600h-100v700z" />
    <glyph glyph-name="lightarcdnrightbxd" unicode="&#x256d;" 
d="M300 -50q0 83 31.5 156t85.5 127t127 85.5t156 31.5h20v-100h-20q-62 0 -117 -23.5t-95.5 -64t-64 -95.5t-23.5 -117v-400h-100v400z" />
    <glyph glyph-name="lightarcdnleftbxd" unicode="&#x256e;" 
d="M400 -450h-100v400q0 62 -23.5 117t-64 95.5t-95.5 64t-117 23.5h-20v100h20q83 0 156 -31.5t127 -85.5t85.5 -127t31.5 -156v-400z" />
    <glyph glyph-name="lightarcupleftbxd" unicode="&#x256f;" 
d="M400 650q0 -83 -31.5 -156t-85.5 -127t-127 -85.5t-156 -31.5h-20v100h20q62 0 117 23.5t95.5 64t64 95.5t23.5 117v400h100v-400z" />
    <glyph glyph-name="lightarcuprightbxd" unicode="&#x2570;" 
d="M300 1050h100v-400q0 -62 23.5 -117t64 -95.5t95.5 -64t117 -23.5h20v-100h-20q-83 0 -156 31.5t-127 85.5t-85.5 127t-31.5 156v400z" />
    <glyph glyph-name="lightdiaguprightdnleftbxd" unicode="&#x2571;" 
d="M641 850h59v-93l-641 -1007h-59v93z" />
    <glyph glyph-name="lightdiagupleftdnrightbxd" unicode="&#x2572;" 
d="M700 -157v-93h-59l-641 1007v93h59z" />
    <glyph glyph-name="lightdiagcrossbxd" unicode="&#x2573;" 
d="M291 300l-291 457v93h59l291 -458l291 458h59v-93l-291 -457l291 -457v-93h-59l-291 457l-291 -457h-59v93z" />
    <glyph glyph-name="lightleftbxd" unicode="&#x2574;" 
d="M-20 350h420v-100h-420v100z" />
    <glyph glyph-name="lightupbxd" unicode="&#x2575;" 
d="M300 1050h100v-800h-100v800z" />
    <glyph glyph-name="lightrightbxd" unicode="&#x2576;" 
d="M300 350h420v-100h-420v100z" />
    <glyph glyph-name="lightdnbxd" unicode="&#x2577;" 
d="M300 350h100v-800h-100v800z" />
    <glyph glyph-name="heavyleftbxd" unicode="&#x2578;" 
d="M-20 400h420v-200h-420v200z" />
    <glyph glyph-name="heavyupbxd" unicode="&#x2579;" 
d="M250 1050h200v-800h-200v800z" />
    <glyph glyph-name="heavyrightbxd" unicode="&#x257a;" 
d="M300 400h420v-200h-420v200z" />
    <glyph glyph-name="heavydnbxd" unicode="&#x257b;" 
d="M250 350h200v-800h-200v800z" />
    <glyph glyph-name="lightleftheavyrightbxd" unicode="&#x257c;" 
d="M-20 350h320v50h420v-200h-420v50h-320v100z" />
    <glyph glyph-name="lightupheavydnbxd" unicode="&#x257d;" 
d="M250 350h50v700h100v-700h50v-800h-200v800z" />
    <glyph glyph-name="heavyleftlightrightbxd" unicode="&#x257e;" 
d="M-20 400h420v-50h320v-100h-320v-50h-420v200z" />
    <glyph glyph-name="heavyuplightdnbxd" unicode="&#x257f;" 
d="M250 1050h200v-800h-50v-700h-100v700h-50v800z" />
    <glyph glyph-name="uphalfblock" unicode="&#x2580;" 
d="M0 850h700v-550h-700v550z" />
    <glyph glyph-name="dneighthblock" unicode="&#x2581;" 
d="M0 -113h700v-137h-700v137z" />
    <glyph glyph-name="dnquarterblock" unicode="&#x2582;" 
d="M0 25h700v-275h-700v275z" />
    <glyph glyph-name="dnthreeeighthsblock" unicode="&#x2583;" 
d="M0 162h700v-412h-700v412z" />
    <glyph glyph-name="dnhalfblock" unicode="&#x2584;" 
d="M0 300h700v-550h-700v550z" />
    <glyph glyph-name="dnfiveeighthsblock" unicode="&#x2585;" 
d="M0 437h700v-687h-700v687z" />
    <glyph glyph-name="dnthreequartersblock" unicode="&#x2586;" 
d="M0 575h700v-825h-700v825z" />
    <glyph glyph-name="dnseveneighthsblock" unicode="&#x2587;" 
d="M0 712h700v-962h-700v962z" />
    <glyph glyph-name="fullblock" unicode="&#x2588;" 
d="M0 850h700v-1100h-700v1100z" />
    <glyph glyph-name="leftseveneighthsblock" unicode="&#x2589;" 
d="M0 850h612v-1100h-612v1100z" />
    <glyph glyph-name="leftthreequartersblock" unicode="&#x258a;" 
d="M0 850h525v-1100h-525v1100z" />
    <glyph glyph-name="leftfiveeighthsblock" unicode="&#x258b;" 
d="M0 850h437v-1100h-437v1100z" />
    <glyph glyph-name="lefthalfblock" unicode="&#x258c;" 
d="M0 850h350v-1100h-350v1100z" />
    <glyph glyph-name="leftthreeeighthsblock" unicode="&#x258d;" 
d="M0 850h262v-1100h-262v1100z" />
    <glyph glyph-name="leftquarterblock" unicode="&#x258e;" 
d="M0 850h175v-1100h-175v1100z" />
    <glyph glyph-name="lefteighthblock" unicode="&#x258f;" 
d="M0 850h87v-1100h-87v1100z" />
    <glyph glyph-name="righthalfblock" unicode="&#x2590;" 
d="M350 850h350v-1100h-350v1100z" />
    <glyph glyph-name="lightshade" unicode="&#x2591;" 
d="M0 -220h20v-30h-20v30zM50 -170h20v-30h-20v30zM0 -120h20v-30h-20v30zM50 -70h20v-30h-20v30zM0 -20h20v-30h-20v30zM50 30h20v-30h-20v30zM0 80h20v-30h-20v30zM50 130h20v-30h-20v30zM0 180h20v-30h-20v30zM50 230h20v-30h-20v30zM0 280h20v-30h-20v30zM50 330h20v-30
h-20v30zM0 380h20v-30h-20v30zM50 430h20v-30h-20v30zM0 480h20v-30h-20v30zM50 530h20v-30h-20v30zM0 580h20v-30h-20v30zM50 630h20v-30h-20v30zM0 680h20v-30h-20v30zM50 730h20v-30h-20v30zM0 780h20v-30h-20v30zM50 830h20v-30h-20v30zM100 -220h20v-30h-20v30z
M150 -170h20v-30h-20v30zM100 -120h20v-30h-20v30zM150 -70h20v-30h-20v30zM100 -20h20v-30h-20v30zM150 30h20v-30h-20v30zM100 80h20v-30h-20v30zM150 130h20v-30h-20v30zM100 180h20v-30h-20v30zM150 230h20v-30h-20v30zM100 280h20v-30h-20v30zM150 330h20v-30h-20v30z
M100 380h20v-30h-20v30zM150 430h20v-30h-20v30zM100 480h20v-30h-20v30zM150 530h20v-30h-20v30zM100 580h20v-30h-20v30zM150 630h20v-30h-20v30zM100 680h20v-30h-20v30zM150 730h20v-30h-20v30zM100 780h20v-30h-20v30zM150 830h20v-30h-20v30zM200 -220h20v-30h-20v30z
M250 -170h20v-30h-20v30zM200 -120h20v-30h-20v30zM250 -70h20v-30h-20v30zM200 -20h20v-30h-20v30zM250 30h20v-30h-20v30zM200 80h20v-30h-20v30zM250 130h20v-30h-20v30zM200 180h20v-30h-20v30zM250 230h20v-30h-20v30zM200 280h20v-30h-20v30zM250 330h20v-30h-20v30z
M200 380h20v-30h-20v30zM250 430h20v-30h-20v30zM200 480h20v-30h-20v30zM250 530h20v-30h-20v30zM200 580h20v-30h-20v30zM250 630h20v-30h-20v30zM200 680h20v-30h-20v30zM250 730h20v-30h-20v30zM200 780h20v-30h-20v30zM250 830h20v-30h-20v30zM300 -220h20v-30h-20v30z
M350 -170h20v-30h-20v30zM300 -120h20v-30h-20v30zM350 -70h20v-30h-20v30zM300 -20h20v-30h-20v30zM350 30h20v-30h-20v30zM300 80h20v-30h-20v30zM350 130h20v-30h-20v30zM300 180h20v-30h-20v30zM350 230h20v-30h-20v30zM300 280h20v-30h-20v30zM350 330h20v-30h-20v30z
M300 380h20v-30h-20v30zM350 430h20v-30h-20v30zM300 480h20v-30h-20v30zM350 530h20v-30h-20v30zM300 580h20v-30h-20v30zM350 630h20v-30h-20v30zM300 680h20v-30h-20v30zM350 730h20v-30h-20v30zM300 780h20v-30h-20v30zM350 830h20v-30h-20v30zM400 -220h20v-30h-20v30z
M450 -170h20v-30h-20v30zM400 -120h20v-30h-20v30zM450 -70h20v-30h-20v30zM400 -20h20v-30h-20v30zM450 30h20v-30h-20v30zM400 80h20v-30h-20v30zM450 130h20v-30h-20v30zM400 180h20v-30h-20v30zM450 230h20v-30h-20v30zM400 280h20v-30h-20v30zM450 330h20v-30h-20v30z
M400 380h20v-30h-20v30zM450 430h20v-30h-20v30zM400 480h20v-30h-20v30zM450 530h20v-30h-20v30zM400 580h20v-30h-20v30zM450 630h20v-30h-20v30zM400 680h20v-30h-20v30zM450 730h20v-30h-20v30zM400 780h20v-30h-20v30zM450 830h20v-30h-20v30zM500 -220h20v-30h-20v30z
M550 -170h20v-30h-20v30zM500 -120h20v-30h-20v30zM550 -70h20v-30h-20v30zM500 -20h20v-30h-20v30zM550 30h20v-30h-20v30zM500 80h20v-30h-20v30zM550 130h20v-30h-20v30zM500 180h20v-30h-20v30zM550 230h20v-30h-20v30zM500 280h20v-30h-20v30zM550 330h20v-30h-20v30z
M500 380h20v-30h-20v30zM550 430h20v-30h-20v30zM500 480h20v-30h-20v30zM550 530h20v-30h-20v30zM500 580h20v-30h-20v30zM550 630h20v-30h-20v30zM500 680h20v-30h-20v30zM550 730h20v-30h-20v30zM500 780h20v-30h-20v30zM550 830h20v-30h-20v30zM600 -220h20v-30h-20v30z
M650 -170h20v-30h-20v30zM600 -120h20v-30h-20v30zM650 -70h20v-30h-20v30zM600 -20h20v-30h-20v30zM650 30h20v-30h-20v30zM600 80h20v-30h-20v30zM650 130h20v-30h-20v30zM600 180h20v-30h-20v30zM650 230h20v-30h-20v30zM600 280h20v-30h-20v30zM650 330h20v-30h-20v30z
M600 380h20v-30h-20v30zM650 430h20v-30h-20v30zM600 480h20v-30h-20v30zM650 530h20v-30h-20v30zM600 580h20v-30h-20v30zM650 630h20v-30h-20v30zM600 680h20v-30h-20v30zM650 730h20v-30h-20v30zM600 780h20v-30h-20v30zM650 830h20v-30h-20v30z" />
    <glyph glyph-name="mediumshade" unicode="&#x2592;" 
d="M0 -200h40v-50h-40v50zM50 -150h40v-50h-40v50zM0 -100h40v-50h-40v50zM50 -50h40v-50h-40v50zM0 0h40v-50h-40v50zM50 50h40v-50h-40v50zM0 100h40v-50h-40v50zM50 150h40v-50h-40v50zM0 200h40v-50h-40v50zM50 250h40v-50h-40v50zM0 300h40v-50h-40v50zM50 350h40v-50
h-40v50zM0 400h40v-50h-40v50zM50 450h40v-50h-40v50zM0 500h40v-50h-40v50zM50 550h40v-50h-40v50zM0 600h40v-50h-40v50zM50 650h40v-50h-40v50zM0 700h40v-50h-40v50zM50 750h40v-50h-40v50zM0 800h40v-50h-40v50zM50 850h40v-50h-40v50zM100 -200h40v-50h-40v50z
M150 -150h40v-50h-40v50zM100 -100h40v-50h-40v50zM150 -50h40v-50h-40v50zM100 0h40v-50h-40v50zM150 50h40v-50h-40v50zM100 100h40v-50h-40v50zM150 150h40v-50h-40v50zM100 200h40v-50h-40v50zM150 250h40v-50h-40v50zM100 300h40v-50h-40v50zM150 350h40v-50h-40v50z
M100 400h40v-50h-40v50zM150 450h40v-50h-40v50zM100 500h40v-50h-40v50zM150 550h40v-50h-40v50zM100 600h40v-50h-40v50zM150 650h40v-50h-40v50zM100 700h40v-50h-40v50zM150 750h40v-50h-40v50zM100 800h40v-50h-40v50zM150 850h40v-50h-40v50zM200 -200h40v-50h-40v50z
M250 -150h40v-50h-40v50zM200 -100h40v-50h-40v50zM250 -50h40v-50h-40v50zM200 0h40v-50h-40v50zM250 50h40v-50h-40v50zM200 100h40v-50h-40v50zM250 150h40v-50h-40v50zM200 200h40v-50h-40v50zM250 250h40v-50h-40v50zM200 300h40v-50h-40v50zM250 350h40v-50h-40v50z
M200 400h40v-50h-40v50zM250 450h40v-50h-40v50zM200 500h40v-50h-40v50zM250 550h40v-50h-40v50zM200 600h40v-50h-40v50zM250 650h40v-50h-40v50zM200 700h40v-50h-40v50zM250 750h40v-50h-40v50zM200 800h40v-50h-40v50zM250 850h40v-50h-40v50zM300 -200h40v-50h-40v50z
M350 -150h40v-50h-40v50zM300 -100h40v-50h-40v50zM350 -50h40v-50h-40v50zM300 0h40v-50h-40v50zM350 50h40v-50h-40v50zM300 100h40v-50h-40v50zM350 150h40v-50h-40v50zM300 200h40v-50h-40v50zM350 250h40v-50h-40v50zM300 300h40v-50h-40v50zM350 350h40v-50h-40v50z
M300 400h40v-50h-40v50zM350 450h40v-50h-40v50zM300 500h40v-50h-40v50zM350 550h40v-50h-40v50zM300 600h40v-50h-40v50zM350 650h40v-50h-40v50zM300 700h40v-50h-40v50zM350 750h40v-50h-40v50zM300 800h40v-50h-40v50zM350 850h40v-50h-40v50zM400 -200h40v-50h-40v50z
M450 -150h40v-50h-40v50zM400 -100h40v-50h-40v50zM450 -50h40v-50h-40v50zM400 0h40v-50h-40v50zM450 50h40v-50h-40v50zM400 100h40v-50h-40v50zM450 150h40v-50h-40v50zM400 200h40v-50h-40v50zM450 250h40v-50h-40v50zM400 300h40v-50h-40v50zM450 350h40v-50h-40v50z
M400 400h40v-50h-40v50zM450 450h40v-50h-40v50zM400 500h40v-50h-40v50zM450 550h40v-50h-40v50zM400 600h40v-50h-40v50zM450 650h40v-50h-40v50zM400 700h40v-50h-40v50zM450 750h40v-50h-40v50zM400 800h40v-50h-40v50zM450 850h40v-50h-40v50zM500 -200h40v-50h-40v50z
M550 -150h40v-50h-40v50zM500 -100h40v-50h-40v50zM550 -50h40v-50h-40v50zM500 0h40v-50h-40v50zM550 50h40v-50h-40v50zM500 100h40v-50h-40v50zM550 150h40v-50h-40v50zM500 200h40v-50h-40v50zM550 250h40v-50h-40v50zM500 300h40v-50h-40v50zM550 350h40v-50h-40v50z
M500 400h40v-50h-40v50zM550 450h40v-50h-40v50zM500 500h40v-50h-40v50zM550 550h40v-50h-40v50zM500 600h40v-50h-40v50zM550 650h40v-50h-40v50zM500 700h40v-50h-40v50zM550 750h40v-50h-40v50zM500 800h40v-50h-40v50zM550 850h40v-50h-40v50zM600 -200h40v-50h-40v50z
M650 -150h40v-50h-40v50zM600 -100h40v-50h-40v50zM650 -50h40v-50h-40v50zM600 0h40v-50h-40v50zM650 50h40v-50h-40v50zM600 100h40v-50h-40v50zM650 150h40v-50h-40v50zM600 200h40v-50h-40v50zM650 250h40v-50h-40v50zM600 300h40v-50h-40v50zM650 350h40v-50h-40v50z
M600 400h40v-50h-40v50zM650 450h40v-50h-40v50zM600 500h40v-50h-40v50zM650 550h40v-50h-40v50zM600 600h40v-50h-40v50zM650 650h40v-50h-40v50zM600 700h40v-50h-40v50zM650 750h40v-50h-40v50zM600 800h40v-50h-40v50zM650 850h40v-50h-40v50z" />
    <glyph glyph-name="darkshade" unicode="&#x2593;" 
d="M0 -185h45v-65h-45v65zM50 -135h45v-65h-45v65zM0 -85h45v-65h-45v65zM50 -35h45v-65h-45v65zM0 15h45v-65h-45v65zM50 65h45v-65h-45v65zM0 115h45v-65h-45v65zM50 165h45v-65h-45v65zM0 215h45v-65h-45v65zM50 265h45v-65h-45v65zM0 315h45v-65h-45v65zM50 365h45v-65
h-45v65zM0 415h45v-65h-45v65zM50 465h45v-65h-45v65zM0 515h45v-65h-45v65zM50 565h45v-65h-45v65zM0 615h45v-65h-45v65zM50 665h45v-65h-45v65zM0 715h45v-65h-45v65zM50 765h45v-65h-45v65zM0 815h45v-65h-45v65zM50 865h45v-65h-45v65zM100 -185h45v-65h-45v65z
M150 -135h45v-65h-45v65zM100 -85h45v-65h-45v65zM150 -35h45v-65h-45v65zM100 15h45v-65h-45v65zM150 65h45v-65h-45v65zM100 115h45v-65h-45v65zM150 165h45v-65h-45v65zM100 215h45v-65h-45v65zM150 265h45v-65h-45v65zM100 315h45v-65h-45v65zM150 365h45v-65h-45v65z
M100 415h45v-65h-45v65zM150 465h45v-65h-45v65zM100 515h45v-65h-45v65zM150 565h45v-65h-45v65zM100 615h45v-65h-45v65zM150 665h45v-65h-45v65zM100 715h45v-65h-45v65zM150 765h45v-65h-45v65zM100 815h45v-65h-45v65zM150 865h45v-65h-45v65zM200 -185h45v-65h-45v65z
M250 -135h45v-65h-45v65zM200 -85h45v-65h-45v65zM250 -35h45v-65h-45v65zM200 15h45v-65h-45v65zM250 65h45v-65h-45v65zM200 115h45v-65h-45v65zM250 165h45v-65h-45v65zM200 215h45v-65h-45v65zM250 265h45v-65h-45v65zM200 315h45v-65h-45v65zM250 365h45v-65h-45v65z
M200 415h45v-65h-45v65zM250 465h45v-65h-45v65zM200 515h45v-65h-45v65zM250 565h45v-65h-45v65zM200 615h45v-65h-45v65zM250 665h45v-65h-45v65zM200 715h45v-65h-45v65zM250 765h45v-65h-45v65zM200 815h45v-65h-45v65zM250 865h45v-65h-45v65zM300 -185h45v-65h-45v65z
M350 -135h45v-65h-45v65zM300 -85h45v-65h-45v65zM350 -35h45v-65h-45v65zM300 15h45v-65h-45v65zM350 65h45v-65h-45v65zM300 115h45v-65h-45v65zM350 165h45v-65h-45v65zM300 215h45v-65h-45v65zM350 265h45v-65h-45v65zM300 315h45v-65h-45v65zM350 365h45v-65h-45v65z
M300 415h45v-65h-45v65zM350 465h45v-65h-45v65zM300 515h45v-65h-45v65zM350 565h45v-65h-45v65zM300 615h45v-65h-45v65zM350 665h45v-65h-45v65zM300 715h45v-65h-45v65zM350 765h45v-65h-45v65zM300 815h45v-65h-45v65zM350 865h45v-65h-45v65zM400 -185h45v-65h-45v65z
M450 -135h45v-65h-45v65zM400 -85h45v-65h-45v65zM450 -35h45v-65h-45v65zM400 15h45v-65h-45v65zM450 65h45v-65h-45v65zM400 115h45v-65h-45v65zM450 165h45v-65h-45v65zM400 215h45v-65h-45v65zM450 265h45v-65h-45v65zM400 315h45v-65h-45v65zM450 365h45v-65h-45v65z
M400 415h45v-65h-45v65zM450 465h45v-65h-45v65zM400 515h45v-65h-45v65zM450 565h45v-65h-45v65zM400 615h45v-65h-45v65zM450 665h45v-65h-45v65zM400 715h45v-65h-45v65zM450 765h45v-65h-45v65zM400 815h45v-65h-45v65zM450 865h45v-65h-45v65zM500 -185h45v-65h-45v65z
M550 -135h45v-65h-45v65zM500 -85h45v-65h-45v65zM550 -35h45v-65h-45v65zM500 15h45v-65h-45v65zM550 65h45v-65h-45v65zM500 115h45v-65h-45v65zM550 165h45v-65h-45v65zM500 215h45v-65h-45v65zM550 265h45v-65h-45v65zM500 315h45v-65h-45v65zM550 365h45v-65h-45v65z
M500 415h45v-65h-45v65zM550 465h45v-65h-45v65zM500 515h45v-65h-45v65zM550 565h45v-65h-45v65zM500 615h45v-65h-45v65zM550 665h45v-65h-45v65zM500 715h45v-65h-45v65zM550 765h45v-65h-45v65zM500 815h45v-65h-45v65zM550 865h45v-65h-45v65zM600 -185h45v-65h-45v65z
M650 -135h45v-65h-45v65zM600 -85h45v-65h-45v65zM650 -35h45v-65h-45v65zM600 15h45v-65h-45v65zM650 65h45v-65h-45v65zM600 115h45v-65h-45v65zM650 165h45v-65h-45v65zM600 215h45v-65h-45v65zM650 265h45v-65h-45v65zM600 315h45v-65h-45v65zM650 365h45v-65h-45v65z
M600 415h45v-65h-45v65zM650 465h45v-65h-45v65zM600 515h45v-65h-45v65zM650 565h45v-65h-45v65zM600 615h45v-65h-45v65zM650 665h45v-65h-45v65zM600 715h45v-65h-45v65zM650 765h45v-65h-45v65zM600 815h45v-65h-45v65zM650 865h45v-65h-45v65z" />
    <glyph glyph-name="upeighthblock" unicode="&#x2594;" 
d="M0 850h700v-138h-700v138z" />
    <glyph glyph-name="righteighthblock" unicode="&#x2595;" 
d="M612 850h88v-1100h-88v1100z" />
    <glyph glyph-name="dnleftquadrant" unicode="&#x2596;" 
d="M0 300h350v-550h-350v550z" />
    <glyph glyph-name="dnrightquadrant" unicode="&#x2597;" 
d="M350 300h350v-550h-350v550z" />
    <glyph glyph-name="upleftquadrant" unicode="&#x2598;" 
d="M0 850h350v-550h-350v550z" />
    <glyph glyph-name="upleftdnleftdnrightquadrant" unicode="&#x2599;" 
d="M0 850h350v-550h350v-550h-700v1100z" />
    <glyph glyph-name="upleftdnrightquadrant" unicode="&#x259a;" 
d="M0 850h350v-550h350v-550h-350v550h-350v550z" />
    <glyph glyph-name="upleftuprightdnleftquadrant" unicode="&#x259b;" 
d="M0 850h700v-550h-350v-550h-350v1100z" />
    <glyph glyph-name="upleftuprightdnrightquadrant" unicode="&#x259c;" 
d="M0 850h700v-1100h-350v550h-350v550z" />
    <glyph glyph-name="uprightquadrant" unicode="&#x259d;" 
d="M350 850h350v-550h-350v550z" />
    <glyph glyph-name="uprightdnleftquadrant" unicode="&#x259e;" 
d="M0 300h350v-550h-350v550zM350 850h350v-550h-350v550z" />
    <glyph glyph-name="uprightdnleftdnrightquadrant" unicode="&#x259f;" 
d="M0 300h350v550h350v-1100h-700v550z" />
    <glyph glyph-name="blacksquare" unicode="&#x25a0;" 
d="M50 700h600v-600h-600v600z" />
    <glyph glyph-name="H22073" unicode="&#x25a1;" 
d="M50 100v600h600v-600h-600zM150 190h400v420h-400v-420z" />
    <glyph glyph-name="blacksmallsquare" unicode="&#x25aa;" 
d="M204 546h292v-292h-292v292z" />
    <glyph glyph-name="whitesmallsquare" unicode="&#x25ab;" 
d="M536 214h-372v372h372v-372zM456 506h-212v-212h212v212z" />
    <glyph glyph-name="triagup" unicode="&#x25b2;" 
d="M360 700l240 -480v-20h-500v20l240 480h20z" />
    <glyph glyph-name="blackrightpointingpointer" unicode="&#x25ba;" 
d="M600 440l-480 -240h-20v500h20l480 -240v-20z" />
    <glyph glyph-name="blackdownpointingtriangle" unicode="&#x25bc;" 
d="M340 150l-240 480v20h500v-20l-240 -480h-20z" />
    <glyph glyph-name="triaglf" unicode="&#x25c4;" 
d="M100 460l480 240h20v-500h-20l-480 240v20z" />
    <glyph glyph-name="lozenge" unicode="&#x25ca;" 
d="M293 0l-253 400l253 400h106l262 -400l-262 -400h-106zM349 60l217 340l-217 340l-209 -340z" />
    <glyph glyph-name="circle" unicode="&#x25cb;" 
d="M352 86q-68 0 -126 23t-101 66q-43 42 -66 100t-23 126t23 126t66 101t101 66t126 23t126 -23t100 -66q43 -43 66 -101t23 -126t-23 -126t-66 -100q-42 -43 -100 -66t-126 -23zM352 174q47 0 86.5 16.5t68.5 46.5q29 31 44.5 72.5t15.5 91.5t-15.5 91.5t-44.5 72.5
q-29 30 -68.5 46.5t-86.5 16.5q-48 0 -88 -16.5t-68 -46.5q-29 -31 -44.5 -72.5t-15.5 -91.5t15.5 -91.5t44.5 -72.5q28 -30 68 -46.5t88 -16.5z" />
    <glyph glyph-name="H18533" unicode="&#x25cf;" 
d="M352 86q-68 0 -126 23t-101 66q-43 42 -66 100t-23 126t23 126t66 101t101 66t126 23t126 -23t100 -66q43 -43 66 -101t23 -126t-23 -126t-66 -100q-42 -43 -100 -66t-126 -23z" />
    <glyph glyph-name="whitebullet" unicode="&#x25e6;" 
d="M558 362q0 -40 -14 -71t-41 -52q-27 -22 -65.5 -32.5t-86.5 -10.5q-49 0 -88 10.5t-66 32.5q-26 21 -40 52t-14 71v72q0 41 14 72.5t41 52.5q27 22 65.5 33t87.5 11t87.5 -11t65.5 -33q27 -21 40.5 -52.5t13.5 -72.5v-72zM223 362q0 -24 10 -40.5t28 -26.5
q17 -10 40 -14.5t50 -4.5t49.5 4.5t39.5 14.5q18 10 28 26.5t10 40.5v72q0 24 -9.5 41.5t-27.5 27.5q-17 11 -40 15.5t-50 4.5t-50 -4.5t-41 -15.5q-17 -10 -27 -27.5t-10 -41.5v-72z" />
    <glyph glyph-name="uni2619" unicode="&#x2619;" 
d="M673 373l-85 2q2 31 -4 56.5t-19 43t-31.5 27t-42.5 9.5h-281q-49 0 -83.5 15t-55.5 42.5t-29.5 67t-6.5 88.5l85 -2q-3 -28 0 -50t12.5 -38t27.5 -24.5t45 -8.5h69v75q0 42 15 75.5t43.5 56.5t71 35.5t97.5 12.5l11 -84q-37 0 -62.5 -4.5t-42.5 -16.5t-26 -34t-9 -56
v-60h120q42 0 77 -14.5t60.5 -43.5t37 -72t6.5 -98zM353 183v253h43q36 0 63 -7.5t45 -24t27 -43.5t9 -67v-188q0 -71 -21 -130.5t-60.5 -103t-93.5 -67t-119 -23.5q-62 0 -108.5 17t-76 47t-43 70.5t-12.5 87.5l88 -5q0 -31 6 -54t17.5 -38t27.5 -22.5t36 -7.5q17 0 29 4.5
t19.5 13t11 20.5t3.5 27v38l-175 215v92q0 38 7.5 68t23.5 51.5t41.5 33t60.5 11.5h13l104 -268h34z" />
    <glyph glyph-name="female" unicode="&#x2640;" 
d="M395 -200h-90v200h-205v90h205v163q-52 7 -95.5 30t-74.5 60q-31 36 -48 84t-17 103q0 61 20.5 112.5t58.5 89.5q37 37 88.5 57.5t112.5 20.5t112.5 -20.5t89.5 -57.5q37 -38 57.5 -89.5t20.5 -112.5q0 -55 -17 -103t-48 -84q-31 -37 -74.5 -60t-95.5 -30v-163h205v-90
h-205v-200zM350 723q-41 0 -75 -13.5t-58 -39.5q-24 -25 -37 -61t-13 -79t13 -78.5t37 -61.5q25 -26 58.5 -39.5t74.5 -13.5t74.5 13.5t58.5 39.5q24 26 37 61.5t13 78.5t-13 78.5t-37 61.5q-25 26 -58.5 39.5t-74.5 13.5z" />
    <glyph glyph-name="male" unicode="&#x2642;" 
d="M560 260q0 -61 -20.5 -112.5t-57.5 -88.5q-38 -38 -89.5 -58.5t-112.5 -20.5t-112.5 20.5t-88.5 58.5q-38 37 -58.5 88.5t-20.5 112.5t20.5 112.5t58.5 89.5q37 37 88.5 57.5t112.5 20.5q18 0 35 -2t33 -5q16 -4 31.5 -9t29.5 -12l180 208h-258v80h394v-399h-80v275
l-169 -209q20 -19 35.5 -41.5t26.5 -49.5q11 -26 16.5 -55t5.5 -61zM280 453q-41 0 -75 -13.5t-58 -39.5q-24 -25 -37 -61t-13 -79t13 -78.5t37 -61.5q25 -26 58.5 -39.5t74.5 -13.5t74.5 13.5t58.5 39.5q24 26 37 61.5t13 78.5t-13 78.5t-37 61.5q-25 26 -58.5 39.5
t-74.5 13.5z" />
    <glyph glyph-name="spade" unicode="&#x2660;" 
d="M520 90v-90h-340v90h120l13 260h-27l-56 -150h-53q-36 0 -64 12.5t-46 33.5q-19 22 -28 50t-9 60v92l283 352h74l283 -352v-92q0 -32 -9 -60t-28 -50q-18 -21 -46 -33.5t-64 -12.5h-53l-56 150h-27l13 -260h120z" />
    <glyph glyph-name="club" unicode="&#x2663;" 
d="M208 603q0 41 9.5 78.5t28.5 66.5q18 29 44.5 45.5t59.5 16.5t59.5 -16.5t44.5 -45.5q19 -29 28.5 -66.5t9.5 -78.5l-69 -106l26 -28q13 18 26 31t26 22q13 10 26.5 14.5t27.5 4.5q25 0 48.5 -10.5t42.5 -30.5t29.5 -49t10.5 -65q0 -40 -15 -77t-43 -65
q-27 -29 -65.5 -45t-83.5 -16l-49 172h-41l11 -265h122v-90h-344v90h122l11 265h-41l-49 -172q-45 0 -83.5 15t-66.5 42q-27 27 -42 64.5t-15 81.5q0 35 11 63t31 47q19 19 43 28.5t50 9.5q14 0 28 -4.5t26 -12.5q13 -8 25 -20t23 -28l26 28z" />
    <glyph glyph-name="heart" unicode="&#x2665;" 
d="M293 0l-243 422l-20 172q-5 41 3 78.5t27 65.5q19 29 48 45.5t64 16.5t63 -13.5t49 -41.5q21 -27 34 -71t18 -104h28q5 58 20.5 102t39.5 72q23 29 52 42.5t62 13.5t59.5 -16.5t44.5 -45.5q18 -28 25.5 -65.5t2.5 -78.5l-20 -172l-243 -422h-114z" />
    <glyph glyph-name="diamond" unicode="&#x2666;" 
d="M292 0l-253 400l253 400h106l262 -400l-262 -400h-106z" />
    </font>
</defs>
</svg>
